<?xml version="1.0" encoding="UTF-8" standalone="no"?>
<!DOCTYPE svg PUBLIC "-//W3C//DTD SVG 1.1//EN" "http://www.w3.org/Graphics/SVG/1.1/DTD/svg11.dtd">
<svg width="100%" height="100%" viewBox="0 0 973 974" version="1.1" xmlns="http://www.w3.org/2000/svg" xmlns:xlink="http://www.w3.org/1999/xlink" xml:space="preserve" xmlns:serif="http://www.serif.com/" style="fill-rule:evenodd;clip-rule:evenodd;stroke-linejoin:round;stroke-miterlimit:2;">
    <g transform="matrix(1,0,0,1,-6250,-28)">
        <g id="abh" transform="matrix(1,0,0,1,0,28.8554)">
            <rect x="6250" y="0" width="972.222" height="972.222" style="fill:none;"/>
            <path d="M6513.88,206.604C6509.32,214.835 6497.68,227.811 6497.03,235.33C6496.62,255.275 6500.85,280.878 6509.14,285.239C6517.45,289.618 6531.26,289 6543.32,285.328C6616.66,263.01 6628.65,262.37 6694.26,248.964C6717.75,244.164 6776.59,235.888 6796.18,229.804C6832,218.678 6866.21,217.92 6890.17,209.372C6852.8,242.262 6826.97,262.581 6798.69,290.166C6783.19,305.285 6648.39,418.038 6645.15,434.594C6639.34,464.27 6642.14,478.442 6647.01,488.178C6657.89,494.416 6675.05,495.792 6683.86,495.658C6791.92,513.909 6854.18,535.587 6896.88,564.08C6919.13,578.927 6932.78,594.185 6938.2,610.519C6944.22,628.701 6938.92,647.173 6927.97,665.067C6905.01,702.588 6858.16,736.326 6807.43,761.978C6796.81,767.348 6786.02,772.391 6775.19,777.003C6750.15,754.297 6728.09,736.931 6708.2,724.42C6672.6,702.027 6644.28,694.115 6622.97,693.977C6546.15,693.478 6541.6,786.526 6578.25,826.384C6594.64,843.999 6621.2,853.822 6654.11,855.788C6684.88,857.627 6721.79,852.267 6759.82,841.17C6775.55,836.579 6791.48,830.973 6807.21,824.459C6815.24,831.269 6823.5,838.519 6832,846.227C6844.23,857.324 6856.66,869.623 6869.74,882.719L6872.51,885.601L6878.27,880.079L6875.51,877.197C6868.2,869.526 6860.88,862.324 6854.05,855.11C6841.91,842.305 6830.34,830.363 6819.28,819.273C6823.78,817.263 6828.26,815.18 6832.7,813.027C6894.29,783.177 6948.92,739.986 6976.57,694.816C6996.98,661.472 7003.51,626.48 6992.29,592.598C6983.65,566.543 6964,540.365 6928.51,516.682C6881.45,485.28 6803.68,456.85 6684.59,436.737L6681.86,436.275C6700.39,423.449 6751.89,376.506 6784.34,354.068C6803.95,340.508 6858.9,294.646 6882.15,276.045C6925.98,240.985 6914.68,252.444 6966.27,216.59C6992.48,198.374 6994.38,186.865 6994.38,186.865C6995.13,177.783 6968.31,144.394 6958.58,147.938C6944.8,156.067 6940.26,156.371 6926.11,163.602C6916.29,168.62 6728.92,204.814 6696.33,209.769C6645.09,217.558 6612.59,221.485 6546.32,235.302C6571.37,176.063 6615.29,145.568 6664.32,131.063C6678.06,126.996 6692.23,124.409 6706.43,122.068C6728.76,118.385 6751.12,115.879 6773.19,114.974C6839.67,112.247 6877.55,113.755 6908.1,119.177C6916.71,120.705 6930.67,122.622 6937.32,125.196C6942.22,127.089 6952.01,130.814 6953.11,129.421C6956.69,128.292 6959.11,120.881 6957.23,118.911C6956.96,119.348 6955.17,117.934 6947.23,118.593C6944.09,118.854 6940.82,118.132 6933.56,115.279C6913.65,107.457 6881.03,94.151 6840.83,83.039C6820.43,77.401 6798.56,72.609 6775.51,69.425C6750.77,66.009 6725.15,64.531 6699.63,66.581C6682.28,67.975 6665.15,71.601 6648.46,76.333C6581.23,95.397 6557.64,127.568 6513.88,206.604ZM6756.25,784.59C6717.82,757.267 6688.84,743.503 6663.72,735.44C6638.73,727.418 6628.83,729.672 6617.64,736.917C6610.16,741.757 6604.2,751.887 6603.18,760.501C6601.47,774.877 6607.31,787.195 6617.24,796.431C6627.42,805.983 6644.99,808.999 6664.05,810.597C6688.5,812.649 6708.55,806.981 6743.31,791.459C6747.44,789.616 6751.97,786.224 6756.25,784.59Z" style="stroke:black;stroke-width:1.67px;"/>
        </g>
    </g>
</svg>
