<?xml version="1.0" encoding="UTF-8" standalone="no"?>
<!DOCTYPE svg PUBLIC "-//W3C//DTD SVG 1.1//EN" "http://www.w3.org/Graphics/SVG/1.1/DTD/svg11.dtd">
<svg width="100%" height="100%" viewBox="0 0 974 973" version="1.1" xmlns="http://www.w3.org/2000/svg" xmlns:xlink="http://www.w3.org/1999/xlink" xml:space="preserve" xmlns:serif="http://www.serif.com/" style="fill-rule:evenodd;clip-rule:evenodd;stroke-linejoin:round;stroke-miterlimit:2;">
    <g transform="matrix(1,0,0,1,-3648,-51)">
        <g id="adj" transform="matrix(1,0,0,1,3648.92,51.4742)">
            <rect x="0" y="0" width="972.222" height="972.222" style="fill:none;"/>
            <g transform="matrix(1,0,0,1,-3648.92,-51.4742)">
                <path d="M3819.44,434.036L3808.71,441.341C3808.61,450.853 3810.2,459.422 3815.49,465.92C3817.29,468.819 3819.64,471.717 3822.54,474.551C3823.4,491.344 3824.12,507.878 3824.37,523.83C3824.69,544.759 3824.11,564.587 3823.56,582.461C3822.82,606.199 3821.41,626.47 3821.17,641.478C3819.97,674.266 3820.13,662.15 3817.71,692.135C3817.02,700.707 3814.97,730.003 3814.37,737.99C3813.96,743.608 3813.87,759.058 3813.14,774.702C3811.99,799.144 3817.52,813.016 3814.88,825.43C3812.74,835.529 3808.64,846.942 3812.03,861.119C3817.5,865.665 3819.77,872.633 3868.94,863.797C3879.88,855.468 3875.9,853.609 3870.95,807.449C3871.67,794.125 3871.66,803.759 3870.89,778.04C3870.73,772.71 3870.62,767.18 3870.04,761.499C3869.21,753.462 3867.24,745.394 3866.22,736.776C3862.66,706.796 3860.96,673.654 3858.14,640.861C3857.18,626.159 3855.83,606.251 3855.81,582.954C3855.8,565.177 3856.12,545.448 3857.6,524.688C3858.29,515.066 3859.21,505.245 3860.28,495.29C3887.38,504.096 3928.28,510.409 3977.13,513.23C3990.62,514.009 4004.74,514.707 4019.36,514.752C4050.26,514.847 4083.18,512.635 4117.07,510.508C4175.16,506.862 4235.73,501.339 4291.86,493.049L4292.84,506.743C4299.78,604.145 4310.73,687.375 4296.59,778.139C4295.46,785.37 4291.08,819.987 4284.1,836.776C4280.74,844.874 4270.48,863.901 4275.97,869.763C4292.2,887.087 4321.31,882.933 4329.69,878.931C4335.61,876.107 4343.04,842.723 4343.16,827.764C4343.32,808.286 4348.17,801.208 4350.81,784.428C4358.16,737.799 4357.66,710.512 4357.3,659.007C4356.89,599.553 4353.41,538.908 4347.89,482.367C4439.65,454.331 4490.46,358.334 4479.16,286.654C4474.97,260.043 4462.61,236.801 4441.3,220.376C4415.94,200.828 4377.41,190.704 4322.82,198.992C4310.71,200.774 4300.43,208.447 4293.46,223.071C4288.1,234.337 4284.89,251.531 4283.43,273.518C4281.07,308.906 4282.86,358.077 4286.41,414.574C4287.28,428.435 4288.26,442.738 4289.3,457.389C4220.75,464.883 4145.48,468.669 4076.55,467.036C4059.22,466.626 4042.41,465.204 4026.09,464.435C3981.85,462.35 3942.1,460.008 3911.3,454.619C3896.68,452.062 3884.26,449.112 3874.7,445.447C3872.1,444.448 3868.97,442.773 3866.9,441.599C3869.2,423.985 3871.49,406.338 3873.33,389.012C3874.3,379.837 3875.14,370.784 3875.77,361.877C3878.73,319.402 3880.01,280.907 3882,253.471C3882.84,242.023 3883.61,232.597 3884.33,225.757L3897.48,219.176L3883.56,196.789C3878.21,188.193 3835.87,169.627 3829.14,208.913C3828,215.553 3826.6,230.014 3825.14,249.95C3823.13,277.671 3819.99,316.486 3818.84,359.479C3818.6,368.45 3818.6,377.587 3818.74,386.855C3818.99,402.414 3818.66,418.188 3819.44,434.036ZM4344.26,447.752C4401.39,428.491 4438.93,376.354 4447.22,327.095C4452.59,295.216 4445.82,264.148 4422.78,245.757C4403.83,230.62 4373.99,225.263 4333.2,233.109C4332.44,233.187 4332.02,233.445 4331.83,233.825C4331.12,235.56 4330.85,239.297 4330.25,241.783C4327.03,255.227 4327.22,274.98 4328.6,299.479C4330.85,339.333 4337.94,390.665 4344.26,447.752Z" style="fill:white;stroke:black;stroke-width:1px;"/>
            </g>
        </g>
    </g>
</svg>
