<?xml version="1.0" encoding="UTF-8" standalone="no"?>
<!DOCTYPE svg PUBLIC "-//W3C//DTD SVG 1.1//EN" "http://www.w3.org/Graphics/SVG/1.1/DTD/svg11.dtd">
<svg width="100%" height="100%" viewBox="0 0 973 973" version="1.1" xmlns="http://www.w3.org/2000/svg" xmlns:xlink="http://www.w3.org/1999/xlink" xml:space="preserve" xmlns:serif="http://www.serif.com/" style="fill-rule:evenodd;clip-rule:evenodd;stroke-linejoin:round;stroke-miterlimit:2;">
    <g transform="matrix(1,0,0,1,-2533,-32)">
        <g id="aig" transform="matrix(1,0,0,1,2533.61,32.3927)">
            <rect x="0" y="0" width="972.222" height="972.222" style="fill:none;"/>
            <g transform="matrix(0.668585,-0.00807019,-0.00544904,-0.451432,336.19,647.721)">
                <path d="M192.804,53.046C143.727,91.088 102.579,71.1 76.315,33.058C34.991,-26.798 24.878,-144.129 61.801,-207.115C82.445,-242.331 117.314,-264.92 171.54,-246.978C201.531,-237.96 222.487,-202.094 235.199,-143.812C237.792,-150.373 240.385,-157.21 242.995,-164.317C260.551,-213.863 221.076,-372.701 171.35,-391.594C134.276,-405.68 51.882,-434.865 36.328,-347.757C21.248,-263.298 11.376,-262.011 1.829,-265.894C-34.394,-256.79 -51.154,-274.734 -61.279,-301.9C-59.764,-356.45 -56.715,-389.459 -24.452,-424.508C89.417,-548.211 170.332,-499.026 226.871,-447.02C271.038,-406.394 336.604,-207.686 294.684,-111.809C277.582,-71.293 264.065,-15.134 247.749,10.961C255.976,155.901 251.421,327.815 252.959,503.283C253.728,590.994 255.691,672.615 267.157,736.981C274.66,779.106 284.377,813.564 303.8,829.771C307.355,828.401 333.213,817.382 341.691,785.738C347.58,763.762 350.024,734.854 348.2,697.546L345.121,634.603L430.119,625.485L433.198,688.427C438.586,798.596 416.134,864.36 389.99,902.926C347.866,965.064 290.676,961.105 268.29,944.697C217.471,907.447 186.381,818.859 175.271,697.777C167.964,618.151 167.379,523.714 171.354,426.132C176.565,298.236 189.319,165.158 192.804,53.046ZM193.089,-56.805C185.991,-45.666 178.999,-36.543 172.105,-29.285C159.438,-15.95 148.04,-8.716 137.408,-9.068C114.937,-9.813 99.289,-38.766 92.144,-70.734C84.532,-104.793 85.005,-145.012 102.117,-167.102C114.292,-182.82 133.78,-186.918 161.106,-177.852C171.697,-174.082 177.771,-160.259 182.614,-142.031C188.647,-119.323 191.779,-90.367 193.089,-56.805Z"/>
            </g>
        </g>
    </g>
</svg>
