<?xml version="1.0" encoding="UTF-8" standalone="no"?>
<!DOCTYPE svg PUBLIC "-//W3C//DTD SVG 1.1//EN" "http://www.w3.org/Graphics/SVG/1.1/DTD/svg11.dtd">
<svg width="100%" height="100%" viewBox="0 0 973 973" version="1.1" xmlns="http://www.w3.org/2000/svg" xmlns:xlink="http://www.w3.org/1999/xlink" xml:space="preserve" xmlns:serif="http://www.serif.com/" style="fill-rule:evenodd;clip-rule:evenodd;stroke-linejoin:round;stroke-miterlimit:2;">
    <g transform="matrix(1,0,0,1,-8750,-45)">
        <g id="ait" transform="matrix(1,0,0,1,0,45.4377)">
            <rect x="8750" y="0" width="972.222" height="972.222" style="fill:none;"/>
            <g transform="matrix(1,0,0,1,0,-45.4377)">
                <path d="M9261.78,452.674C9350.18,435.101 9481,408.705 9546.82,241.926C9547.24,240.873 9547.14,241.351 9548.54,241.518C9525.97,385.164 9388.9,509.403 9266.49,505.86C9435.82,564.163 9540.54,763.915 9562.63,791.369C9571.01,801.788 9559.9,821.111 9551.19,847.289C9543.68,869.847 9523.34,863.371 9506.4,861.447C9464.05,856.637 9439.88,848.368 9400.99,830.803C9370.48,817.02 9344.44,796.522 9318.62,775.534C9292.7,754.458 9267.94,730.176 9248.71,702.703C9224.72,668.423 9226.38,667.542 9206.76,630.508C9206.62,630.247 9206.07,630.512 9205.91,630.759C9200.11,639.554 9194.94,648.763 9188.98,657.455C9176.48,675.689 9162,694.168 9146.97,710.385C9092.61,769.051 9019.15,813.992 8944.93,842.974C8926.67,850.101 8908.16,856.533 8889.71,863.142C8886.07,864.449 8869.34,870.797 8862.12,871.435C8858.1,871.792 8854.01,872.391 8852.52,867.928C8848.71,856.533 8863,860.125 8869.15,858.034C8877.93,855.049 8886.63,851.815 8895.16,848.187C8925.85,835.128 8955.11,818.473 8982.9,800.07C9066.71,744.553 9148.84,666.683 9174.6,566.012C9140.25,567.932 9106.65,577.924 9075.43,592.053C9014.61,619.584 8960.61,663.28 8918.7,715.046C8900.66,737.33 8884.71,761.412 8871.91,787.088C8860.82,809.323 8859.51,815.136 8851.45,838.464C8850.91,840.023 8851.28,841.117 8848.86,840.709C8833.26,727.741 8971.39,540.416 9118.1,508.287C8864.59,480.041 8859.28,290.516 8845.4,257.805L8842.82,255.106C8834.69,242.125 8843.35,218.058 8851.08,206.982C8854.35,202.295 8857.58,198.574 8863.23,198.284C8875.41,197.661 8889.67,207.658 8900.1,212.124C8923.44,222.118 8923.91,220.374 8947.66,229.596C8999.07,249.554 9046.27,277.321 9092.2,307.608C9101.9,314 9127.31,333.11 9136.35,341.536C9152.4,356.491 9167.93,375.551 9181.42,392.548C9190.67,404.206 9199.64,416.087 9208.61,427.966C9229.89,377.902 9265.58,329.92 9309.43,297.449C9342.71,272.812 9381.48,256.456 9420.49,243.367C9457.99,230.786 9487.32,224.207 9528.29,214.152C9529.2,213.928 9562.39,203.766 9553.89,220.032C9552.47,222.744 9548,221.739 9544.98,222.268C9537.47,223.585 9529.9,224.616 9522.48,226.382C9487.03,234.828 9452.05,247.823 9419.82,264.842C9344.75,304.477 9286.72,370.56 9261.04,451.929C9260.65,453.173 9261.78,452.674 9261.78,452.674ZM9248.95,567.354C9251.91,566.245 9260.87,569.679 9262.06,570.199C9270.7,573.984 9279.33,577.858 9287.61,582.391C9312.72,596.142 9339.15,613.694 9361.58,631.155C9383.25,648.022 9403.78,665.789 9422.84,685.459C9435.9,698.93 9448.48,713.316 9459.67,728.388C9465.25,735.894 9470.59,743.589 9475.52,751.527C9480.39,759.352 9484.98,767.374 9489.07,775.63C9493.7,784.969 9503.96,803.577 9503.96,803.577C9454.27,827.213 9213.23,660.658 9248.95,567.354ZM9172.36,461.17L9171.47,460.545C9118.93,354.599 8930.28,262.547 8903.8,272.463C8903.8,272.463 8922.3,357.016 8980.83,400.767C9022.8,432.148 9083.3,451.955 9171.74,461.066L9171.73,461.053C9171.73,461.048 9171.72,461.043 9171.72,461.038L9171.47,460.545L9171.74,461.066C9171.74,461.068 9171.74,461.067 9171.74,461.067L9171.89,461.085L9172.36,461.17Z" style="stroke:black;stroke-width:1.59px;"/>
            </g>
        </g>
    </g>
</svg>
