<?xml version="1.0" encoding="UTF-8" standalone="no"?>
<!DOCTYPE svg PUBLIC "-//W3C//DTD SVG 1.1//EN" "http://www.w3.org/Graphics/SVG/1.1/DTD/svg11.dtd">
<svg width="100%" height="100%" viewBox="0 0 974 973" version="1.1" xmlns="http://www.w3.org/2000/svg" xmlns:xlink="http://www.w3.org/1999/xlink" xml:space="preserve" xmlns:serif="http://www.serif.com/" style="fill-rule:evenodd;clip-rule:evenodd;stroke-linejoin:round;stroke-miterlimit:2;">
    <g transform="matrix(1,0,0,1,-6255,-22)">
        <g id="aitch" transform="matrix(-1,0,0,1,7228.16,22.0509)">
            <rect x="0" y="0" width="972.222" height="972.222" style="fill:none;"/>
            <g transform="matrix(-1.06144,0.0313062,-0.0174325,-0.591052,767.339,707.665)">
                <path d="M109.289,639.643C91.283,542.299 83.95,445.043 85.697,354.305C89.505,156.48 136.773,-9.917 208.172,-87.039C259.792,-143.136 312.785,-141.78 362.062,-101.954C421.291,-54.083 475.55,52.603 512.521,179.909C529.943,239.902 543.671,304.334 552.576,368.638C564.047,358.065 576.424,348.436 589.863,340.247L593.378,337.857L596.039,350.482L592.524,352.872C578.879,363.201 566.395,374.75 555.053,387.423C565.27,469.574 567.437,550.782 559.247,621.482C550.808,694.332 531.722,756.373 501.096,799.237C486.177,819.8 472.553,824.329 461.277,818.725C452.185,814.206 443.698,804.319 437.569,787.032C424.679,750.669 420.138,674.743 437.151,592.498C449.374,533.408 471.997,471.231 508.03,419.832C499.881,353.224 485.659,285.486 467.09,222.928C435.236,115.614 390.971,22.975 340.892,-17.919C306.758,-45.793 270.036,-47.996 234.049,-9.568C174.922,53.955 139.065,194.116 135.345,357.667C132.312,491.032 158.713,658.779 205.269,799.146C211.097,816.515 201.722,816.686 193.311,830.215C184.9,843.745 171.888,848.327 162.914,836.02C134.865,796.954 110.531,758.737 89.842,720.633C49.604,646.528 22.265,574.25 4.069,504.582C-36.944,347.562 -31.784,203.548 -19.11,71.738C-15.264,32.723 1.22,-28.157 22.635,-81.887C44.672,-137.176 53.82,-170.29 66.56,-190.867C69.781,-196.07 79.909,-205.778 85.994,-201.688C90.307,-198.789 92.8,-183.565 98.125,-178.938C101.608,-175.911 103.68,-153.331 97.88,-148.318C91.042,-136.648 58.345,-110.451 40.805,-60.045C23.6,-10.603 10.234,44.09 8.028,78.824C0.017,200.372 -1.37,332.214 39.845,472.598C55.838,527.075 78.424,582.46 109.289,639.643ZM511.454,451.516C516.529,505.586 517.348,558.252 512.981,606.03C507.987,660.681 496.877,709.198 475.319,743.764C473.747,746.32 472.386,748.654 470.898,749.993C470.364,750.475 470.495,752.471 470.047,752.187C464.6,748.733 462.363,734.689 460.407,717.24C455.679,675.038 458.747,614.566 474.216,552.848C482.818,518.531 494.827,483.661 511.454,451.516Z" style="fill:none;stroke:black;stroke-width:1.94px;"/>
            </g>
        </g>
    </g>
</svg>
