<?xml version="1.0" encoding="UTF-8" standalone="no"?>
<!DOCTYPE svg PUBLIC "-//W3C//DTD SVG 1.1//EN" "http://www.w3.org/Graphics/SVG/1.1/DTD/svg11.dtd">
<svg width="100%" height="100%" viewBox="0 0 974 973" version="1.1" xmlns="http://www.w3.org/2000/svg" xmlns:xlink="http://www.w3.org/1999/xlink" xml:space="preserve" xmlns:serif="http://www.serif.com/" style="fill-rule:evenodd;clip-rule:evenodd;stroke-linejoin:round;stroke-miterlimit:2;">
    <g transform="matrix(1,0,0,1,-8755,-22)">
        <g id="dja" transform="matrix(1,0,0,1,8755.93,22.0509)">
            <rect x="0" y="0" width="972.222" height="972.222" style="fill:none;"/>
            <g transform="matrix(1,0,0,1,-8755.93,-22.0509)">
                <path d="M9023.88,161.837L8968.15,149.947L8962.21,177.811C8948.17,243.607 8944.41,319.875 8946.05,397.778C8947.45,463.906 8951.93,531.303 8958.39,594.097C8867.1,626.975 8817.89,734.696 8830.37,814.225C8835.01,843.749 8847.75,869.375 8869.32,887.254C8888.58,903.212 8915.16,913.138 8950.22,912.789L8954.65,912.692C8965.08,912.339 8976.23,911.096 8988.15,908.859C9000.22,906.654 9010.38,897.928 9017.1,881.533C9022.27,868.902 9025.2,849.716 9026.3,825.231C9028.06,785.823 9025.47,731.158 9020.99,668.377C9019.88,652.974 9018.66,637.082 9017.38,620.803C9083.36,611.546 9155.65,606.009 9222.56,606.117L9229.94,606.152C9247.27,606.29 9264.11,607.561 9280.44,608.116C9324.71,609.621 9364.49,611.494 9395.38,616.921C9410.03,619.496 9422.5,622.549 9432.12,626.45C9434.75,627.515 9437.9,629.324 9439.99,630.601C9437.98,650.233 9435.98,669.9 9434.43,689.203C9433.61,699.427 9432.92,709.512 9432.44,719.432C9430.18,766.735 9429.54,809.58 9428,840.136C9427.36,852.886 9426.74,863.386 9426.13,871.008L9413.09,878.57L9427.38,903.217C9430.3,908.245 9443.7,916.212 9456.54,916.002L9457.67,915.962C9468.58,915.366 9478.84,908.585 9481.59,888.728C9482.62,881.321 9483.79,865.209 9484.91,843.006C9486.46,812.132 9488.96,768.897 9489.4,721.051C9489.49,711.067 9489.34,700.903 9489.04,690.596C9488.54,673.293 9487.62,655.691 9486.56,638.082L9505.28,627.231L9490.98,602.585C9489.14,599.398 9486.75,596.221 9483.79,593.133C9482.66,574.469 9481.66,556.08 9481.15,538.33C9480.49,515.054 9480.74,492.987 9480.99,473.094C9481.33,446.675 9482.41,424.1 9482.4,407.401C9483.06,370.905 9482.59,334.073 9484.52,300.673C9485.07,291.124 9486.64,282.148 9487.1,273.252C9487.43,266.995 9487.32,260.922 9487.29,255.065C9487.14,227.843 9486.44,205.489 9486.93,191.381L9487.9,162.906L9430.95,160.975L9429.99,189.45C9429.49,204.284 9429.23,227.811 9430.42,256.406C9430.67,262.332 9430.87,268.482 9431.55,274.791C9432.51,283.716 9434.61,292.654 9435.78,302.222C9439.83,335.505 9442.08,372.341 9445.45,408.768C9446.65,425.104 9448.32,447.225 9448.73,473.14C9449.04,492.915 9449.05,514.867 9447.91,537.988C9447.38,548.704 9446.62,559.645 9445.7,570.738C9418.46,561.441 9377.47,555.173 9328.59,552.935C9318.46,552.472 9307.98,552.066 9297.2,551.984L9291.79,551.972C9289.98,551.977 9288.16,551.993 9286.34,552.021C9255.44,552.484 9222.55,555.551 9188.71,558.541C9130.69,563.667 9070.22,570.927 9014.23,581.182L9013.02,565.967C9003.09,440.2 8994.49,299.583 9017.93,189.7L9023.88,161.837ZM8962.59,632.535C8905.78,655.013 8869.12,713.701 8861.64,768.65C8856.8,804.21 8864.09,838.645 8887.42,858.68C8900.3,869.739 8917.93,875.64 8940.41,875.47L8943.65,875.404C8953.82,875.071 8964.94,873.536 8977.03,870.713L8977.08,870.663C8977.51,870.454 8977.4,870.511 8977.8,870.405L8978.56,870.277C8979.24,868.333 8979.45,864.171 8980,861.395C8983.01,846.382 8982.49,824.411 8980.7,797.185C8977.8,752.893 8969.85,695.922 8962.59,632.535ZM8978.54,870.357L8979.74,870.071C8979.45,870.144 8979.01,870.204 8978.56,870.277L8978.54,870.357L8977.03,870.713C8976.94,870.808 8976.95,870.928 8977.11,871.074C8977.3,871.242 8977.47,871.331 8977.63,871.349L8977.78,871.345C8978.09,871.288 8978.34,870.926 8978.54,870.357Z" style="fill:white;stroke:black;stroke-width:1.67px;"/>
            </g>
        </g>
    </g>
</svg>
