<?xml version="1.0" encoding="UTF-8" standalone="no"?>
<!DOCTYPE svg PUBLIC "-//W3C//DTD SVG 1.1//EN" "http://www.w3.org/Graphics/SVG/1.1/DTD/svg11.dtd">
<svg width="100%" height="100%" viewBox="0 0 974 973" version="1.1" xmlns="http://www.w3.org/2000/svg" xmlns:xlink="http://www.w3.org/1999/xlink" xml:space="preserve" xmlns:serif="http://www.serif.com/" style="fill-rule:evenodd;clip-rule:evenodd;stroke-linejoin:round;stroke-miterlimit:2;">
    <g transform="matrix(1,0,0,1,-6255,-22)">
        <g id="dji" transform="matrix(-1,0,0,1,7228.16,22.0509)">
            <rect x="0" y="0" width="972.222" height="972.222" style="fill:none;"/>
            <g transform="matrix(1.04063,0,0,0.591309,178.711,344.148)">
                <path d="M500.359,369.133C580.312,407.898 631.545,545.344 639.639,673.746C644.786,755.399 632.925,832.028 602.594,877.934C577.299,916.218 538.71,935.474 484.3,913.375C476.431,910.232 469.346,901.481 464.174,885.013C457.946,865.184 454.332,829.478 453.326,781.187C451.722,704.21 456.132,591.804 461.019,463.287L461.722,444.723C449.731,441.992 438.551,439.635 428.108,437.13C395.371,429.28 369.959,423.093 349.059,419.879C285.153,410.054 254.702,431.884 209.095,418.022C200.251,415.334 192.441,415.603 185.706,405.816C180.094,358.738 181.76,335.259 191.336,309.962C207.4,302.275 238.455,311.049 267.559,317.68C317.361,326.739 290.468,313.342 354.017,323.91C375.901,327.55 402.669,332.741 436.688,344.012C445.647,346.98 455.072,350.557 465.054,354.549C472.35,150.854 478.231,-76.771 468.477,-259.239C463.581,-261.795 453.795,-262.452 445.544,-264.418C419.189,-270.695 378.691,-275.753 318.17,-270.764C234.617,-263.878 180.654,-260.257 69.556,-253.138C48.92,-251.816 29.145,-234.883 9.828,-247.086C-0.853,-264.173 -4.101,-313.384 6.828,-343.306C15.481,-360.025 34.909,-349.662 50.229,-349.236C326.947,-341.54 348.317,-381.53 413.056,-365.86C458.939,-354.753 486.157,-349.947 499.522,-335.367C515.435,-318.008 521.468,-296.082 522.344,-271.407C527.493,-80.636 513.153,157.677 500.359,369.133ZM495.232,454.808C554.376,484.29 592.697,586.968 601.077,682.732C606.193,741.195 598.246,796.607 579.566,832.348C560.182,869.433 491.098,864.872 488.351,842.849C483.872,806.931 479.14,744.365 484.911,664.901C488.901,609.964 489.858,547.146 493.761,479.785L495.232,454.808ZM468.655,-259.145C471.148,-257.833 472.291,-255.976 471.184,-253.152C470.027,-250.201 469.147,-254.693 468.655,-259.145Z" style="fill:white;stroke:black;stroke-width:2px;"/>
            </g>
        </g>
    </g>
</svg>
