<?xml version="1.0" encoding="UTF-8" standalone="no"?>
<!DOCTYPE svg PUBLIC "-//W3C//DTD SVG 1.1//EN" "http://www.w3.org/Graphics/SVG/1.1/DTD/svg11.dtd">
<svg width="100%" height="100%" viewBox="0 0 974 973" version="1.1" xmlns="http://www.w3.org/2000/svg" xmlns:xlink="http://www.w3.org/1999/xlink" xml:space="preserve" xmlns:serif="http://www.serif.com/" style="fill-rule:evenodd;clip-rule:evenodd;stroke-linejoin:round;stroke-miterlimit:2;">
    <g transform="matrix(1,0,0,1,-7505,-22)">
        <g id="gai" transform="matrix(1,0,0,1,7505.93,22.0509)">
            <rect x="0" y="0" width="972.222" height="972.222" style="fill:none;"/>
            <g transform="matrix(-1.01923,0,0,0.506915,708.771,295.45)">
                <path d="M386.526,747.639C371.268,834.408 352.955,886.393 335.614,912.692C320.727,935.27 305.484,942.872 290.732,939.929C277.16,937.221 263.534,925.024 250.867,902.293C238.512,880.123 227.797,844.232 219.94,796.629C210.04,736.648 203.291,655.78 200.752,565.466C199.138,508.056 199.265,446.819 200.267,385.029C202.725,233.43 211.709,79.245 217.537,-29.622C219.814,-72.161 221.711,-107.692 223.071,-133.211C176.332,-109.647 63.219,-42.472 17.443,74.549C4.679,107.177 -1.65,144.765 4.09,186.515C7.353,210.243 15.603,233.061 26.223,259.605C45.458,307.682 75.105,362.154 120.244,420.844L143.682,451.474L113.213,545.723L89.776,515.092C40.591,450.537 6.392,391.716 -14.333,336.06C-41.738,262.468 -48.437,195.763 -43.981,138.346C-38.405,66.503 -14.395,4.783 20.733,-43.565C58.015,-94.878 106.769,-132.249 148.858,-158.406C198.171,-189.051 237.986,-204.423 237.986,-204.423C242.839,-206.274 247.84,-203.388 251.465,-196.646C255.091,-189.903 256.911,-180.103 256.372,-170.232C256.372,-170.232 253.513,-121.65 251.451,-45.286C248.102,78.771 248.258,275.428 252.816,455.05C255.067,543.786 258.193,628.248 264.945,696.961C270.424,752.709 276.37,797.393 288.092,818.427C291.083,823.794 293.71,828.838 296.941,828.057C300.754,827.136 303.917,820.573 307.686,811.969C316.967,790.783 325.548,757.19 333.817,710.168L343.135,657.178L395.844,694.65L386.526,747.639Z"/>
            </g>
        </g>
    </g>
</svg>
