<?xml version="1.0" encoding="UTF-8" standalone="no"?>
<!DOCTYPE svg PUBLIC "-//W3C//DTD SVG 1.1//EN" "http://www.w3.org/Graphics/SVG/1.1/DTD/svg11.dtd">
<svg width="100%" height="100%" viewBox="0 0 974 973" version="1.1" xmlns="http://www.w3.org/2000/svg" xmlns:xlink="http://www.w3.org/1999/xlink" xml:space="preserve" xmlns:serif="http://www.serif.com/" style="fill-rule:evenodd;clip-rule:evenodd;stroke-linejoin:round;stroke-miterlimit:2;">
    <g transform="matrix(1,0,0,1,-9923,0)">
        <g id="ibh" transform="matrix(1,0,0,1,-76.0726,0)">
            <rect x="10000" y="0" width="972.222" height="972.222" style="fill:none;"/>
            <g transform="matrix(1,0,0,1,76.0726,0)">
                <path d="M10433.5,779.585C10416.4,767.859 10400.3,758.372 10385.4,750.709C10275.2,694.255 10225.7,754.66 10281.7,791.356C10293.4,799.151 10310.5,801.044 10330.2,800.721C10356.4,800.292 10386.7,793.973 10417.9,784.54C10423.1,782.984 10428.3,781.333 10433.5,779.585ZM10517.7,263.147C10623.8,248.991 10696,215.529 10723.2,195.296C10735.4,186.069 10735.2,173.016 10727.3,162.182C10711,139.806 10668.6,125.998 10622.1,149.22C10597.1,161.681 10570.7,184.183 10546.8,221.663C10539,233.781 10529.4,248.966 10517.7,263.147ZM10326.1,449.729L10317.5,504.288L10345.6,509.033C10428.3,523.004 10489.9,540.164 10534.1,559.548C10585.8,582.239 10612,604.99 10615.4,631.302C10617.2,644.287 10612.4,657.118 10604.4,669.72C10578,711.017 10518.5,747.278 10456.4,771.286C10416.9,735.943 10382.2,714.013 10352.2,702.478C10298.9,682.041 10260,692.317 10238.4,710.974C10205.2,739.707 10206.2,793.152 10254.2,829.969C10272,843.469 10298.3,850.834 10329.6,852.008C10360.3,853.158 10396.5,848.399 10433.4,838.293C10450.9,833.498 10468.6,827.517 10485.9,820.537C10502.9,835.341 10520.5,852.279 10538.7,871.649C10549.6,883.16 10560.3,895.755 10571.4,909.04L10573.9,912.145L10580.1,907.129L10577.6,904.024C10571.2,896.015 10564.7,888.431 10558.5,880.866C10538.3,855.895 10519,833.822 10500.6,814.41C10565.5,786.014 10624.2,744.357 10652.3,700.451C10668.3,675.561 10675.3,649.517 10671.9,623.833C10668.9,600.652 10657.3,577.179 10633.7,555.005C10593.2,517.164 10511.8,480.929 10370.5,455.546M10370.9,454.898C10385.7,431.165 10444.2,374.253 10467.6,343.982C10478.3,330.143 10497.9,304.632 10501.9,300.653C10509.1,299.512 10516.6,298.598 10523.4,297.324C10639.1,275.775 10708.7,236.255 10736.9,212.809C10755.2,197.838 10758.2,178.718 10750.3,161.324C10738.5,135.466 10699,112.363 10651.2,122.689C10614,130.73 10587.7,148.736 10544.9,208.666C10538.4,217.807 10517.1,248.393 10507.1,264.743C10423.2,274.818 10323.3,271.528 10190,243.475L10161.9,238.549L10152.1,294.824L10180.2,299.75C10301.8,316.779 10405.4,312.185 10486.5,301.143C10486.5,301.143 10488.7,301.124 10487.3,302.604C10458.8,331.99 10444.7,346.566 10422.8,368.218C10400.2,390.535 10393.2,400.533 10367.9,419.495C10358.4,426.626 10335.9,443.094 10326.3,450.197" style="stroke:black;stroke-width:1.69px;"/>
            </g>
        </g>
    </g>
</svg>
