<?xml version="1.0" encoding="UTF-8" standalone="no"?>
<!DOCTYPE svg PUBLIC "-//W3C//DTD SVG 1.1//EN" "http://www.w3.org/Graphics/SVG/1.1/DTD/svg11.dtd">
<svg width="100%" height="100%" viewBox="0 0 974 973" version="1.1" xmlns="http://www.w3.org/2000/svg" xmlns:xlink="http://www.w3.org/1999/xlink" xml:space="preserve" xmlns:serif="http://www.serif.com/" style="fill-rule:evenodd;clip-rule:evenodd;stroke-linejoin:round;stroke-miterlimit:2;">
    <g transform="matrix(1,0,0,1,-7505,-22)">
        <g id="il" transform="matrix(1,0,0,1,7505.93,22.0509)">
            <rect x="0" y="0" width="972.222" height="972.222" style="fill:none;"/>
            <g transform="matrix(1.01663,-0.0196902,-0.0116696,-0.602515,536.126,626.885)">
                <path d="M46.013,321.776C79.827,290.176 106.22,280.458 124.839,255.665C136.986,239.488 146.439,224.551 162.279,191.478C184.029,146.066 192.428,92.975 190.98,98.31C184.565,121.931 154.687,184.703 138.039,202.464C119.544,222.195 102.362,234.256 80.636,246.221C62.455,256.234 61.622,256.209 39.049,264.382C36.734,242.194 34.371,218.441 31.999,193.21C30.567,177.978 29.128,162.211 27.704,145.919C58.829,125.113 87.861,101.248 111.106,72.789C146.842,29.037 169.239,-26.528 170.916,-96.469C172.106,-146.542 163.478,-185.115 150.069,-213.253C127.449,-260.716 89.428,-278.75 53.071,-265.897C2.856,-248.146 -43.854,-172.665 -36.993,-43.012C-34.197,8.893 -31.055,57.799 -27.7,103.36C-41.08,111.688 -54.533,119.737 -67.722,127.755C-83.927,137.607 -99.749,147.378 -114.673,157.238C-119.66,129.532 -128.295,102.884 -141.51,79.303C-149.636,64.805 -159.436,51.255 -171.325,39.493C-177.074,33.805 -179.768,31.861 -185.134,27.527C-193.751,20.567 -202.244,32.527 -204.397,41.627C-208.12,49.406 -208.48,56.163 -205.357,58.17C-198.383,62.652 -192.403,60.853 -186.681,66.816C-176.185,77.754 -162.309,80.262 -155.583,94.673C-144.745,117.897 -130.236,139.317 -127.047,165.589C-146.4,178.928 -163.716,192.667 -178.181,206.751C-205.874,233.715 -221.809,265.629 -225.832,299.757C-229.364,329.717 -229.729,362.199 -209.526,388.852C-191.721,412.342 -170.722,413.927 -152.223,391.024C-129.941,363.437 -109.447,295.495 -109.213,222.384C-88.973,211.195 -66.869,200.251 -44.388,188.306C-36.945,184.351 -29.464,180.295 -21.993,176.109C-21.093,186.902 -20.178,197.448 -19.259,207.753C-16.16,242.493 -13.022,274.498 -9.974,303.56C-56.362,341.042 -87.803,368.187 -108.732,394.84C-139.303,433.773 -150.893,475.246 -149.629,549.155C-147.562,662.469 -70.794,727.512 -9.293,695.897C38.758,671.196 79.452,591.946 59.223,435.296C55.946,410.932 51.101,366.289 46.013,321.776ZM21.439,70.412C27.355,66.049 33.166,61.543 38.838,56.885C85.531,18.544 124.248,-26.024 125.202,-99.123C125.559,-125.156 121.663,-145.498 114.553,-159.905C102.435,-184.46 81.941,-190.404 62.918,-183.111C34.01,-172.029 8.3,-126.663 12.928,-51.887C15.545,-8.941 18.423,31.886 21.439,70.412ZM-125.797,231.896C-132.984,236.18 -139.843,240.559 -146.3,245.087C-162.178,256.223 -173.308,264.882 -183.959,277.369C-190.888,285.493 -196.963,306.584 -198.156,313.03C-199.976,322.865 -200.676,338.451 -192.263,351.06C-182.127,366.251 -168.786,362.942 -159.545,349.504C-143.667,326.415 -129.691,281.736 -125.797,231.896ZM-2.316,371.887C-38.788,405.624 -64.666,433.529 -82.139,457.345C-98.848,480.12 -104.324,504.094 -102.903,545.431C-102.155,567.676 -94.677,584.614 -84.81,596.451C-68.127,616.465 -44.268,621.997 -23.95,610.777C3.389,595.681 20.378,545.773 8.096,456.399C5.507,436.788 1.503,404.35 -2.316,371.887Z" style="fill:white;stroke:black;stroke-width:1.99px;"/>
            </g>
        </g>
    </g>
</svg>
