<?xml version="1.0" encoding="UTF-8" standalone="no"?>
<!DOCTYPE svg PUBLIC "-//W3C//DTD SVG 1.1//EN" "http://www.w3.org/Graphics/SVG/1.1/DTD/svg11.dtd">
<svg width="100%" height="100%" viewBox="0 0 974 973" version="1.1" xmlns="http://www.w3.org/2000/svg" xmlns:xlink="http://www.w3.org/1999/xlink" xml:space="preserve" xmlns:serif="http://www.serif.com/" style="fill-rule:evenodd;clip-rule:evenodd;stroke-linejoin:round;stroke-miterlimit:2;">
    <g transform="matrix(1,0,0,1,-3648,-51)">
        <g id="khu" transform="matrix(1,0,0,1,3648.92,51.4742)">
            <rect x="0" y="0" width="972.222" height="972.222" style="fill:none;"/>
            <g transform="matrix(1.13236,0.0333979,0.0174325,-0.591052,170.67,711.126)">
                <path d="M242.677,103.975C259.185,177.477 267.225,258.235 266.95,341.173C266.421,500.617 234.914,668.352 172.386,808.05C161.935,831.469 128.991,858.092 90.543,813.513C78.12,799.109 64.809,776.492 51.752,742.108C31.359,763.562 32.185,772.999 5.673,806.896C-36.523,860.845 -16.348,896.124 -16.348,896.124C-23.697,904.197 -39.931,954.999 -71.279,900.9C-79.252,824.85 -64.026,815.592 -43.88,763.233C-19.84,700.755 8.342,678.096 26.851,659.039C-3.617,535.924 7.186,458.013 26.553,416.821C50.327,366.258 92.286,361.385 122.4,392.197C141.225,411.458 155.057,444.134 158.928,484.86C161.839,515.493 159.192,552.011 146.271,592.1C135.724,624.825 117.039,661.954 86.934,701.124C91.975,714.617 97.093,725.649 102.218,734.537C114.796,756.35 126.565,764.341 135.812,763.206C139.316,762.776 142.358,762.509 143.684,759.699C202.064,635.632 233.077,484.862 235.047,340.182C237.179,183.583 205.464,34.557 139.283,-63.929C133.153,-72.914 131.937,-89.674 136.555,-101.521C141.173,-113.368 149.906,-115.894 156.143,-107.186C192.457,-56.502 222.668,-8.166 248.009,37.746C304.101,139.374 335.705,231.825 351.879,322.762C376.182,459.41 365.329,593.064 348.225,748.477C386.361,655.066 413.096,550.689 425.97,443.208C438.668,337.189 437.625,227.799 419.211,122.548C402.179,136.19 387.441,142.855 374.914,144.452C327.755,150.466 302.652,97.934 293.956,34.168C287.347,-14.294 291.555,-70.133 303.21,-108.79C310.679,-133.568 321.124,-151.773 333.186,-161.085C355.964,-178.669 391.833,-168.633 427.567,-63.283C433.252,-46.492 438.495,-29.519 443.296,-12.397C460.737,-35.466 506.3,-161.88 516.942,-222.577C524.949,-268.252 535.444,-255.211 535.444,-255.211C562.294,-256.181 565.307,-208.905 569.512,-184.316C559.728,-137.336 545.863,-104.812 530.82,-76.462C503.993,-25.906 485.588,49.352 464.108,76.095C488.545,203.704 490.909,336.951 474.447,465.276C453.151,631.286 400.23,788.547 325.737,913.833C318.947,925.593 308.964,927.581 301.056,918.748C293.148,909.915 289.134,892.293 291.13,875.178C317.113,669.262 348.725,509.532 321.558,341.66C309.239,265.538 284.867,187.847 242.677,103.975ZM399.404,34.645C393.308,39.337 387.581,42.815 382.2,45.18C368.993,50.986 359.074,49.621 352.261,40.087C344.202,28.809 341.459,8.664 341.088,-10.809C340.76,-28.077 342.524,-45.564 346.328,-59.093C347.855,-64.522 349.412,-69.717 351.985,-71.703C354.303,-73.493 356.693,-70.068 359.837,-66.114C367.808,-56.089 376.171,-37.958 385.392,-10.774C390.483,4.208 395.152,19.356 399.404,34.645ZM63.481,616.269C52.105,560.12 50.555,520.311 56.429,493.421C60.364,475.407 69.163,468.673 77.858,467.566C84.953,466.663 92.295,469.766 98.432,476.259C103.776,481.913 108.341,490.286 109.425,501.944C110.492,513.413 108.309,526.47 103.474,541.47C95.917,564.917 83.037,589.921 63.481,616.269Z"/>
            </g>
        </g>
    </g>
</svg>
