<?xml version="1.0" encoding="UTF-8" standalone="no"?>
<!DOCTYPE svg PUBLIC "-//W3C//DTD SVG 1.1//EN" "http://www.w3.org/Graphics/SVG/1.1/DTD/svg11.dtd">
<svg width="100%" height="100%" viewBox="0 0 974 973" version="1.1" xmlns="http://www.w3.org/2000/svg" xmlns:xlink="http://www.w3.org/1999/xlink" xml:space="preserve" xmlns:serif="http://www.serif.com/" style="fill-rule:evenodd;clip-rule:evenodd;stroke-linejoin:round;stroke-miterlimit:2;">
    <g transform="matrix(1,0,0,1,-3648,-51)">
        <g id="lu" transform="matrix(1,0,0,1,3648.92,51.4742)">
            <rect x="0" y="0" width="972.222" height="972.222" style="fill:none;"/>
            <g transform="matrix(-0.947381,-0.0183491,0.010979,-0.566859,462.897,578.815)">
                <path d="M45.988,318.099C109.933,254.427 107.044,258.472 161.449,226.397C181.345,214.668 195.919,231.599 195.855,199.141C195.786,163.911 200.121,131.564 185.385,137.005C181.127,135.961 161.55,153.834 155.223,163.355C100.637,214.905 77.444,233.655 39.012,264.179C36.703,242.05 34.345,218.367 31.977,193.217L31.121,183.967C55.202,157.513 77.603,130.891 96.964,104.267C144.197,39.311 172.275,-30.257 170.775,-99.716C167.831,-231.783 106.749,-284.802 51.455,-266.225C1.978,-249.602 -43.838,-174.356 -36.902,-43.028C-32.944,30.812 -28.291,98.584 -23.347,159.289C-30.42,167.245 -37.569,175.232 -44.748,183.273C-77.675,220.156 -111.147,258.199 -142.132,296.763C-142.056,294.282 -142.006,291.781 -141.989,289.287C-141.418,207.072 -139.161,46.099 -142.526,-140.28C-143.158,-175.282 -146.68,-207.275 -144.169,-239.654C-144.012,-241.684 -143.778,-253.333 -144.808,-254.363C-147.574,-257.131 -150.428,-255.267 -152.474,-253.914C-155.411,-253.718 -154.251,-227.672 -153.164,-220.42C-151.29,-207.913 -152.617,-189.769 -152.25,-140.204C-150.874,45.67 -166.208,205.231 -170.09,286.92C-171.506,316.706 -172.081,324.251 -171.451,333.04C-170.298,349.094 -177.882,361.228 -161.645,370.2C-156.774,372.891 -153.644,377.061 -147.82,370.413C-145.569,367.836 -141.49,360.585 -139.202,358.024C-103.264,317.782 -63.086,281.443 -24.437,242.3L-16.792,234.489C-14.514,258.973 -12.225,281.941 -9.985,303.315C-56.394,340.829 -87.832,368.077 -108.77,394.752C-139.357,433.721 -150.962,475.203 -149.703,549.161C-147.637,662.559 -70.811,727.705 -9.27,696.031C38.79,671.296 79.501,591.974 59.206,435.303C55.933,410.981 51.064,362.493 45.988,318.099ZM24.139,104.667C40.731,84.808 56.259,65.025 70.056,45.114C102.89,-2.271 126.964,-46.722 125.343,-95.877C123.062,-166.547 90.334,-194.478 60.82,-183.657C32.446,-173.254 8.16,-127.314 12.837,-51.87C16.259,4.033 20.127,56.345 24.139,104.667ZM-3.826,366.033C-40.294,399.735 -64.632,433.633 -82.102,457.434C-98.794,480.176 -104.251,504.137 -102.829,545.425C-102.081,567.627 -94.614,584.527 -84.766,596.34C-68.101,616.332 -44.27,621.839 -23.973,610.643C3.353,595.571 20.354,545.728 8.114,456.392C5.531,436.828 -0.016,398.399 -3.826,366.033Z" style="fill:white;stroke:black;stroke-width:2.13px;"/>
            </g>
        </g>
    </g>
</svg>
