<?xml version="1.0" encoding="UTF-8" standalone="no"?>
<!DOCTYPE svg PUBLIC "-//W3C//DTD SVG 1.1//EN" "http://www.w3.org/Graphics/SVG/1.1/DTD/svg11.dtd">
<svg width="100%" height="100%" viewBox="0 0 973 973" version="1.1" xmlns="http://www.w3.org/2000/svg" xmlns:xlink="http://www.w3.org/1999/xlink" xml:space="preserve" xmlns:serif="http://www.serif.com/" style="fill-rule:evenodd;clip-rule:evenodd;stroke-linejoin:round;stroke-miterlimit:2;">
    <g transform="matrix(1,0,0,1,-5000,-45)">
        <g id="tai" transform="matrix(1,0,0,1,0,45.4377)">
            <rect x="5000" y="0" width="972.222" height="972.222" style="fill:none;"/>
            <path d="M5424.14,445.744C5243.5,457.466 5100.83,627.363 5118.51,780.461C5140.98,635.952 5322.91,486.785 5419,508.025C5406.61,556.469 5377.55,605.702 5339.47,647.612C5275.7,717.796 5179.42,778.538 5113.55,800.046C5102.73,803.581 5097.3,798.976 5096.64,804.95C5096.28,808.281 5096.85,812.243 5099.33,812.997C5107.85,815.582 5121.08,809.32 5134.11,805.155C5202.98,783.148 5294.17,742.119 5367.7,675.892C5399.99,646.799 5430.01,607.556 5450.31,572.771C5450.61,572.26 5450.88,571.857 5451.16,572.52C5469.99,616.601 5506.91,672.617 5563.02,717.546C5612.47,757.143 5626.28,766.881 5678.53,786.02C5726.34,803.531 5840.54,813.346 5816.74,788.47C5808.86,780.234 5807.17,753.926 5806.41,751.496C5740.4,540.774 5615.95,454.43 5490.14,442.284L5494.03,442.683L5494.13,442.064L5494.19,442.061C5496.28,429.622 5499.81,412.8 5503.58,400.028C5514.92,361.696 5533.55,322.529 5563.75,287.031C5571.73,277.649 5580.29,268.59 5589.53,259.9C5631.54,220.375 5687.57,188.47 5766.88,168.395C5786.39,163.458 5796.91,164.476 5798.29,162.044C5800.02,158.975 5798.49,154.716 5796.95,153.233C5794.74,151.105 5787.5,152.784 5772.69,156.164C5668.31,179.987 5585.89,207.046 5532.45,257.238C5498.35,289.269 5469.05,332.253 5453.01,369.978C5453.01,369.978 5404.6,304.34 5380.76,283.548C5331.42,240.521 5239.03,184.946 5162.86,161.347C5137.92,153.621 5113.8,135.453 5102.98,141.495C5089.67,148.921 5077.88,183.581 5085.49,195.727C5094.82,206.043 5120.79,201.479 5137.22,208.368C5154.01,215.408 5268.95,232.683 5363.75,335.331C5398.95,373.45 5418.58,409.465 5424.14,445.744ZM5492.94,509.41C5502.42,495.516 5717.69,559.45 5743.84,742.639C5748.05,772.06 5642.32,707.852 5598.73,672.951C5537.03,623.538 5502.48,564.991 5494.61,524.274C5494.04,521.408 5492.29,513.073 5492.94,509.41ZM5494.13,442.064L5494.79,437.93C5494.65,438.767 5494.51,439.603 5494.38,440.438C5494.29,440.981 5494.21,441.523 5494.13,442.064L5489.98,442.283L5490.14,442.284C5491.44,442.408 5492.73,442.541 5494.01,442.681L5494.03,442.683C5494.02,442.768 5494.01,442.854 5493.99,442.94L5494.03,442.683L5494.03,442.683C5494.06,442.477 5494.1,442.271 5494.13,442.064L5494.13,442.064Z" style="stroke:black;stroke-width:1.69px;"/>
        </g>
    </g>
</svg>
