<?xml version="1.0" encoding="UTF-8" standalone="no"?>
<!DOCTYPE svg PUBLIC "-//W3C//DTD SVG 1.1//EN" "http://www.w3.org/Graphics/SVG/1.1/DTD/svg11.dtd">
<svg width="100%" height="100%" viewBox="0 0 973 973" version="1.1" xmlns="http://www.w3.org/2000/svg" xmlns:xlink="http://www.w3.org/1999/xlink" xml:space="preserve" xmlns:serif="http://www.serif.com/" style="fill-rule:evenodd;clip-rule:evenodd;stroke-linejoin:round;stroke-miterlimit:2;">
    <g transform="matrix(1,0,0,1,-11250,-45)">
        <g id="tU" transform="matrix(1,0,0,1,0,45.4377)">
            <rect x="11250" y="0" width="972.222" height="972.222" style="fill:none;"/>
            <g transform="matrix(-0.999922,-0.0125113,0.0125113,-0.999922,12221,953.705)">
                <path d="M494.982,361.949C494.982,361.949 446.568,296.311 422.727,275.519C373.391,232.492 280.997,176.918 204.829,153.318C179.895,145.593 155.772,127.424 144.947,133.466C131.643,140.892 119.852,175.552 127.458,187.698C136.791,198.014 162.763,193.45 179.193,200.339C195.984,207.379 310.926,224.654 405.717,327.302C454.544,380.176 473.424,429.002 466.323,480.097C458.492,536.451 425.352,591.26 381.443,639.583C317.67,709.767 221.392,770.509 155.525,792.017C144.698,795.553 139.272,790.948 138.615,796.921C138.248,800.252 138.816,804.214 141.301,804.968C149.82,807.553 163.047,801.291 176.084,797.126C244.955,775.119 336.145,734.09 409.667,667.864C441.966,638.77 471.978,599.527 492.283,564.742C492.582,564.231 492.849,563.828 493.133,564.491C511.959,608.572 548.887,664.588 604.995,709.517C654.443,749.114 668.896,757.166 720.505,777.992C755.584,792.148 856.428,792.686 839.523,785.403C801.34,772.127 793.528,594.365 793.546,577.774C793.639,487.126 775.673,395.89 818.076,351.646C762.554,364.678 767.591,472.974 764.498,574.49C760.611,702.07 752.2,712.958 770.265,735.094C789.056,758.119 684.29,699.823 640.706,664.922C578.999,615.509 544.448,556.962 536.58,516.245C529.534,480.745 532.283,436.88 545.554,391.999C556.888,353.667 575.526,314.501 605.721,279.003C649.999,226.949 712.104,184.855 808.856,160.366C828.36,155.429 838.885,156.447 840.26,154.016C841.995,150.947 840.465,146.687 838.922,145.204C836.71,143.076 829.471,144.755 814.659,148.135C710.277,171.958 627.857,199.017 574.423,249.209C540.323,281.24 511.018,324.224 494.982,361.949Z" style="stroke:black;stroke-width:1.69px;"/>
            </g>
        </g>
    </g>
</svg>
