<?xml version="1.0" encoding="UTF-8" standalone="no"?>
<!DOCTYPE svg PUBLIC "-//W3C//DTD SVG 1.1//EN" "http://www.w3.org/Graphics/SVG/1.1/DTD/svg11.dtd">
<svg width="100%" height="100%" viewBox="0 0 973 973" version="1.1" xmlns="http://www.w3.org/2000/svg" xmlns:xlink="http://www.w3.org/1999/xlink" xml:space="preserve" xmlns:serif="http://www.serif.com/" style="fill-rule:evenodd;clip-rule:evenodd;stroke-linejoin:round;stroke-miterlimit:2;">
    <rect id="udj" x="0" y="0" width="972.222" height="972.222" style="fill:none;"/>
    <g id="udj1" serif:id="udj">
        <g transform="matrix(-1.04044,-0.0201514,0.0114504,-0.591198,685.679,629.449)">
            <path d="M23.416,580.505C49.731,586.274 78.176,592.555 107.599,596.302C145.597,601.142 185.173,602.302 224.169,592.282C284.484,577.894 339.742,562.77 386.489,554.69C387.073,590.977 388.069,623.942 389.579,652.51C390.768,673.829 397.971,700.965 411.226,725.147C430.366,760.066 461.501,790.279 489.895,791.068C519.381,791.889 548.261,768.309 561.31,691.5C573.688,617.831 569.537,567.05 555.667,533.334C544.254,505.59 525.959,486.456 500.362,478.246C483.847,472.948 463.715,472.128 440.55,474.571C440.483,440.473 440.664,404.455 441.01,367.208C443.101,141.965 433.873,-12.896 444.597,-177.006C449.505,-252.105 455.543,-315.998 449.232,-339.893C427.852,-354.78 411.026,-347.22 394.483,-338.264C391.054,-328.956 393.179,-298.714 394.793,-246.557C396.365,-82.904 385.973,98.382 383.892,322.531C383.508,363.89 385.703,446.891 385.831,484.45C337.403,495.954 280.717,514.92 218.99,534.466C182.529,545.333 145.357,546.432 109.68,542.436C78.972,538.997 49.349,532.282 22.06,525.982C20.726,468.319 20.272,427.661 20.416,393.335C20.75,313.758 24.402,268.203 25.432,125.4C26.096,33.357 18.001,22.353 20.141,-161.572C20.795,-217.748 26.62,-285.112 18.625,-326.138C-1.2,-340.684 -19.976,-338.1 -36.095,-322.602C-39.687,-281.956 -35.957,-244.917 -32.878,-210.393C-31.77,-197.969 -33.539,-141.996 -32.412,-129.59C-35.119,79.568 -30.961,41.408 -28.994,126.242C-25.68,269.131 -27.314,314.924 -25.647,394.529C-24.971,426.793 -23.888,464.554 -21.823,516.41C-35.664,513.752 -48.52,511.935 -60.148,511.632C-99.233,510.614 -125.955,528.449 -137.332,570.598C-151.359,622.102 -153.297,665.211 -148.702,699.596C-141.999,749.76 -120.918,783.41 -95.374,800.274C-40.897,836.24 29.699,788.697 26.26,678.243C25.131,641.577 24.189,609.26 23.416,580.505ZM441.876,651.349C441.876,651.349 443.212,667.512 443.23,667.623C446.74,688.51 447.516,692.681 458.082,707.102C467.371,719.778 479.643,724.91 490.322,720.351C499.409,716.471 516.627,695.363 522.771,671.627C535.593,622.09 524.495,577.458 513.365,567.842C502.837,558.748 506.26,560.681 494.712,556.012C480.742,550.363 460.646,551.432 441.364,551.817C441.748,576.789 440.576,610.517 441.348,630.979C441.643,638.813 441.876,651.349 441.876,651.349ZM-19.501,571.698C-34.353,569.032 -48.093,567.294 -60.429,567.229C-83.488,567.108 -101.048,569.875 -107.501,594.952C-123.336,657.144 -117.429,700.182 -100.32,724.034C-84.806,745.66 -61.897,750.999 -42.9,742.84C-26.422,735.763 -12.578,716.545 -14.223,683.305C-16.35,640.728 -18.087,603.935 -19.501,571.698Z" style="fill:white;stroke:black;stroke-width:1.18px;"/>
        </g>
    </g>
</svg>
