<?xml version="1.0" encoding="UTF-8" standalone="no"?>
<!DOCTYPE svg PUBLIC "-//W3C//DTD SVG 1.1//EN" "http://www.w3.org/Graphics/SVG/1.1/DTD/svg11.dtd">
<svg width="100%" height="100%" viewBox="0 0 974 973" version="1.1" xmlns="http://www.w3.org/2000/svg" xmlns:xlink="http://www.w3.org/1999/xlink" xml:space="preserve" xmlns:serif="http://www.serif.com/" style="fill-rule:evenodd;clip-rule:evenodd;stroke-linejoin:round;stroke-miterlimit:2;">
    <g transform="matrix(1,0,0,1,-6255,-22)">
        <g id="aim" transform="matrix(-1,0,0,1,7228.16,22.0509)">
            <rect x="0" y="0" width="972.222" height="972.222" style="fill:none;"/>
            <g transform="matrix(-1.08537,0.0320119,-0.0161413,-0.547276,774.424,710.782)">
                <path d="M-22.845,272.872C-33.062,292.051 -44.111,312.253 -56.032,333.534L-61.599,343.996L-73.251,323.998L-67.683,313.536C-53.946,286.361 -41.483,260.996 -30.205,237.295C-48.994,140.964 -55.853,56.585 -50.86,1.721C-46.359,-46.731 -32.574,-98.049 -14.176,-127.682C3.651,-156.395 25.13,-167.497 47.23,-147.557C65.464,-131.074 82.719,-112.111 89.962,-80.515C95.489,-56.401 96.317,-24.002 85.04,21.765C74.021,66.481 50.807,127.261 8.843,211.512C16.067,244.238 24.85,278.64 35.042,313.856C60.886,403.161 96.145,497.192 140.138,582.205C164.134,628.576 190.735,672.317 219.835,711.005C200.955,673.086 183.863,632.212 169.267,589.385C141.39,507.588 122.598,418.878 117.231,330.755C106.017,146.59 151.107,-37.818 296.92,-155.216C310.453,-165.97 326.341,-173.459 342.784,-178.152C330.147,-218.048 318.991,-255.921 310.492,-288.25L308.792,-294.27L315.496,-300.376L317.196,-294.357C326.004,-265.185 336.955,-231.053 349.889,-195.76C351.664,-190.916 353.474,-186.05 355.322,-181.165C387.988,-187.709 420.875,-184.532 438.026,-180.114C449.461,-177.08 474.82,-165.781 501.561,-146.211C534.941,-121.783 570.067,-84.868 586.177,-43.181C596.459,-16.577 600.749,11.89 596.13,41.487C592.95,61.866 585.752,83.876 571.541,105.176C535.894,158.356 494.33,144.384 454.082,85.367C424.462,41.935 395.626,-25.418 370.453,-95.683C351.83,-92.581 332.56,-86.281 317.396,-73.738C165.383,50.124 144.41,257.919 186.388,446.403C232.695,654.32 353.09,854.952 477.246,855.856C490.453,855.952 489.829,870.855 488.515,894.508C485.352,909.045 482.549,936.97 470.676,940.335C322.599,982.297 190.531,807.729 105.379,639.529C68.797,567.268 37.995,489.035 13.898,411.667C-0.802,364.472 -13.052,317.659 -22.845,272.872ZM389.523,-97.85C406.768,-98.918 422.098,-97.535 431.694,-95.381C440.174,-93.5 457.687,-85.519 477.38,-73.718C499.388,-60.53 524.255,-43.088 541.664,-19.818C550.311,-8.26 557.879,2.882 559.011,17.586C559.97,30.044 556.081,42.736 547.637,57.362C533.395,82.125 516.602,84.461 498.823,72.745C480.991,60.992 462.428,37.769 444.039,7.874C425.339,-22.527 406.782,-59.166 389.523,-97.85ZM0.433,170.547C-11.688,106.362 -16.968,50.802 -14.171,11.302C-12.172,-17.518 -5.951,-48.214 3.324,-70.616C11.422,-90.177 21.507,-105.313 33.543,-95.677C45.26,-86.315 57.685,-78.445 62.764,-59.014C66.504,-44.703 65.763,-25.344 59.708,2.983C51.115,43.188 32.814,96.926 0.433,170.547Z" style="fill:none;stroke:black;stroke-width:1.94px;"/>
            </g>
        </g>
    </g>
</svg>
