<?xml version="1.0" encoding="UTF-8" standalone="no"?>
<!DOCTYPE svg PUBLIC "-//W3C//DTD SVG 1.1//EN" "http://www.w3.org/Graphics/SVG/1.1/DTD/svg11.dtd">
<svg width="100%" height="100%" viewBox="0 0 973 974" version="1.1" xmlns="http://www.w3.org/2000/svg" xmlns:xlink="http://www.w3.org/1999/xlink" xml:space="preserve" xmlns:serif="http://www.serif.com/" style="fill-rule:evenodd;clip-rule:evenodd;stroke-linejoin:round;stroke-miterlimit:2;">
    <g transform="matrix(1,0,0,1,-2500,-28)">
        <g id="bha" transform="matrix(1,0,0,1,0,28.8554)">
            <rect x="2500" y="0" width="972.222" height="972.222" style="fill:none;"/>
            <g transform="matrix(1,0,0,1,-9.56479,-35.406)">
                <path d="M2872.31,491.817C2890.9,504.399 3103.06,537.296 3146.27,565.308C3173.8,583.154 3188.57,601.384 3191.1,621.137C3192.99,635.846 3187.86,650.505 3178.96,664.858C3155.97,701.942 3108.81,735.227 3057.6,760.686C3047.04,765.936 3036.31,770.882 3025.52,775.424C2982.1,735.326 2942.75,713.552 2909.71,704.697C2863.24,692.245 2828.58,704.857 2810.58,724.548C2786.75,750.611 2783.85,797.632 2828.45,829.753C2849.3,844.764 2872.24,853.48 2904.48,854.772C2935.36,856.01 2971.99,850.5 3009.6,839.626C3025.04,835.162 3040.65,829.766 3056.07,823.53C3063.49,830.66 3071,838.302 3078.58,846.483C3087.97,856.62 3105.66,878.71 3108.56,886.853C3110.72,892.896 3124.14,880.472 3117.75,876.879C3112.91,874.152 3096.88,857.455 3081.51,836.524C3077.59,831.191 3070.21,822.067 3067.54,818.717C3072.57,816.538 3077.56,814.265 3082.52,811.908C3144.71,782.308 3199.7,739.541 3227.39,694.879C3243.76,668.479 3251.09,640.957 3247.62,613.9C3243.41,580.975 3216.76,536.626 3163.94,513.124C3091.73,480.994 2926.74,468.422 2925.28,461.131C2923.59,452.747 3158.33,237.022 3206.03,190.491C3208.03,188.548 3208.42,181.639 3205.24,182.179C3142.55,192.836 2827.45,237.861 2827.45,237.861C2819.72,251.655 2820.36,271.607 2827.3,270.611C2827.3,270.611 3152.46,208.04 3159.52,213.59C3170.67,222.348 2874.01,440.79 2867.56,451.87C2865.71,455.046 2864.85,486.769 2872.31,491.817ZM3007.34,782.658C2983.98,765.826 2962,753.891 2942.06,745.621C2891.23,724.539 2854.36,729.477 2839.41,748.813C2829.3,761.888 2829.65,779.145 2856.91,795.591C2869.05,802.916 2885.14,806.263 2904.92,805.83C2931.18,805.256 2961.8,798.351 2993.32,787.686C2997.98,786.106 3002.66,784.432 3007.34,782.658Z" style="stroke:black;stroke-width:1.67px;"/>
            </g>
        </g>
    </g>
</svg>
