<?xml version="1.0" encoding="UTF-8" standalone="no"?>
<!DOCTYPE svg PUBLIC "-//W3C//DTD SVG 1.1//EN" "http://www.w3.org/Graphics/SVG/1.1/DTD/svg11.dtd">
<svg width="100%" height="100%" viewBox="0 0 973 974" version="1.1" xmlns="http://www.w3.org/2000/svg" xmlns:xlink="http://www.w3.org/1999/xlink" xml:space="preserve" xmlns:serif="http://www.serif.com/" style="fill-rule:evenodd;clip-rule:evenodd;stroke-linejoin:round;stroke-miterlimit:2;">
    <g transform="matrix(1,0,0,1,-3750,-28)">
        <g id="bhai" transform="matrix(1,0,0,1,0,28.8554)">
            <rect x="3750" y="0" width="972.222" height="972.222" style="fill:none;"/>
            <path d="M4443.15,185.826C4436.48,191.553 4429.95,197.235 4423.33,202.613C4325.23,282.318 4246.65,338.025 4195.73,378.496C4166,402.132 4140.86,418.363 4133.44,430.928C4127.92,440.278 4124.5,489.511 4131.31,495.053C4137.17,499.824 4156.71,492.676 4180.75,493.307C4223.12,494.419 4339.48,498.568 4384.84,514.969C4419.84,527.627 4440.73,544.389 4448.93,565.508C4453.5,577.264 4453.89,589.977 4451.52,603.214C4449.02,617.116 4444.06,631.593 4436.41,646.02C4410.56,694.755 4360.76,744.005 4305.38,778.307C4282.05,750.907 4256.11,735.007 4230.15,727.314C4165.58,708.17 4102.19,739.763 4082.4,770.995C4071.36,788.407 4072.34,805.952 4086.9,819.053C4140.7,868.043 4234.27,854.608 4319.46,811.606C4329.42,827.246 4336.21,847.199 4346.32,867.989C4346.9,869.192 4347.21,871.684 4348.53,872.356C4350.61,873.413 4358.8,869.638 4356.26,866.365C4347.28,854.773 4334.48,820.559 4326.67,807.891C4366.15,787.083 4403.52,760.053 4433.9,730.128C4465.67,698.838 4489.79,664.478 4501.51,630.897C4508.36,611.29 4510.81,591.758 4508.94,573.211C4505.01,534.309 4481.96,498.454 4431.29,472.952C4381.85,448.071 4302.06,432.785 4182.27,436.253C4223.89,394.731 4363.63,276.457 4424.35,215.694C4433.53,206.509 4455.97,185.263 4455.97,185.263C4457.07,183.872 4458.06,178.618 4456.96,177.3C4455.92,176.047 4403.1,175.563 4360.88,178.301C4262.24,184.697 4114.86,204.521 4008.45,333.528C3971.02,378.899 3936.61,436.254 3914.72,511.991C3891.93,590.848 3882.62,784.836 3889.17,808.893C3890.95,815.457 3934.78,842.728 3943.2,838.282C3950.14,834.618 3946.49,819.523 3946.23,806.185C3945.22,754.001 3951.54,601.548 3969.12,526.19C3985.46,456.177 4007.24,399.789 4037.67,355.622C4088.54,281.799 4155.85,240.44 4221.26,217.052C4281.94,195.351 4341.12,188.705 4385.46,186.799C4409.74,185.755 4429.65,186.117 4443.15,185.826ZM4297.54,783.046C4275.35,759.12 4248.5,747.478 4224.14,743.038C4179.24,734.854 4150.53,748.905 4127.21,767.671C4118.61,774.585 4107.36,790.752 4124.44,806.819C4152.69,833.396 4227.42,824.312 4297.54,783.046Z" style="stroke:black;stroke-width:1.67px;"/>
        </g>
    </g>
</svg>
