<?xml version="1.0" encoding="UTF-8" standalone="no"?>
<!DOCTYPE svg PUBLIC "-//W3C//DTD SVG 1.1//EN" "http://www.w3.org/Graphics/SVG/1.1/DTD/svg11.dtd">
<svg width="100%" height="100%" viewBox="0 0 973 973" version="1.1" xmlns="http://www.w3.org/2000/svg" xmlns:xlink="http://www.w3.org/1999/xlink" xml:space="preserve" xmlns:serif="http://www.serif.com/" style="fill-rule:evenodd;clip-rule:evenodd;stroke-linejoin:round;stroke-miterlimit:2;">
    <g transform="matrix(1.04063,0,0,0.591309,185.112,343.46)">
        <g id="dha">
            <path d="M278.016,222.527C260.242,272.64 239.746,338.357 213.742,411.708C203.895,439.485 184.793,499.879 173.614,530.531C163.322,559.717 154.698,587.63 143.615,620.06C121.207,685.631 121.059,696.844 85.459,772.835C69.191,807.559 50.441,843.107 54.681,871.033C65.21,902.168 81.605,912.558 101.588,914.388C106.686,914.855 117.536,889.345 123.621,869.02C130.831,844.935 134.324,822.307 139.313,804.979C151.517,762.586 156.692,735.587 180.347,660.376C187.195,638.604 206.175,583.081 212.356,562.481C221.947,530.123 235.414,500.965 244.166,472C260.841,416.815 283.746,362.812 297.128,318.169C338.728,451.652 343.363,479.499 363.623,566.416C369.738,592.649 410.26,744.49 418.235,786.284C429.511,845.378 442.869,932.13 455.63,946.799C470.745,964.175 508.289,931.272 514.904,901.372C520.697,875.188 507.052,864.31 485.532,818.061C459.78,762.718 427.517,646.302 418.893,610.562C401.907,540.164 386.904,490.986 361.622,375.982C349.074,318.901 334.168,264.067 321.659,212.845C333.822,170.501 343.925,133.425 352.062,100.194C376.115,1.975 384.491,-63.467 382.174,-126.807C379.912,-209.647 365.369,-260.589 347.71,-288.08C326.662,-320.845 300.098,-323.717 275.431,-304.139C234.781,-271.877 199.489,-171.87 217.084,-42.816C224.074,8.449 247.663,103.167 278.016,222.527ZM300.317,143.379C306.946,121.335 315.637,94.379 320.827,75.242C344.019,-10.276 352.648,-67.905 351.505,-124.104C349.657,-186.507 340.895,-226.528 327.359,-246.773C316.29,-263.329 302.251,-262.769 289.797,-251.56C261.908,-226.458 239.636,-141.146 255.196,-52.028C262.067,-12.785 278.673,54.31 300.317,143.379Z" style="fill:white;stroke:black;stroke-width:1.18px;"/>
        </g>
    </g>
</svg>
