<?xml version="1.0" encoding="UTF-8" standalone="no"?>
<!DOCTYPE svg PUBLIC "-//W3C//DTD SVG 1.1//EN" "http://www.w3.org/Graphics/SVG/1.1/DTD/svg11.dtd">
<svg width="100%" height="100%" viewBox="0 0 974 973" version="1.1" xmlns="http://www.w3.org/2000/svg" xmlns:xlink="http://www.w3.org/1999/xlink" xml:space="preserve" xmlns:serif="http://www.serif.com/" style="fill-rule:evenodd;clip-rule:evenodd;stroke-linejoin:round;stroke-miterlimit:2;">
    <g transform="matrix(1,0,0,1,-5005,-22)">
        <g id="gu" transform="matrix(1,0,0,1,5005.93,22.0509)">
            <rect x="0" y="0" width="972.222" height="972.222" style="fill:none;"/>
            <g transform="matrix(-0.758776,0,0,0.4994,681.761,324.11)">
                <path d="M277.461,141.858C304.96,142.143 301.431,149.763 324.47,142.136C365.655,128.502 380.51,124.183 398.172,131.591C417.779,169.264 415.972,207.161 405.49,245.148C384.826,254.56 363.392,259.902 339.882,254.279C308.405,258.945 302.976,256.784 271.185,256.064C264.67,371.248 255.232,495.86 256.008,599.23C256.387,649.742 258.104,695.924 264.781,734.779C271.076,771.412 280.737,801.118 299.587,815.923C300.884,816.028 304.906,816.269 307.606,815.618C317.688,813.19 329.534,804.197 337.98,784.918C348.111,761.791 354.946,754.631 352.607,704.977C351.271,676.625 349.723,648.44 347.865,620.5C367.62,597.542 394.111,600.631 422.755,612.045C429.949,638.242 442.652,682.215 434.041,736.116C424.129,798.161 408.623,842.996 382.56,880.652C342.703,938.238 289.339,935.143 268.27,919.699C216.751,881.937 189.057,796.933 183.312,681.977C180.992,635.56 184.503,603.876 187.977,549.757C193.579,462.512 205.94,344.1 217.062,252.807C206.777,251.846 197.08,250.753 188.212,249.127C154.351,242.923 132.299,234.844 132.299,234.844C117.668,232.1 106.05,214.834 103.922,192.67C103.922,192.67 87.172,-49.309 119.271,-166.417C129.321,-203.083 143.672,-229.499 162.384,-241.059C179.584,-251.683 201.188,-252.389 227.757,-231.577C253.405,-211.98 269.306,-172.411 276.811,-116.202C284.517,-58.491 283.3,18.515 279.271,105.172C278.711,117.214 278.107,129.446 277.461,141.858ZM230.052,139.799C216.941,138.901 204.665,137.931 193.642,137.396C182.348,136.848 172.394,136.53 164.237,136.349C158.94,80.194 151.722,-21.317 159.396,-98.966C162.789,-133.299 166.744,-163.657 179.978,-175.292C187.116,-181.568 196.358,-179.502 208.466,-171.134C232.387,-153.959 238.681,-105.103 240.028,-41.785C240.743,-8.187 239.379,29.316 236.414,69.239C234.718,92.076 232.546,115.664 230.052,139.799Z"/>
            </g>
        </g>
    </g>
</svg>
