<?xml version="1.0" encoding="UTF-8" standalone="no"?>
<!DOCTYPE svg PUBLIC "-//W3C//DTD SVG 1.1//EN" "http://www.w3.org/Graphics/SVG/1.1/DTD/svg11.dtd">
<svg width="100%" height="100%" viewBox="0 0 974 973" version="1.1" xmlns="http://www.w3.org/2000/svg" xmlns:xlink="http://www.w3.org/1999/xlink" xml:space="preserve" xmlns:serif="http://www.serif.com/" style="fill-rule:evenodd;clip-rule:evenodd;stroke-linejoin:round;stroke-miterlimit:2;">
    <g transform="matrix(1,0,0,1,-7505,-22)">
        <g id="ik" transform="matrix(1,0,0,1,7505.93,22.0509)">
            <rect x="0" y="0" width="972.222" height="972.222" style="fill:none;"/>
            <g transform="matrix(1,0,0,1,-7505.93,-22.0509)">
                <path d="M8096.86,652.762C8103.93,609.668 8108.52,540.227 8103.9,496.214C8092.39,386.412 8035.23,295.231 7970.39,208.092C7964.77,200.547 7954.38,193.951 7945.74,198.616C7937.1,203.281 7924.39,199.713 7926.49,209.302C7962.14,361.73 7980.98,517.209 7937.38,626.391C7917.53,676.108 7885.4,718.629 7838.3,752.18C7881.09,694.46 7906.11,623.113 7910.19,545.191C7915.28,447.792 7887.45,339.928 7819.39,235.509C7808.98,219.524 7778.98,208.422 7740.59,238.259C7726.15,249.486 7709.45,267.329 7691.9,293.936C7659.49,276.566 7635.35,230.967 7651.16,206.05C7662.4,188.346 7657.9,175.272 7642.1,176.159C7626.72,177.023 7629.68,155.285 7607.1,168.163C7569.86,189.391 7608.1,303.834 7663.87,343.153C7626.94,415.409 7637.93,462.248 7659.4,487.316C7685.73,518.053 7733.5,522.123 7768.23,504.608C7789.83,493.712 7806.09,474.907 7811.15,450.938C7814.95,432.924 7812.62,411.258 7798.68,387.131C7787.19,367.223 7766.35,344.376 7732.3,319.931C7734.88,315.744 7737.45,311.803 7740.01,308.103C7745.88,299.61 7751.59,292.408 7757.1,286.396C7764.69,278.107 7771.65,272.13 7778.01,268.376C7780.02,267.184 7782.59,265.403 7784.54,264.425C7847.58,357.911 7875.35,455.053 7872.48,543.596C7869.06,649.465 7822.5,743.148 7741.94,801.427C7727.89,811.586 7750.53,808.125 7754.84,811.856C7758.61,819.032 7763.44,821.463 7771.08,818.733C7881.56,779.239 7932.44,723.408 7967.62,638.71C8006,546.304 8008.08,431.459 7989.96,305.572C8024.3,364.485 8044.53,432.517 8050.29,501.271C8058.57,599.968 8036.78,700.694 7979,778.257C7971.09,788.996 7971.06,797.482 7971.22,800.674C7971.95,815.788 7984.76,803.737 7997.45,807.042C8001.48,808.091 8010.31,817.865 8019.45,813.685C8023.59,811.794 8027.72,816.17 8041.37,802.86C8081.36,763.848 8174.52,667.498 8198.05,536.05C8213,452.512 8217.47,369.506 8200.33,307.976C8178.05,228.008 8140.79,201.857 8119.45,179.041C8085.54,142.783 7913.2,80.615 7892.16,102.686C7910.99,86.122 8074.23,155.686 8122.11,223.357C8186.81,314.822 8184.23,401.484 8165.34,476.712C8149.97,537.882 8128.87,588.977 8096.86,652.762ZM7706.07,370.615C7692.45,403.028 7690.14,426.175 7696.14,442.133C7703.44,461.59 7726.85,461.902 7742.43,453.881C7748.56,450.723 7753.95,446.022 7755.39,439.188C7756.81,432.447 7754.55,424.654 7749.34,415.627C7741.28,401.669 7727.35,386.637 7706.07,370.615ZM7785.03,264.186C7786.26,265.321 7787.34,265.891 7787.38,264.502C7787.41,263.41 7786.44,263.515 7785.03,264.186Z"/>
            </g>
        </g>
    </g>
</svg>
