<?xml version="1.0" encoding="UTF-8" standalone="no"?>
<!DOCTYPE svg PUBLIC "-//W3C//DTD SVG 1.1//EN" "http://www.w3.org/Graphics/SVG/1.1/DTD/svg11.dtd">
<svg width="100%" height="100%" viewBox="0 0 974 973" version="1.1" xmlns="http://www.w3.org/2000/svg" xmlns:xlink="http://www.w3.org/1999/xlink" xml:space="preserve" xmlns:serif="http://www.serif.com/" style="fill-rule:evenodd;clip-rule:evenodd;stroke-linejoin:round;stroke-miterlimit:2;">
    <g transform="matrix(1,0,0,1,-7505,-22)">
        <g id="im" transform="matrix(1,0,0,1,7505.93,22.0509)">
            <rect x="0" y="0" width="972.222" height="972.222" style="fill:none;"/>
            <g transform="matrix(1.0035,0.0295972,0.015091,-0.511665,194.36,688.854)">
                <path d="M286.851,822.685C199.638,701.626 129.204,514.659 117.761,330.65C107.841,171.127 140.06,11.367 243.464,-105.518C234.404,-120.6 225.091,-136.385 215.512,-152.867C197.687,-183.536 178.783,-216.219 159.09,-251.925L156.36,-256.564L161.527,-266.37L164.257,-261.731C181.918,-233.456 198.747,-206.871 215.133,-182.487C229.908,-160.499 244.14,-140.044 257.834,-121.034C269.872,-133.423 282.779,-145.264 296.594,-156.511C313.405,-170.136 333.83,-178.243 354.48,-182.22C386.631,-188.413 419.203,-185.008 436.262,-183.173C463.294,-180.15 504.516,-169.819 539.967,-136.339C562.574,-114.989 582.904,-84.688 596.793,-42.344C603.28,-22.544 608.151,16.476 604.19,57.536C599.837,102.663 586.166,149.909 557.991,173.537C539.045,189.425 512.778,196.012 477.236,178.232C446.787,163 408.192,130.364 360.396,69.672C336.984,39.943 311.448,3.247 283.256,-41.019C162.183,83.81 146.895,273.685 185.44,447.085C216.995,589.043 282.733,719.056 354.311,797.735C387.621,834.351 414.377,850.286 447.658,859.348C460.482,862.707 466.08,865.696 464.794,888.856C463.508,912.016 472.85,945.199 459.909,943.944C374.054,934.644 292.732,919.987 232.838,877.39C153.785,821.166 95.334,738.509 53.31,635.917C-26.094,442.065 -46.553,175.654 -38.598,-124.349L-38.421,-138.817L-22.308,-138.182L-22.485,-123.714C-21.899,162.978 3.451,415.039 83.615,594.047C123.562,683.252 177.48,753.131 249.183,800.622C261.236,808.604 273.782,815.971 286.851,822.685ZM303.467,-60.379C308.07,-64.477 312.829,-68.504 317.722,-72.443C329.994,-82.389 345.003,-87.51 360.071,-90.535C388.91,-96.323 418.141,-93.723 433.458,-92.322C452.141,-90.688 479.224,-85.41 504.761,-67.604C524.487,-53.848 543.589,-32.822 555.572,2.212C558.703,11.347 559.011,30.579 556.925,49.976C551.054,104.558 521.318,144.005 437.022,78.999C401.264,51.423 357.102,7.64 303.467,-60.379Z" style="fill:none;stroke:black;stroke-width:2.09px;"/>
            </g>
        </g>
    </g>
</svg>
