<?xml version="1.0" encoding="UTF-8" standalone="no"?>
<!DOCTYPE svg PUBLIC "-//W3C//DTD SVG 1.1//EN" "http://www.w3.org/Graphics/SVG/1.1/DTD/svg11.dtd">
<svg width="100%" height="100%" viewBox="0 0 974 973" version="1.1" xmlns="http://www.w3.org/2000/svg" xmlns:xlink="http://www.w3.org/1999/xlink" xml:space="preserve" xmlns:serif="http://www.serif.com/" style="fill-rule:evenodd;clip-rule:evenodd;stroke-linejoin:round;stroke-miterlimit:2;">
    <g transform="matrix(1,0,0,1,-7505,-22)">
        <g id="itch" transform="matrix(1,0,0,1,7505.93,22.0509)">
            <rect x="0" y="0" width="972.222" height="972.222" style="fill:none;"/>
            <g transform="matrix(1.06144,0.0313062,0.0174325,-0.591052,192.59,697.332)">
                <path d="M86.163,927.233C102.474,948.757 119.595,965.029 137.441,976.033C179.902,1002.22 225.335,998.6 269.642,980.629C326.456,957.584 380.601,906.635 424.515,852.426C461.153,807.199 490.57,760.101 504.837,720.617C576.718,526.481 583.614,328.037 541.815,179.63C523.259,113.746 495.448,57.359 459.107,17.095C410.588,-36.661 347.762,-62.069 274.928,-50.013C107.958,-26.151 47.116,161.958 55.054,353.397C64.018,569.585 156.072,789.245 288.444,793.463L296.501,793.262L296.725,822.202L288.668,822.403C186.483,831.19 101.519,720.299 53.736,571.789C32.714,506.456 19.054,433.633 14.358,360.423C-0.354,131.056 70.012,-102.161 270.413,-139.066C355.349,-152.782 428.092,-120.487 484.878,-58.446C529.502,-9.692 564.688,57.405 587.593,137.812C636.853,310.741 630.589,544.087 545.937,769.991C527.788,817.165 492.042,877.084 444.971,926.787C409.812,963.912 368.597,995.725 325.485,1015.32C257.405,1046.27 185.357,1045.93 123.658,988.476C108.998,974.825 94.787,958.415 81.47,937.778L78.534,933.564L83.227,923.019L86.163,927.233Z" style="fill:none;stroke:black;stroke-width:1.94px;"/>
            </g>
        </g>
    </g>
</svg>
