<?xml version="1.0" encoding="UTF-8" standalone="no"?>
<!DOCTYPE svg PUBLIC "-//W3C//DTD SVG 1.1//EN" "http://www.w3.org/Graphics/SVG/1.1/DTD/svg11.dtd">
<svg width="100%" height="100%" viewBox="0 0 973 973" version="1.1" xmlns="http://www.w3.org/2000/svg" xmlns:xlink="http://www.w3.org/1999/xlink" xml:space="preserve" xmlns:serif="http://www.serif.com/" style="fill-rule:evenodd;clip-rule:evenodd;stroke-linejoin:round;stroke-miterlimit:2;">
    <rect id="la" x="0" y="0" width="972.222" height="972.222" style="fill:none;"/>
    <g id="la1" serif:id="la">
        <g transform="matrix(-1.03677,-0.0200804,0.0114101,-0.589113,500.631,638.019)">
            <path d="M46.716,342.964C52.906,339.96 80.635,308.624 94.359,298.569C124.743,276.307 146.949,242.26 165.116,231.072C178.558,222.794 194.253,217.809 199.267,198.97C201.495,190.599 197.034,160.674 198.174,156.691C199.821,143.346 197.998,127.07 192.049,128.318C186.431,129.496 172.387,143.209 167.553,150.334C150.486,175.492 128.5,195.257 126.097,197.451C70.049,248.609 81.426,248.806 39.884,272.73C37.574,251.313 32.995,217.822 30.638,193.597C29.487,181.77 28.334,169.619 27.195,157.14C55.673,131.492 81.807,107.06 103.213,80.653C143.594,30.837 167.123,-26.375 166.762,-99.376C164.756,-227.27 105.541,-279.227 51.936,-261.987C3.324,-246.353 -41.515,-172.251 -35.015,-43.363C-31.001,34.693 -27.254,97.761 -22.154,161.092C-42.061,183.581 -38.868,185.04 -59.373,210.401C-73.206,227.512 -101.487,264.998 -123.802,288.371C-131.35,296.278 -131.262,302.995 -131.265,302.431C-132.253,308.097 -127.616,315.312 -123.688,316.938C-121.531,314.53 -112.225,302.715 -105.665,292.487C-97.698,280.062 -90.916,270.544 -76.626,255.321C-57.26,234.691 -37.576,216.416 -18.487,198.91C-18.487,198.91 -12.098,271.945 -9.258,300.217C-56.442,338.767 -88.3,366.303 -109.461,393.127C-140.462,432.425 -152.189,474.43 -150.984,549.263C-149.919,611.112 -127.959,658.773 -97.38,684.944C-70.956,707.559 -37.939,712.908 -9.003,697.583C15.191,684.769 36.564,657.742 50.048,615.541C63.52,573.378 69.491,514.266 58.851,435.45C55.566,411.773 51.823,385.736 46.716,342.964ZM23.741,118.567C46.887,91.968 68.021,66.32 85.647,40.345C113.608,-0.861 132.03,-42.432 129.357,-96.216C126.443,-171.104 91.586,-199.804 60.339,-187.894C31.073,-176.74 5.934,-129.445 10.95,-51.535C14.828,9.653 19.208,66.54 23.741,118.567ZM-0.741,379.843C-37.329,413.33 -63.915,435.105 -81.41,459.059C-97.723,481.395 -102.978,504.901 -101.548,545.323C-100.604,572.889 -89.086,591.655 -75.3,602.819C-59.891,615.298 -40.924,618.048 -24.24,609.092C2.994,594.473 20.184,545.26 8.469,456.245C6.014,437.038 2.832,411.392 -0.741,379.843Z" style="fill:none;stroke:black;stroke-width:1.98px;"/>
        </g>
    </g>
</svg>
