<?xml version="1.0" encoding="UTF-8" standalone="no"?>
<!DOCTYPE svg PUBLIC "-//W3C//DTD SVG 1.1//EN" "http://www.w3.org/Graphics/SVG/1.1/DTD/svg11.dtd">
<svg width="100%" height="100%" viewBox="0 0 973 973" version="1.1" xmlns="http://www.w3.org/2000/svg" xmlns:xlink="http://www.w3.org/1999/xlink" xml:space="preserve" xmlns:serif="http://www.serif.com/" style="fill-rule:evenodd;clip-rule:evenodd;stroke-linejoin:round;stroke-miterlimit:2;">
    <g transform="matrix(1,0,0,1,-1417,-45)">
        <g id="lai" transform="matrix(1,0,0,1,1417.42,45.1327)">
            <rect x="0" y="0" width="972.222" height="972.222" style="fill:none;"/>
            <g transform="matrix(-1.01739,-0.019705,0.0111968,-0.578101,501.522,585.981)">
                <path d="M46.054,324.488C48.696,321.847 63.27,308.12 69.814,301.991C114.724,259.929 157.565,233.793 194.743,212.763C199.702,209.958 203.405,204.652 205.827,199.036C206.699,191.97 207.516,170.334 204.799,155.024C202.386,141.423 196.616,133.532 194.228,134.399C178.387,140.152 173.02,151.403 167.898,156.319C151.016,172.522 151.175,176.555 129.789,194.829C95.013,224.545 81.426,248.806 39.884,272.73C37.574,251.313 32.995,217.822 30.638,193.597C29.487,181.77 28.334,169.619 27.195,157.14C55.673,131.492 81.807,107.06 103.213,80.653C143.594,30.837 167.123,-26.375 166.762,-99.376C164.756,-227.27 105.541,-279.227 51.936,-261.987C3.324,-246.353 -41.515,-172.251 -35.015,-43.363C-31.001,34.693 -29.082,92.886 -23.982,156.217C-177.209,335.827 -218.025,458.972 -216.919,556.051C-216.586,585.324 -210.704,624.916 -202.56,647.606C-157.032,774.452 -15.581,796.191 48.501,725.264C-45.28,825.68 -426.767,647.523 -18.641,198.506C-18.641,198.506 -12.098,271.945 -9.258,300.217C-56.442,338.767 -88.3,366.303 -109.461,393.127C-140.462,432.425 -152.189,474.43 -150.984,549.263C-149.919,611.112 -127.959,658.773 -97.38,684.944C-70.956,707.559 -37.939,712.908 -9.003,697.583C15.191,684.769 36.564,657.742 50.048,615.541C63.52,573.378 69.491,514.266 58.851,435.45C55.566,411.773 51.16,367.259 46.054,324.488ZM23.741,118.567C46.887,91.968 68.021,66.32 85.647,40.345C113.608,-0.861 132.03,-42.432 129.357,-96.216C126.443,-171.104 91.586,-199.804 60.339,-187.894C31.073,-176.74 5.934,-129.445 10.95,-51.535C14.828,9.653 19.208,66.54 23.741,118.567ZM-0.741,379.843C-37.329,413.33 -63.915,435.105 -81.41,459.059C-97.723,481.395 -102.978,504.901 -101.548,545.323C-100.604,572.889 -89.086,591.655 -75.3,602.819C-59.891,615.298 -40.924,618.048 -24.24,609.092C2.994,594.473 20.184,545.26 8.469,456.245C6.014,437.038 2.832,411.392 -0.741,379.843Z" style="fill:white;stroke:black;stroke-width:2.01px;"/>
            </g>
        </g>
    </g>
</svg>
