<?xml version="1.0" encoding="UTF-8" standalone="no"?>
<!DOCTYPE svg PUBLIC "-//W3C//DTD SVG 1.1//EN" "http://www.w3.org/Graphics/SVG/1.1/DTD/svg11.dtd">
<svg width="100%" height="100%" viewBox="0 0 973 973" version="1.1" xmlns="http://www.w3.org/2000/svg" xmlns:xlink="http://www.w3.org/1999/xlink" xml:space="preserve" xmlns:serif="http://www.serif.com/" style="fill-rule:evenodd;clip-rule:evenodd;stroke-linejoin:round;stroke-miterlimit:2;">
    <rect id="ma" x="0" y="0" width="972.222" height="972.222" style="fill:none;"/>
    <g id="ma1" serif:id="ma">
        <g transform="matrix(1.07501,0.0317063,0.0155837,-0.528367,192.911,693.01)">
            <path d="M309.415,852.002L307.218,849.337C210.591,730.651 129.087,529.118 117.231,330.755C108.833,190.227 133.707,49.781 210.694,-59.296C218.488,-70.34 226.77,-81.228 235.804,-91.222C254.378,-111.77 275.521,-129.755 299.211,-146.097C319.364,-159.56 344.525,-166.857 368.726,-167.794C396.962,-168.887 423.255,-163.017 437.179,-154.743C453.667,-144.796 467.067,-131.53 478.089,-117.219C493.236,-97.551 503.689,-76.451 509.483,-58.567L511.544,-52.922L505.258,-45.519L503.197,-51.163C496.995,-66.312 486.645,-84.336 471.647,-98.656C460.929,-108.889 447.874,-116.407 432.541,-120.752C419.695,-124.5 396.262,-122.056 371.556,-114.504C351.555,-108.39 330.991,-98.139 315.104,-82.857C290.691,-60.231 270.255,-34.804 252.147,-9.547C159.756,119.326 150.942,288.265 186.388,446.403C218.131,588.017 282.989,718.675 354.307,797.745C387.574,834.628 422.082,860.725 455.378,870.033C468.093,873.364 470.508,889.362 469.031,912.286C467.554,935.21 462.72,956.753 449.917,954.78C449.917,954.78 415.4,951.92 361.726,941.594C334.452,936.347 305.194,944.351 272.541,937.126C145.423,908.997 170.756,921.837 57.52,915.947C38.346,914.949 -12.33,949.547 -16.45,911.746C-19.025,888.121 -18.82,812.831 -3.658,803.71C10.162,795.395 98.944,830.688 118.157,832.869C118.157,832.869 142.732,837.303 270.66,848.48C283.857,849.633 296.835,850.798 309.415,852.002Z" style="fill:none;stroke:black;stroke-width:2px;"/>
        </g>
    </g>
</svg>
