<?xml version="1.0" encoding="UTF-8" standalone="no"?>
<!DOCTYPE svg PUBLIC "-//W3C//DTD SVG 1.1//EN" "http://www.w3.org/Graphics/SVG/1.1/DTD/svg11.dtd">
<svg width="100%" height="100%" viewBox="0 0 973 973" version="1.1" xmlns="http://www.w3.org/2000/svg" xmlns:xlink="http://www.w3.org/1999/xlink" xml:space="preserve" xmlns:serif="http://www.serif.com/" style="fill-rule:evenodd;clip-rule:evenodd;stroke-linejoin:round;stroke-miterlimit:2;">
    <g transform="matrix(1,0,0,1,-2533,-32)">
        <g id="mi" transform="matrix(1,0,0,1,2533.61,32.3927)">
            <rect x="0" y="0" width="972.222" height="972.222" style="fill:none;"/>
            <g transform="matrix(1.0766,0.0317531,0.0150621,-0.510683,195.561,684.076)">
                <path d="M260.786,-124C253.539,-142.464 209.493,-227.699 199.164,-247.288C162.425,-316.957 128.931,-326.595 119.733,-340.458C117.075,-360.574 129.69,-355.039 133.547,-361.904C139.104,-371.797 147.843,-353.573 173.853,-324.556C190.042,-306.496 264.903,-162.31 276.605,-139.237C283.034,-145.14 289.7,-150.902 296.594,-156.511C316.795,-172.806 342.636,-183.37 367.468,-187.834C398.01,-193.326 426.928,-189.536 442.35,-180.57C502.477,-145.274 525.766,-74.756 525.025,-16.084C524.094,57.577 487.034,128.842 424.507,109.181C398.907,101.13 368.352,77.468 335.604,28.057C321.598,6.924 307.208,-18.97 292.451,-50.18C230.709,8.978 194.085,83.212 177.429,165.13C155.082,275.038 168.647,396.477 201.082,506.879C226.946,595.12 265.044,676.239 307.98,740.23C354.21,809.132 406.02,858.642 455.187,872.383C467.195,875.528 462.825,894.85 461.43,916.499C460.035,938.147 462.12,954.277 450.03,952.414C450.03,952.414 364.451,936.136 267.441,915.846C140.298,889.253 152.779,904.063 40.915,893.112C30.188,892.062 -4.844,904.409 -16.652,887.913C-19.346,870.837 -14.54,870.756 -14.536,858.205C-14.527,831.005 -6.891,820.129 -3.751,821.105C10.757,817.803 75.278,836.663 94.3,835.647C94.3,835.647 142.672,839.576 270.479,852.274C285.804,853.797 300.842,855.331 315.304,856.835C302.38,841.766 289.693,825.212 277.377,807.341C229.003,737.149 186.51,646.617 157.292,548.633C117.583,415.156 102.966,267.509 129.756,134.066C149.114,37.643 190.147,-52.516 260.786,-124ZM315.451,-70.566L317.722,-72.443C333.393,-85.206 353.555,-92.694 372.829,-96.528C395.02,-100.942 416.09,-101.094 427.37,-94.925C477.704,-68.006 490.253,-5.229 464.932,23.046C447.542,42.466 419.599,43.027 383.367,11.888C362.782,-5.804 339.918,-32.27 315.451,-70.566Z" style="fill:none;stroke:black;stroke-width:1.98px;"/>
            </g>
        </g>
    </g>
</svg>
