<?xml version="1.0" encoding="UTF-8" standalone="no"?>
<!DOCTYPE svg PUBLIC "-//W3C//DTD SVG 1.1//EN" "http://www.w3.org/Graphics/SVG/1.1/DTD/svg11.dtd">
<svg width="100%" height="100%" viewBox="0 0 973 973" version="1.1" xmlns="http://www.w3.org/2000/svg" xmlns:xlink="http://www.w3.org/1999/xlink" xml:space="preserve" xmlns:serif="http://www.serif.com/" style="fill-rule:evenodd;clip-rule:evenodd;stroke-linejoin:round;stroke-miterlimit:2;">
    <g transform="matrix(1,0,0,1,-1417,-45)">
        <g id="tchai" transform="matrix(1,0,0,1,1417.42,45.1327)">
            <rect x="0" y="0" width="972.222" height="972.222" style="fill:none;"/>
            <g transform="matrix(1.06144,0.0313062,0.0165758,-0.562006,129.018,711.845)">
                <path d="M615.13,432.972C630.595,436.237 647.406,443.67 665.601,457.195L669.129,459.524L666.535,472.195L663.007,469.866C646.24,460.201 630.881,454.986 616.827,453.888C617.801,467.413 618.509,480.865 618.952,494.201C623.049,617.729 604.456,731.31 559.951,805.87C538.321,840.034 519.675,848.57 505.497,843.488C494.906,839.692 485.467,830.253 478.393,813.49C469.949,793.481 463.806,762.606 463.082,725.149C462.055,672.064 469.742,605.094 488.639,548.597C505.508,498.163 530.389,455.902 564.227,438.978C556.949,369.436 542.211,298.754 521.658,234.148C469.692,70.805 379.939,-56.19 274.144,-10.529C241.949,3.64 218.214,44.347 201.03,98.543C176.745,175.137 165.413,278.048 165.351,383.631C165.311,451.168 170.044,519.662 178.669,583.519C193.089,690.275 218.216,784.637 256.281,834.369C262.941,842.634 265.798,857.761 263.31,871.596C260.823,885.43 253.58,894.702 245.486,894.411L77.568,878.224C30.532,880.187 -57.824,942.509 -67.563,881.624C-69.419,870.02 -67.944,839.872 -63.898,833.678C-69.155,826.218 -67.997,832.46 -66.959,819.016C-62.59,808.609 -56.523,803.968 -48.255,806.799L-9.621,822.256L95.922,832.22L198.435,829.707C170.316,771.803 148.54,692.607 134.824,604.01C124.021,534.233 118.55,458.635 117.947,384.204C116.961,262.323 129.923,143.191 157.707,54.506C181.788,-22.357 216.896,-76.965 262.458,-96.745C390.639,-153.481 503.248,-9.796 566.263,188.427C590.705,265.313 607.64,350.079 615.13,432.972ZM567.025,470.529C569.12,499.304 569.865,527.69 569.156,555.169C567.235,629.645 554.966,697.486 527.745,745.256C523.408,753.316 519.645,759.612 515.866,763.163C514.777,764.187 513.851,765.365 512.855,765.766C512.538,765.893 512.552,767.14 512.292,766.951C506.128,762.475 503.896,746.613 501.977,727.88C495.865,668.224 503.816,579.761 531.951,519.813C541.419,499.64 552.996,482.362 567.025,470.529Z" style="fill:none;stroke:black;stroke-width:1.99px;"/>
            </g>
        </g>
    </g>
</svg>
