<?xml version="1.0" encoding="UTF-8" standalone="no"?>
<!DOCTYPE svg PUBLIC "-//W3C//DTD SVG 1.1//EN" "http://www.w3.org/Graphics/SVG/1.1/DTD/svg11.dtd">
<svg width="100%" height="100%" viewBox="0 0 973 973" version="1.1" xmlns="http://www.w3.org/2000/svg" xmlns:xlink="http://www.w3.org/1999/xlink" xml:space="preserve" xmlns:serif="http://www.serif.com/" style="fill-rule:evenodd;clip-rule:evenodd;stroke-linejoin:round;stroke-miterlimit:2;">
    <rect id="tcha" x="0" y="0" width="972.222" height="972.222" style="fill:none;"/>
    <g id="tcha1" serif:id="tcha">
        <g transform="matrix(1.08217,-0.0158375,-0.00802155,-0.54811,190.09,714.588)">
            <path d="M563.146,832.201C568.122,812.273 571.856,781.205 573.556,742.285C576.139,683.15 573.392,607.231 566.572,525.286C561.162,460.281 552.149,392.492 540.368,326.299C528.087,257.301 512.443,190.646 491.075,133.932C447.028,17.019 378.61,-55.077 274.346,-9.039C196.227,24.686 166.343,202.539 166.369,383.619C166.387,504.426 181.018,628.394 208.543,722.015C221.851,767.281 237.647,805.899 257.278,831.778C264.575,840.833 261.456,849.26 258.73,864.417C256.005,879.575 254.319,897.879 245.451,897.56L45.47,881.227C19.327,880.157 -43.334,898.774 -60.668,890.456C-75.205,883.479 -67.975,864.68 -67.975,864.68C-67.535,854.112 -63.983,839.919 -58.524,831.524C-32.565,817.433 -19.859,822.991 -4.424,825.784C73.859,839.948 131.759,823.846 194.584,827.185C185.264,807.476 176.684,785.405 168.934,761.349C135.859,658.675 117.924,519.559 116.928,384.217C115.26,157.427 164.546,-54.997 262.256,-98.235C392.873,-154.749 479.316,-63.81 532.635,84.618C555.907,149.401 573.179,225.374 583.62,304.744C593.078,376.647 597.104,450.78 597.757,520.65C598.561,606.728 593.46,685.242 586.491,745.59C581.805,786.163 576.32,818.321 569.835,838.363L568.119,844.368L561.431,838.207L563.146,832.201Z" style="fill:none;stroke:black;stroke-width:1.94px;"/>
        </g>
    </g>
</svg>
