<?xml version="1.0" encoding="UTF-8" standalone="no"?>
<!DOCTYPE svg PUBLIC "-//W3C//DTD SVG 1.1//EN" "http://www.w3.org/Graphics/SVG/1.1/DTD/svg11.dtd">
<svg width="100%" height="100%" viewBox="0 0 973 973" version="1.1" xmlns="http://www.w3.org/2000/svg" xmlns:xlink="http://www.w3.org/1999/xlink" xml:space="preserve" xmlns:serif="http://www.serif.com/" style="fill-rule:evenodd;clip-rule:evenodd;stroke-linejoin:round;stroke-miterlimit:2;">
    <g transform="matrix(1,0,0,1,-7500,-45)">
        <g id="ti" transform="matrix(1,0,0,1,0,45.4377)">
            <rect x="7500" y="0" width="972.222" height="972.222" style="fill:none;"/>
            <g transform="matrix(-0.999989,-0.00465543,0.00465543,-0.999989,14759.3,980.819)">
                <path d="M7125.64,664.454L7125.17,665.663C7103.55,719.462 7069.39,770.339 7049.95,777.069C7035.12,782.202 6907.99,802.227 6803.06,702.998C6748.51,651.407 6722.18,612.761 6707.02,570.257C6706.78,569.578 6706.47,569.996 6706.17,570.508C6685.86,605.292 6655.85,644.535 6623.55,673.629C6550.03,739.856 6458.84,780.884 6389.97,802.891C6376.93,807.057 6363.7,813.318 6355.19,810.733C6352.7,809.98 6352.13,806.018 6352.5,802.687C6353.16,796.713 6358.58,801.318 6369.41,797.782C6435.28,776.275 6531.56,715.532 6595.33,645.349C6639.24,597.025 6672.38,542.216 6680.21,485.862C6687.31,434.767 6668.43,385.942 6619.6,333.068C6524.81,230.419 6409.87,213.145 6393.08,206.105C6376.65,199.216 6350.68,203.78 6341.34,193.463C6333.74,181.317 6345.53,146.658 6358.83,139.232C6369.66,133.189 6393.78,151.358 6418.71,159.084C6494.88,182.683 6587.28,238.258 6636.61,281.284C6660.45,302.076 6708.87,367.714 6708.87,367.714C6724.9,329.99 6754.21,287.006 6788.31,254.975C6841.74,204.783 6924.16,177.724 7028.54,153.901C7043.36,150.521 7050.6,148.842 7052.81,150.969C7054.35,152.453 7055.88,156.712 7054.15,159.781C7052.77,162.212 7042.24,161.195 7022.74,166.131C6925.99,190.62 6863.88,232.715 6819.61,284.768C6789.41,320.266 6770.77,359.433 6759.44,397.764C6746.17,442.646 6743.42,486.511 6750.47,522.01C6758.33,562.728 6788.73,625.29 6850.84,679.547C6898.13,720.862 6996.49,741.242 7031.31,723.694C7046.78,715.902 7092.19,655.364 7094.87,650.623C7062.94,631.099 7049.72,598.737 7055.69,572.206C7061.92,544.553 7107.6,515.801 7132.79,542.904C7153.14,564.803 7145.5,612.589 7127.63,659.382L7127.15,660.593C7139.4,664.166 7151.93,664.564 7168.84,662.206C7170.71,661.945 7173.92,661.215 7175.81,660.818C7177.31,661.91 7178.48,666.108 7175.24,666.53C7156.03,669.033 7140.62,668.594 7125.64,664.454L7127.15,660.593C7127,660.547 7126.84,660.5 7126.68,660.453L7125.34,664.371L7125.64,664.454ZM7098.56,644.812C7115.96,615.095 7126.76,585.327 7117.4,571.499C7108.16,557.869 7093.82,563.017 7088.06,565.263C7054.68,578.276 7063.38,616.801 7097.84,645.507C7097.85,645.512 7098.56,644.812 7098.56,644.812Z" style="stroke:black;stroke-width:1.69px;"/>
            </g>
        </g>
    </g>
</svg>
