<?xml version="1.0" encoding="UTF-8" standalone="no"?>
<!DOCTYPE svg PUBLIC "-//W3C//DTD SVG 1.1//EN" "http://www.w3.org/Graphics/SVG/1.1/DTD/svg11.dtd">
<svg width="100%" height="100%" viewBox="0 0 973 973" version="1.1" xmlns="http://www.w3.org/2000/svg" xmlns:xlink="http://www.w3.org/1999/xlink" xml:space="preserve" xmlns:serif="http://www.serif.com/" style="fill-rule:evenodd;clip-rule:evenodd;stroke-linejoin:round;stroke-miterlimit:2;">
    <rect id="ug" x="0" y="0" width="972.222" height="972.222" style="fill:none;"/>
    <g id="ug1" serif:id="ug">
        <g transform="matrix(0.88094,0.0259824,0.0149947,-0.508399,200.925,671.344)">
            <path d="M432.513,-148.991C432.513,-148.991 428.339,175.944 421.482,461.314C418.71,576.642 413.521,679.232 408.525,741.171C403.53,799.843 389.197,843.625 370.308,871.71C346.685,906.832 316.61,919.298 289.131,905.645C266.134,894.453 250.482,856.538 243.621,794.684C239.542,757.914 238.05,712.208 238.031,660.53C238.01,601.742 239.901,535.044 242.073,465.444C247.261,299.172 255.12,116.018 242.833,-9.127C236.664,-71.956 227.709,-119.588 203.237,-124.887C184.136,-130.359 169.434,-115.552 159.861,-91.201C148.845,-63.18 143.834,-24.381 144.933,14.974L146.277,63.096L92.685,67.924L91.341,19.802C89.197,-56.959 103.681,-131.391 129.991,-175.791C150.617,-210.6 178.224,-229.078 211.79,-218.951C230.931,-211.723 246.411,-195.095 258.137,-168.115C274.632,-130.163 284.27,-70.753 287.384,3.42C292.443,123.898 282.264,285.673 274.808,438.31C269.708,542.713 265.986,642.699 269.336,720.225C271.003,758.825 274.668,791.375 280.807,815.19C284.767,830.552 289.82,841.345 297.353,844.188C313.666,850.179 330.857,840.363 343.823,818.175C355.096,798.883 362.371,769.428 364.056,731.86C366.549,679.575 366.82,597.947 367.693,504.472C368.37,432.114 369.62,352.799 370.219,274.494C372.015,39.445 377.876,-94.042 377.876,-94.042C375.364,-189.992 366.264,-314.4 376.389,-361.147C397.978,-377.314 416.445,-379.966 430.048,-361.553C439.279,-279.804 433.203,-217.887 432.513,-148.991Z"/>
        </g>
    </g>
</svg>
