<?xml version="1.0" encoding="UTF-8" standalone="no"?>
<!DOCTYPE svg PUBLIC "-//W3C//DTD SVG 1.1//EN" "http://www.w3.org/Graphics/SVG/1.1/DTD/svg11.dtd">
<svg width="100%" height="100%" viewBox="0 0 974 973" version="1.1" xmlns="http://www.w3.org/2000/svg" xmlns:xlink="http://www.w3.org/1999/xlink" xml:space="preserve" xmlns:serif="http://www.serif.com/" style="fill-rule:evenodd;clip-rule:evenodd;stroke-linejoin:round;stroke-miterlimit:2;">
    <g transform="matrix(1,0,0,1,-8755,-22)">
        <g id="ul" transform="matrix(1,0,0,1,8755.93,22.0509)">
            <rect x="0" y="0" width="972.222" height="972.222" style="fill:none;"/>
            <g transform="matrix(-1.04044,-0.0201514,0.0114504,-0.591198,495.271,630.026)">
                <path d="M36.874,234.535C35.548,221.155 34.215,207.296 32.881,192.96C31.945,182.895 31.006,172.595 30.075,162.06C58.471,136.989 84.452,112.771 105.744,86.461C147.104,35.353 170.426,-24.811 169.507,-99.608C167.497,-231.186 106.544,-284.467 51.379,-266.898C1.448,-250.995 -44.679,-175.173 -38.208,-42.796C-33.963,34.107 -28.952,104.419 -23.688,167.042C-42.959,189.722 -62.839,213.542 -82.665,239.047C-96.346,256.646 -110.064,274.691 -123.376,294.187L-126.43,298.271L-121.789,309.019L-118.736,304.936C-86.465,266.751 -52.742,235.047 -20.295,206.257L-20.142,208.003C-17.718,234.886 -15.277,260.133 -12.872,283.647C-35.185,307.003 -56.853,331.816 -75.959,357.054C-103.332,393.213 -125.361,431.132 -138.218,466.341C-148.708,495.069 -153.469,523.368 -152.835,549.411C-151.585,600.642 -136.508,641.963 -114.042,669.806C-85.418,705.281 -44.181,717.343 -8.831,698.582C15.527,685.655 37.079,658.641 50.749,616.239C64.404,573.884 70.498,514.411 59.963,434.99C56.505,409.178 51.671,371.382 46.227,323.041C86.78,280.17 126.01,243.67 150.839,221.38C152.72,267.474 155.699,338.857 159.321,420.035C161.168,461.45 163.88,502.953 166.19,545.253C168.347,584.757 170.185,624.983 169.761,665.738C169.457,694.902 173.14,731.439 171.526,762.219C171.124,769.877 169.106,786.778 169.52,794.852C170.125,806.647 176.381,811.625 177.225,810.479L184.387,815.757C200.03,821.572 197.802,795.013 195.762,756.684C193.721,718.349 190.093,678.661 190.723,630.316C191.918,538.608 189.206,528.159 190.19,418.332C191.465,275.839 189.578,163.359 189.578,163.359C189.249,151.483 185.614,140.657 179.862,134.42C174.11,128.183 166.98,127.337 160.805,132.159C160.805,132.159 117.321,162.858 63.388,210.476C54.766,218.089 45.882,226.133 36.874,234.535ZM25.549,109.115C46.925,83.597 66.508,59.057 83.116,34.536C110.077,-5.269 128.81,-44.029 126.611,-95.984C123.812,-167.2 90.601,-194.399 60.896,-182.984C32.926,-172.235 9.233,-126.567 14.143,-52.103C17.583,5.612 21.49,59.507 25.549,109.115ZM-2.567,377.353C-6.784,382.324 -10.956,387.343 -15.068,392.388C-40.564,423.668 -63.775,455.642 -80.17,486.878C-91.328,508.14 -100.2,526.635 -99.697,545.175C-98.978,571.768 -88.129,590.339 -74.893,601.307C-59.715,613.886 -40.918,616.934 -24.412,608.092C2.502,593.675 19.124,544.58 7.357,456.704C4.732,436.907 1.296,410.26 -2.567,377.353Z" style="fill:white;stroke:black;stroke-width:1.97px;"/>
            </g>
        </g>
    </g>
</svg>
