<?xml version="1.0" encoding="UTF-8" standalone="no"?>
<!DOCTYPE svg PUBLIC "-//W3C//DTD SVG 1.1//EN" "http://www.w3.org/Graphics/SVG/1.1/DTD/svg11.dtd">
<svg width="100%" height="100%" viewBox="0 0 974 973" version="1.1" xmlns="http://www.w3.org/2000/svg" xmlns:xlink="http://www.w3.org/1999/xlink" xml:space="preserve" xmlns:serif="http://www.serif.com/" style="fill-rule:evenodd;clip-rule:evenodd;stroke-linejoin:round;stroke-miterlimit:2;">
    <g transform="matrix(1,0,0,1,-8755,-22)">
        <g id="um" transform="matrix(1,0,0,1,8755.93,22.0509)">
            <rect x="0" y="0" width="972.222" height="972.222" style="fill:none;"/>
            <g transform="matrix(1.00023,0.0295008,0.0146002,-0.495024,201.633,684.529)">
                <path d="M193.513,670.012C145.012,571.69 107.118,458.679 91.158,348.139C78.099,257.688 79.256,168.867 99.022,90.143C122.955,-5.176 174.503,-87.676 265.353,-137.186C279.913,-144.979 295.854,-151.726 312.293,-157.113C309.365,-167.753 306.457,-178.806 303.568,-190.281C296.679,-217.637 289.594,-247.19 282.771,-279.548L281.333,-285.784L288.278,-290.948L289.716,-284.711C299.463,-245.907 309.093,-211.059 319.028,-180.215C321.137,-173.668 323.247,-167.298 325.358,-161.095C335.909,-164.073 346.562,-166.462 357.093,-168.202C393.303,-174.186 428.037,-172.722 452.409,-163.336C507.339,-140.208 529.816,-84.041 532.018,-33.019C534.938,34.642 503.81,103.605 454.023,93.395C421.337,86.692 379.021,41.778 337.438,-76.063C317.316,-70.053 297.509,-61.908 279.988,-51.893C207.445,-11.139 164.866,51.416 145.887,127.875C130.93,188.132 130.971,255.933 140.884,325.063C155.966,430.237 193.16,538.438 240.301,630.472C305.109,575.796 332.772,542.381 371.237,494.978C417.506,437.956 428.2,411.77 428.2,411.77L447.85,383.378C465.285,363.244 477.309,357.006 480.336,373.88C497.113,391.947 510.671,450.052 502.308,483.141C497.291,502.987 382.944,573.858 262.215,670.866C321.951,774.871 393.369,851.582 455.539,868.054C468.659,871.491 477.972,892.803 476.712,916.507C475.452,940.21 464.062,957.973 450.816,956.89C450.816,956.89 222.398,937.21 91.282,923.781C38.454,918.37 1.445,913.651 1.445,913.651C-8.223,912.861 -16.375,900.451 -18.393,883.452C-20.411,866.454 -15.787,849.152 -7.139,841.349C-7.139,841.349 80.72,765.568 180.74,680.814L193.513,670.012ZM356.563,-81.141C358.418,-81.572 360.265,-81.981 362.109,-82.372C392.997,-88.911 422.683,-90.581 443.664,-83.781C492.601,-69.786 504.022,-13.122 485.208,18.363C471.448,41.391 446.867,46.004 416.655,15.084C398.083,-3.922 377.656,-34.568 356.563,-81.141ZM216.769,714.577C246.874,769.166 280.015,817.834 313.92,857.152C242.061,851.862 156.471,845.765 93.359,841.901C90.2,841.708 87.097,841.521 84.056,841.341C115.559,811.415 154.688,774.14 195.818,734.703L216.769,714.577Z" style="fill:none;stroke:black;stroke-width:2.11px;"/>
            </g>
        </g>
    </g>
</svg>
