<?xml version="1.0" encoding="UTF-8" standalone="no"?>
<!DOCTYPE svg PUBLIC "-//W3C//DTD SVG 1.1//EN" "http://www.w3.org/Graphics/SVG/1.1/DTD/svg11.dtd">
<svg width="100%" height="100%" viewBox="0 0 974 973" version="1.1" xmlns="http://www.w3.org/2000/svg" xmlns:xlink="http://www.w3.org/1999/xlink" xml:space="preserve" xmlns:serif="http://www.serif.com/" style="fill-rule:evenodd;clip-rule:evenodd;stroke-linejoin:round;stroke-miterlimit:2;">
    <g transform="matrix(1,0,0,1,-8755,-22)">
        <g id="zha" transform="matrix(1,0,0,1,8755.93,22.0509)">
            <rect x="0" y="0" width="972.222" height="972.222" style="fill:none;"/>
            <g transform="matrix(0.767291,0,0,0.477865,281.151,333.169)">
                <path d="M319.911,849.879C289.389,853.133 251.566,788.598 246.376,720.632C239.768,634.093 252.28,537.507 256.68,437.1C258.45,396.716 260.652,355.841 263.734,315.401C266.897,273.9 270.699,232.921 274.504,193.436C286.1,73.091 295.29,-34.303 287.711,-105.773C280.333,-175.344 257.81,-215.195 222.246,-226.164C173.297,-243.701 141.349,-229.322 120.361,-204.755C101.225,-182.355 90.444,-147.672 85.01,-106.482C80.19,-69.942 66.125,-27.621 66.821,17.456L65.3,106.423C97.51,159.929 138.114,128.284 160.23,75.911L155.257,15.909C154.541,-30.401 152.117,-74.766 162.587,-104.594C165.415,-112.649 169.489,-119.18 176.615,-122.304C186.294,-126.546 198.211,-129.548 213.467,-128.091C221.904,-126.804 227.035,-117.61 230.467,-103.75C235.458,-83.595 238.345,-57.887 239.443,-27.893C241.613,31.433 238.953,105.096 232.923,184.293C229.367,230.992 224.887,279.579 219.577,328.193C205.154,460.242 187.803,592.951 190.489,700.474C191.71,749.338 196.987,793.18 206.256,829.729C219.554,882.167 240.236,925.976 271.771,942.374C300.481,957.304 339.769,942.217 377.04,885.209C410.714,833.704 422.409,722.794 380.233,595.351C343.271,483.664 364.85,571.839 364.85,571.839C381.022,648.395 387.074,664.389 380.031,743.751C376.951,778.456 371.163,791.748 359.639,813.47C348.01,835.391 333.398,848.442 319.911,849.879Z" style="fill:none;stroke:black;stroke-width:1.56px;"/>
            </g>
        </g>
    </g>
</svg>
