<?xml version="1.0" encoding="UTF-8" standalone="no"?>
<!DOCTYPE svg PUBLIC "-//W3C//DTD SVG 1.1//EN" "http://www.w3.org/Graphics/SVG/1.1/DTD/svg11.dtd">
<svg width="100%" height="100%" viewBox="0 0 973 973" version="1.1" xmlns="http://www.w3.org/2000/svg" xmlns:xlink="http://www.w3.org/1999/xlink" xml:space="preserve" xmlns:serif="http://www.serif.com/" style="fill-rule:evenodd;clip-rule:evenodd;stroke-linejoin:round;stroke-miterlimit:2;">
    <g transform="matrix(1,0,0,1,-2536,-19)">
        <g id="aidj" transform="matrix(1,0,0,1,2536.37,19.7196)">
            <rect x="0" y="0" width="972.222" height="972.222" style="fill:none;"/>
            <g transform="matrix(1,0,0,1,-2536.37,-19.7196)">
                <path d="M2790.75,223.353C2790.93,214.82 2791.13,206.899 2791.41,199.709C2791.86,187.84 2792.32,178.064 2792.81,170.966L2805.73,163.721L2791.07,141.029C2785.44,132.316 2742.5,114.525 2737.09,155.384C2736.17,162.289 2735.25,177.294 2734.46,197.962C2734.25,203.48 2734.02,209.422 2733.77,215.736L2716.25,225.557L2730.91,248.248C2731.43,249.054 2731.98,249.85 2732.57,250.635C2732.03,269.366 2731.67,289.915 2731.81,311.461C2731.87,320.748 2732.17,330.199 2732.63,339.78C2734.86,386.853 2740.7,436.25 2742.81,481.269C2743.83,502.907 2743.91,523.435 2743.95,541.941C2744.01,566.518 2743.28,587.532 2743.54,603.063C2743.43,637.017 2744.45,671.266 2743.03,702.361C2742.62,711.251 2741.18,719.625 2740.86,727.906C2740.62,733.731 2740.83,739.378 2740.94,744.825C2741.5,770.14 2742.54,790.92 2742.26,804.049L2741.72,830.548L2745.32,830.603L2745.31,830.857L2773.78,831.848C2977.82,838.951 3098.62,840.636 3168.19,836.41C3217.11,833.439 3244.12,826.445 3257.92,818.225C3274.37,808.423 3280.45,796.235 3281.19,782.628C3283.45,725.757 3281.97,667.409 3277.8,610.648C3272.61,540.148 3263.13,472.307 3255.09,412.758C3246.97,352.645 3239.4,301.397 3236.09,265.614C3272.67,266.627 3300.52,263.575 3321.18,257.987C3356.77,248.366 3373.81,231.206 3379.68,213.575C3385.06,197.423 3381.74,179.805 3371.32,164.172C3350.85,133.491 3303.78,111.541 3263.8,127.319C3238.38,137.347 3213.98,162.84 3204.05,215.148C3203.54,217.589 3203.18,220.474 3202.94,223.78C3156.09,219.93 3106.91,219.777 3058.86,220.325C3022.6,220.739 2987.04,220.894 2953.65,222.285C2912.46,224.001 2874.77,226.781 2843.46,226.854C2823.52,226.901 2806.41,226.181 2793.05,223.828C2792.31,223.697 2791.54,223.536 2790.75,223.353ZM2799.24,779.677C2915.51,783.612 3003.08,785.671 3068.62,785.712C3131.67,785.751 3173.73,783.993 3201.09,780.073C3209.6,778.855 3220.04,778.918 3223.83,774.49C3229.9,701.477 3230.13,628.144 3226.8,556.798C3223.31,481.939 3217.49,411.863 3211.89,354.628C3208.4,319.021 3205.29,288.224 3203.71,264.019C3157.19,261.652 3108.33,262.766 3060.74,265.823C3024.97,268.121 2990.06,272.241 2957.13,274.789C2914.76,278.068 2875.81,279.726 2843.52,279.858C2823.04,279.942 2804.93,278.983 2789.76,276.907C2789.52,288.201 2789.21,299.965 2788.79,312.043C2788.46,321.277 2787.92,330.669 2787.25,340.191C2783.98,387.02 2777.71,436.198 2776.06,481.049C2775.26,502.571 2775.6,522.988 2776.21,541.375C2777.01,565.472 2779.02,586.018 2780.46,601.192C2784.38,635.017 2787.19,669.24 2791.74,700.13C2793.05,709.01 2795.28,717.29 2796.38,725.575C2797.15,731.431 2797.45,737.148 2797.78,742.655C2798.62,756.409 2799.05,768.906 2799.24,779.677ZM3234.6,226.577C3278.36,229.731 3307.99,226.343 3326.78,218.313C3336.49,214.167 3342.77,209.265 3345.09,203.064C3347.75,195.956 3345.56,188.188 3341.12,181.116C3329.09,161.938 3301.04,146.176 3276.28,155.485C3257.75,162.451 3242.92,182.571 3235.32,220.372C3235,222.189 3234.75,224.262 3234.6,226.577Z" style="fill:white;stroke:black;stroke-width:1.67px;"/>
            </g>
        </g>
    </g>
</svg>
