<?xml version="1.0" encoding="UTF-8" standalone="no"?>
<!DOCTYPE svg PUBLIC "-//W3C//DTD SVG 1.1//EN" "http://www.w3.org/Graphics/SVG/1.1/DTD/svg11.dtd">
<svg width="100%" height="100%" viewBox="0 0 974 973" version="1.1" xmlns="http://www.w3.org/2000/svg" xmlns:xlink="http://www.w3.org/1999/xlink" xml:space="preserve" xmlns:serif="http://www.serif.com/" style="fill-rule:evenodd;clip-rule:evenodd;stroke-linejoin:round;stroke-miterlimit:2;">
    <g transform="matrix(1,0,0,1,-7505,-22)">
        <g id="djai" transform="matrix(1,0,0,1,7505.93,22.0509)">
            <rect x="0" y="0" width="972.222" height="972.222" style="fill:none;"/>
            <g transform="matrix(1,0,0,1,-7505.93,-22.0509)">
                <path d="M7718.56,588.358C7638.35,611.592 7587.03,690.525 7578.34,764.24C7572.73,811.741 7584.59,856.413 7615.44,883.406C7641.33,906.065 7681.08,917.431 7737.31,904.992C7745.37,903.233 7752.55,898.089 7757.95,888.58C7764.54,876.95 7768.57,855.929 7769.94,827.443C7771.76,789.511 7769.49,737.019 7765.98,676.571C7764.99,659.537 7763.93,641.865 7762.85,623.713C7801.55,617.841 7842.55,613.234 7883.51,610.79C7912.84,609.04 7942.07,609.104 7970.39,608.805C7990.17,608.595 8009.48,608.356 8028.04,608.562C8079.96,609.135 8125.81,612.254 8158.52,619.497C8169.49,621.927 8178.78,624.702 8185.92,628.118C8187.22,628.739 8188.76,629.681 8190,630.486C8187.98,650.161 8185.98,669.865 8184.43,689.203C8183.61,699.427 8182.91,709.512 8182.44,719.432C8180.18,766.735 8179.54,809.58 8178,840.136C8177.36,852.886 8176.74,863.386 8176.13,871.008L8163.09,878.57L8177.38,903.217C8182.87,912.681 8225.51,932.553 8231.59,888.728C8232.62,881.321 8233.79,865.209 8234.91,843.006C8236.46,812.132 8238.96,768.897 8239.4,721.051C8239.49,711.067 8239.34,700.903 8239.04,690.596C8238.54,673.293 8237.62,655.691 8236.56,638.082L8255.28,627.231L8240.98,602.585C8239.14,599.398 8236.75,596.221 8233.79,593.133C8232.66,574.469 8231.66,556.08 8231.15,538.33C8230.49,515.054 8230.74,492.987 8230.99,473.094C8231.33,446.675 8232.41,424.1 8232.4,407.401C8233.06,370.905 8232.59,334.073 8234.52,300.673C8235.07,291.124 8236.64,282.148 8237.1,273.252C8237.43,266.995 8237.32,260.922 8237.29,255.065C8237.14,227.843 8236.44,205.489 8236.93,191.381L8237.9,162.906L8234.3,162.784L8234.32,162.511L8205.87,160.95C8001.97,149.76 7881.22,145.845 7811.58,149.175C7762.62,151.517 7735.53,158.609 7721.57,167.159C7704.91,177.368 7698.66,190.382 7697.6,205.008C7694.54,256.687 7695.15,314.303 7698.64,373.618C7702.86,445.268 7710.89,519.372 7718.56,588.358ZM7723.34,631.273C7661.61,650.048 7621.79,711.564 7613.37,768.879C7608.19,804.196 7614.51,838.416 7637.21,858.921C7656.55,876.388 7686.99,882.952 7729.43,874.172C7730.13,872.863 7732.56,868.16 7733.6,863.991C7738.98,842.434 7738.69,805.413 7735.56,758.735C7733.05,721.297 7728.49,677.937 7723.34,631.273ZM8179.57,216.599C8063.38,210.331 7975.85,206.592 7910.32,205.406C7847.28,204.265 7805.19,205.422 7777.77,209.159C7768.29,210.45 7758.63,213.374 7753.98,214.909C7751.24,251.045 7750.66,290.114 7750.84,330.591C7751.2,412.048 7755.59,499.099 7760.26,579.592C7797.57,572.853 7836.93,567.457 7876.25,562.759C7909.05,558.839 7941.69,554.745 7973.36,552.995C8010.68,550.933 8046.43,551.419 8078.59,552.935C8127.46,555.241 8168.46,561.454 8195.7,570.739C8196.62,559.645 8197.38,548.704 8197.91,537.988C8199.05,514.867 8199.04,492.915 8198.73,473.14C8198.32,447.225 8196.65,425.104 8195.45,408.768C8192.08,372.341 8189.83,335.505 8185.78,302.222C8184.61,292.654 8182.51,283.716 8181.55,274.791C8180.87,268.482 8180.67,262.332 8180.42,256.406C8179.8,241.614 8179.58,228.178 8179.57,216.599Z" style="fill:white;stroke:black;stroke-width:1.67px;"/>
            </g>
        </g>
    </g>
</svg>
