<?xml version="1.0" encoding="UTF-8" standalone="no"?>
<!DOCTYPE svg PUBLIC "-//W3C//DTD SVG 1.1//EN" "http://www.w3.org/Graphics/SVG/1.1/DTD/svg11.dtd">
<svg width="100%" height="100%" viewBox="0 0 974 973" version="1.1" xmlns="http://www.w3.org/2000/svg" xmlns:xlink="http://www.w3.org/1999/xlink" xml:space="preserve" xmlns:serif="http://www.serif.com/" style="fill-rule:evenodd;clip-rule:evenodd;stroke-linejoin:round;stroke-miterlimit:2;">
    <g transform="matrix(1,0,0,1,-5005,-22)">
        <g id="dju" transform="matrix(1,0,0,1,5005.93,22.0509)">
            <rect x="0" y="0" width="972.222" height="972.222" style="fill:none;"/>
            <g transform="matrix(1.04063,0,0,0.591309,261.403,336.517)">
                <path d="M385.831,484.45C337.403,495.954 280.717,514.92 218.99,534.466C182.529,545.333 145.357,546.432 109.68,542.436C78.972,538.997 49.349,532.282 22.06,525.982C20.726,468.319 20.272,427.661 20.416,393.335C20.75,313.758 15.512,267.862 25.432,125.4C29.55,66.266 21.46,-11.415 21.935,-93.714C22.261,-150.37 17.406,-212.201 19.629,-277.988C20.08,-291.332 23.39,-305.632 18.625,-326.138C-0.764,-344.337 -16.473,-335.884 -36.095,-322.602C-39.705,-316.718 -40.478,-306.562 -40.299,-294.974C-39.266,-246.389 -35.493,-170.888 -34.811,-130.484C-32.83,-12.962 -29.837,61.341 -28.994,126.242C-27.137,269.157 -27.314,314.924 -25.647,394.529C-24.971,426.793 -23.888,464.554 -21.823,516.41C-35.664,513.752 -48.52,511.935 -60.148,511.632C-99.233,510.614 -125.955,528.449 -137.332,570.598C-151.359,622.102 -153.297,665.211 -148.702,699.596C-141.999,749.76 -120.918,783.41 -95.374,800.274C-40.897,836.24 29.699,788.697 26.26,678.243C25.131,641.577 24.189,609.26 23.416,580.505C49.731,586.274 78.176,592.555 107.599,596.302C145.597,601.142 185.173,602.302 224.169,592.282C284.484,577.894 339.742,562.77 386.489,554.69C387.073,590.977 386.434,610.554 387.943,639.123C389.133,660.442 397.971,700.965 411.226,725.147C430.366,760.066 461.501,790.279 489.895,791.068C519.381,791.889 548.261,768.309 561.31,691.5C573.688,617.831 569.537,567.05 555.667,533.334C544.254,505.59 525.959,486.456 500.362,478.246C483.847,472.948 463.715,472.128 440.55,474.571C440.483,440.473 440.664,404.455 441.01,367.208C443.101,141.965 422.117,-48.137 445.85,-210.876C447.982,-225.497 454.626,-327.127 446.444,-334.605C428.098,-351.372 407.033,-349.151 394.483,-338.264C386.921,-321.397 386.988,-289.439 388.983,-269.8C391.375,-215.327 389.159,-133.966 389.562,-121.892C391.134,41.761 388.342,141.485 386.261,365.634C385.877,406.993 385.703,446.891 385.831,484.45ZM-19.501,571.698C-34.353,569.032 -48.093,567.294 -60.429,567.229C-83.488,567.108 -101.048,569.875 -107.501,594.952C-123.336,657.144 -117.429,700.182 -100.32,724.034C-84.806,745.66 -61.897,750.999 -42.9,742.84C-26.422,735.763 -12.578,716.545 -14.223,683.305C-16.35,640.728 -18.087,603.935 -19.501,571.698ZM439.78,550.269C438.332,562.004 437.152,596.533 442.179,625.682C446.615,651.407 450.154,659.121 455.768,667.796C465.646,683.06 479.243,694.723 492.004,695.757C501.345,696.513 504.649,696.23 518.131,675.75C535.381,649.547 528.355,605.39 516.576,580.82C510.562,568.276 502.787,560.884 491.24,556.215C477.269,550.567 459.062,549.884 439.78,550.269Z" style="fill:white;stroke:black;stroke-width:1.18px;"/>
            </g>
        </g>
    </g>
</svg>
