<?xml version="1.0" encoding="UTF-8" standalone="no"?>
<!DOCTYPE svg PUBLIC "-//W3C//DTD SVG 1.1//EN" "http://www.w3.org/Graphics/SVG/1.1/DTD/svg11.dtd">
<svg width="100%" height="100%" viewBox="0 0 973 973" version="1.1" xmlns="http://www.w3.org/2000/svg" xmlns:xlink="http://www.w3.org/1999/xlink" xml:space="preserve" xmlns:serif="http://www.serif.com/" style="fill-rule:evenodd;clip-rule:evenodd;stroke-linejoin:round;stroke-miterlimit:2;">
    <g transform="matrix(1,0,0,1,-1417,-45)">
        <g id="idj" transform="matrix(1,0,0,1,1417.42,45.1327)">
            <rect x="0" y="0" width="972.222" height="972.222" style="fill:none;"/>
            <g transform="matrix(-1.01209,9.40048e-18,5.34153e-18,-0.531472,813.789,595.147)">
                <path d="M497.488,366.363C505.651,235.321 516.587,91.62 521.273,-47.502C523.868,-124.565 524.439,-200.149 522.332,-271.405C521.456,-296.074 515.423,-317.992 499.515,-335.349C486.152,-349.93 460.093,-361.865 413.056,-365.86C346.138,-371.542 316.346,-346.199 119.565,-351.309C78.909,-352.364 35.567,-356.67 6.828,-343.306C-0.659,-301.001 2.246,-266.396 9.828,-247.086C47.542,-240.015 99.479,-265.58 130.528,-260.336C275.681,-265.687 255.434,-267.358 318.17,-270.764C378.689,-274.051 419.189,-270.688 445.544,-264.418C453.806,-262.452 463.606,-261.803 468.498,-259.245C478.821,-65.525 468.496,162.438 461.59,360.879C436.371,357.758 414.335,355.151 394.769,354.085C284.897,348.1 311.445,352.977 255.887,340.599C164.318,320.197 168.349,328.292 166.14,345.748C161.083,385.701 153.728,409.516 162.142,442.084C175.038,445.004 197.77,447.166 221.07,449.284C243.509,453.365 273.134,449.422 292.321,449.794C325.484,450.437 319.928,450.842 388.517,449.469C408.854,449.062 432.002,447.75 458.817,446.972L458.487,458.603C456.64,526.527 455.771,589.169 456.844,643.756C459.231,765.115 474.953,848.162 508.324,872.791C551.143,905.175 583.166,902.315 605.464,881.948C634.56,855.371 649.329,796.14 649.515,724.369C649.746,635.278 626.94,527.163 587.151,453.2C563.012,408.328 532.627,376.417 497.488,366.363ZM468.666,-259.157C469.158,-254.71 470.036,-250.222 471.191,-253.17C472.297,-255.992 471.156,-257.847 468.666,-259.157ZM492.75,448.109L491.987,462.585C488.685,528.35 486.751,589.172 487.421,642.188C488.064,693.03 491.106,736.386 497.553,769.368C502.572,795.045 509.472,813.789 520.403,821.602C551.218,843.346 573.913,845.209 589.54,829.863C616.69,803.203 618.048,730.798 606.743,658.313C591.833,562.706 551.041,461.975 492.75,448.109Z" style="fill:white;stroke:black;stroke-width:1.24px;"/>
            </g>
        </g>
    </g>
</svg>
