<?xml version="1.0" encoding="UTF-8" standalone="no"?>
<!DOCTYPE svg PUBLIC "-//W3C//DTD SVG 1.1//EN" "http://www.w3.org/Graphics/SVG/1.1/DTD/svg11.dtd">
<svg width="100%" height="100%" viewBox="0 0 974 973" version="1.1" xmlns="http://www.w3.org/2000/svg" xmlns:xlink="http://www.w3.org/1999/xlink" xml:space="preserve" xmlns:serif="http://www.serif.com/" style="fill-rule:evenodd;clip-rule:evenodd;stroke-linejoin:round;stroke-miterlimit:2;">
    <g transform="matrix(1,0,0,1,-6255,-22)">
        <g id="ail" transform="matrix(-1,0,0,1,7228.16,22.0509)">
            <rect x="0" y="0" width="972.222" height="972.222" style="fill:none;"/>
            <g transform="matrix(1.04044,-0.0201514,-0.0114504,-0.591198,478.074,616.623)">
                <path d="M-20.679,180.408L-18.346,207.493C-15.676,237.762 -12.985,265.958 -10.351,291.948L-14.919,295.815C-65.268,336.794 -97.699,366.858 -117.69,399.541C-141.725,438.836 -150.605,482.186 -149.512,549.146C-148.412,609.954 -126.749,656.621 -96.703,682.425C-70.602,704.842 -38.028,710.268 -9.374,695.429C38.498,670.636 79.042,591.598 58.744,435.494C55.039,408.323 49.761,367.876 43.839,315.802C57.546,300.62 72.471,284.847 89.239,271.337C97.802,264.437 106.871,258.119 116.554,252.882C118.71,335.337 138.833,391.065 179.532,391.374C183.64,391.405 187.504,391.43 190.595,394.22C198.095,391.697 208.111,353.715 201.565,357.546C189.212,364.778 191.411,366.115 184.714,368.064C147.907,362.02 128.819,314.997 129.371,246.773C135.451,244.244 141.766,242.184 148.337,240.683C221.315,223.188 254.266,144.942 256.08,89.16C257.154,56.115 249.1,28.685 233.259,16.467C220.019,6.255 199.761,5.985 173.719,30.457C140.494,61.764 122.409,123.468 117.358,188.036C101.935,193.952 87.736,202.355 74.519,212.034C60.69,222.162 48.029,233.828 36.239,245.536C34.531,228.977 32.809,211.606 31.086,193.469C29.222,173.849 27.353,153.336 25.516,131.977C59.926,96.36 85.214,69.253 116.681,37.336C137.821,15.894 152.265,-12.387 159.75,-39.523C165.509,-60.406 170.658,-80.05 170.206,-99.667C167.166,-230.838 106.517,-283.449 51.608,-264.881C2.5,-248.275 -42.963,-173.552 -36.016,-43.185C-33.224,8.843 -30.069,57.852 -26.71,103.51C-34.653,112.329 -42.634,121.36 -50.592,130.623C-88.274,174.481 -125.435,223.323 -156.378,277.12C-200.103,353.141 -231.338,439.369 -234.619,537.869C-235.839,577.046 -210.347,748.704 -151.266,786.591C-31.922,863.125 66.651,763.163 74.048,744.565C74.048,744.565 5.266,796.912 -34.197,798.54C-73.325,800.153 -114.325,786.287 -137.866,765.311C-205.321,705.207 -211.692,575.237 -209.497,541.618C-204.066,455.548 -173.587,383.469 -133.372,320.19C-105.22,275.893 -72.031,236.633 -38.655,199.894C-32.67,193.305 -26.674,186.809 -20.679,180.408ZM19.168,53.663C33.86,37.858 47.903,22.674 60.808,7.946C81.469,-15.635 99.356,-26.492 111.843,-47.56C119.971,-61.274 126.31,-83.346 125.912,-95.925C123.666,-167.485 90.558,-195.894 60.668,-185.001C31.931,-174.528 7.251,-128.108 11.95,-51.713C14.196,-15.003 16.624,20.161 19.168,53.663ZM133.398,182.926C137.041,181.984 140.749,181.205 144.525,180.583C185.938,174.104 211.804,143.406 222.672,110.132C229.465,89.334 231.494,67.969 222.988,58.555C214.924,49.63 201.777,51.462 183.583,65.835C156.536,87.137 140.352,132.921 133.398,182.926ZM-2.604,364.173C-43.58,400.687 -70.691,426.66 -87.158,455.462C-100.881,479.464 -104.406,506.01 -103.02,545.44C-102.268,567.751 -94.763,584.723 -84.874,596.611C-68.156,616.706 -44.253,622.433 -23.869,611.246C3.628,596.153 20.846,546.078 8.576,456.201C5.675,433.918 1.775,402.958 -2.604,364.173Z" style="fill:white;stroke:black;stroke-width:2px;"/>
            </g>
        </g>
    </g>
</svg>
