<?xml version="1.0" encoding="UTF-8" standalone="no"?>
<!DOCTYPE svg PUBLIC "-//W3C//DTD SVG 1.1//EN" "http://www.w3.org/Graphics/SVG/1.1/DTD/svg11.dtd">
<svg width="100%" height="100%" viewBox="0 0 973 973" version="1.1" xmlns="http://www.w3.org/2000/svg" xmlns:xlink="http://www.w3.org/1999/xlink" xml:space="preserve" xmlns:serif="http://www.serif.com/" style="fill-rule:evenodd;clip-rule:evenodd;stroke-linejoin:round;stroke-miterlimit:2;">
    <g transform="matrix(1,0,0,1,-2533,-32)">
        <g id="aizh" transform="matrix(1,0,0,1,2533.61,32.3927)">
            <rect x="0" y="0" width="972.222" height="972.222" style="fill:none;"/>
            <g transform="matrix(-0.66856,-0.00806989,0.00548375,-0.454309,601.517,674.575)">
                <path d="M303.633,831.231C279.771,825.88 257.133,761.172 253.723,707.165C249.594,641.801 244.81,563.482 244.064,475.637C242.574,300.001 257.862,129.337 249.667,-15.584C266.016,-41.72 282.837,-74.534 299.955,-115.142C341.549,-210.473 307.037,-416.12 200.936,-442.537C80.839,-472.44 -46.792,-306.155 -81.329,-235.179C-142.438,-109.599 -168.975,-16.264 -128.565,48.437C-76.011,132.581 -97.524,30.942 -89.835,-44.236C-74.397,-195.165 114.863,-435.262 202.544,-354.879C250.389,-311.016 261.315,-213.756 243.541,-163.71C240.717,-156.032 237.912,-148.668 235.118,-141.629C222.543,-200.709 201.589,-237.088 171.448,-246.178C117.373,-264.079 82.612,-241.585 62.063,-206.422C25.436,-143.746 35.529,-27.184 76.591,32.314C102.907,70.447 144.214,90.298 193.467,51.446C190.119,163.886 185.564,270.874 180.37,399.376C176.431,496.831 168.385,590.676 175.68,670.208C186.739,790.771 218.032,906.301 268.626,943.385C290.864,959.685 347.709,963.536 389.531,901.704C415.48,863.341 419.538,829.739 428.957,791.281C453.76,690.008 429.579,659.613 413.573,649.673C384.824,631.82 370.918,625.654 357.955,653.536C348.854,673.113 357.149,701.47 358.823,735.694C360.66,773.255 347.475,791.491 339.706,812.351C329.365,840.12 306.861,830.014 303.633,831.231ZM193.658,-56.329C192.331,-90.211 189.169,-119.431 183.087,-142.323C178.165,-160.846 171.957,-174.827 161.198,-178.651C133.662,-187.782 114.04,-183.547 101.79,-167.687C84.555,-145.373 84.003,-104.841 91.672,-70.478C98.879,-38.182 114.68,-8.946 137.376,-8.163C148.105,-7.794 159.627,-15.021 172.418,-28.475C179.391,-35.809 186.467,-45.042 193.658,-56.329Z" style="fill:none;stroke:black;stroke-width:2.92px;"/>
            </g>
        </g>
    </g>
</svg>
