<?xml version="1.0" encoding="UTF-8" standalone="no"?>
<!DOCTYPE svg PUBLIC "-//W3C//DTD SVG 1.1//EN" "http://www.w3.org/Graphics/SVG/1.1/DTD/svg11.dtd">
<svg width="100%" height="100%" viewBox="0 0 974 973" version="1.1" xmlns="http://www.w3.org/2000/svg" xmlns:xlink="http://www.w3.org/1999/xlink" xml:space="preserve" xmlns:serif="http://www.serif.com/" style="fill-rule:evenodd;clip-rule:evenodd;stroke-linejoin:round;stroke-miterlimit:2;">
    <g transform="matrix(1,0,0,1,-5005,-22)">
        <g id="az" transform="matrix(1,0,0,1,5005.93,22.0509)">
            <rect x="0" y="0" width="972.222" height="972.222" style="fill:none;"/>
            <g transform="matrix(-0.860671,1.90964e-18,1.08509e-18,-0.480189,702.152,677.937)">
                <path d="M268.363,282.634C297.024,293.471 382.229,296.033 392.472,296.45C400.643,296.783 405.67,300.802 425.573,291.526C436.502,281.66 440.898,263.143 441.44,239.521C435.316,229.845 426.602,201.887 428.907,172.579C430.595,151.118 411.48,141.476 401.064,140.993C375.224,139.795 328.39,172.006 295.517,163.789C288.897,162.135 281.91,163.84 275.207,163.678C277.15,125.642 278.641,89.123 279.314,55.03C280.484,-4.189 280.012,-65.005 273.909,-106.944C266.118,-160.477 250.778,-198.464 225.816,-217.405C204.642,-233.887 186.972,-236.082 172.447,-230.522C152.693,-222.961 137.909,-199.701 127.036,-166.064C90.34,-52.536 103.768,181.569 103.768,181.569C104.853,192.861 101.42,209.42 109.664,217.842C114.74,223.028 118.5,233.421 127.819,247.379C151.642,283.064 161.396,269.471 202.623,276.666C207.961,277.597 213.519,278.386 219.254,279.064C210.285,354.77 200.77,432.468 195.065,506.552C189.423,579.807 187.227,649.6 190.736,710.367C197.225,822.733 231.481,900.668 278.684,942.578C303.145,964.296 355.421,961.514 390.31,877.067C421.608,801.312 397.107,610.293 397.107,610.293C397.107,610.293 397.908,678.529 397.692,700.841C397.016,770.703 386.725,841.113 350.304,889.217C338.218,905.179 319.596,903.515 306.965,898.165C287.19,889.791 278.731,863.009 277.061,859.685C251.775,809.323 250.289,731.724 248.469,710.023C243.783,654.157 246.895,620.83 247.872,561.242C249.574,457.508 261.234,399.156 268.363,282.634ZM232.342,161.866C235.65,128.785 238.356,96.726 240.043,66.245C245.764,-37.08 244.831,-128.884 211.167,-153.791C195.416,-164.699 183.716,-165.349 175.157,-154.98C165.129,-142.832 160.592,-118.585 157.198,-91.064C147.574,-13.031 154.083,102.489 159.306,160.279C173.296,160.399 193.605,160.674 217.388,161.299C222.239,161.427 227.232,161.626 232.342,161.866Z" style="fill:none;stroke:black;stroke-width:2.43px;"/>
            </g>
        </g>
    </g>
</svg>
