<?xml version="1.0" encoding="UTF-8" standalone="no"?>
<!DOCTYPE svg PUBLIC "-//W3C//DTD SVG 1.1//EN" "http://www.w3.org/Graphics/SVG/1.1/DTD/svg11.dtd">
<svg width="100%" height="100%" viewBox="0 0 974 973" version="1.1" xmlns="http://www.w3.org/2000/svg" xmlns:xlink="http://www.w3.org/1999/xlink" xml:space="preserve" xmlns:serif="http://www.serif.com/" style="fill-rule:evenodd;clip-rule:evenodd;stroke-linejoin:round;stroke-miterlimit:2;">
    <g transform="matrix(1,0,0,1,-7505,-22)">
        <g id="ith" transform="matrix(1,0,0,1,7505.93,22.0509)">
            <rect x="0" y="0" width="972.222" height="972.222" style="fill:none;"/>
            <g transform="matrix(1.00315,0,0,0.553593,241.647,304.376)">
                <path d="M80.809,-90.483L77.789,-86.001C53.465,-48.926 35.451,0.875 29.46,45.625C25.456,75.533 29.028,103.146 33.5,126.806C47.927,203.137 76.566,240.941 103.581,256.501C127.465,270.258 146.77,271.921 164.312,259.041C183.346,245.064 197.975,215.833 205.148,174.628C212.518,132.286 211.653,74.08 193.297,6.075C185.388,-23.223 173.959,-54.509 158.507,-87.278C167.199,-87.144 175.882,-83.277 184.254,-74.649C214.398,-42.735 218.421,32.39 214.39,122.891C209.426,234.341 190.711,367.37 179.272,488.767L-14.158,494.684C-34.417,503.302 -14.505,571.397 5.102,562.439C37.619,547.581 51.07,564.994 171.943,584.812C169.832,624.935 169.373,662.433 171.518,695.796C177.853,794.344 204.314,860.666 261.027,877.657C300.383,888.523 325.043,859.768 340.396,814.386C353.395,775.963 358.253,721.184 358.542,669.113C358.931,598.93 351.608,534.619 351.608,534.619C349.106,512.585 338.282,496.52 325.519,495.897L219.343,490.721C224.256,410.03 232.616,323.493 238.603,242.2C244.006,168.851 247.73,99.678 245.39,41.476C242.368,-33.702 229.09,-91.445 200.58,-122.16C178.679,-146.219 154.715,-149.31 131.745,-138.454C111.452,-173.735 80.046,-205.025 61.943,-248.507C52.481,-271.234 41.178,-284.974 34.336,-275.562C12.674,-259.392 -17.327,-223.046 -6.126,-192.936C1.151,-173.377 28.264,-163.21 40.091,-148.522C61.648,-121.751 65.076,-116.005 80.809,-90.483ZM215.428,586.932C214.912,622.149 215.726,655.013 218.496,684.312C223.638,738.715 236.871,778.239 268.639,784.876C286.497,789.121 294.278,768.32 298.468,743.284C306.601,694.685 304.143,630.957 301.29,591.118L215.428,586.932ZM105.331,-47.296C103.854,-45.088 102.404,-42.817 100.984,-40.496C85.996,-15.992 74.383,15.039 68.831,44.572C65.329,63.2 65.775,80.663 68.45,94.661C81.311,161.936 106.306,191.242 131.476,190.698C145.262,190.4 155.942,177.757 159.264,152.841C162.886,125.675 157.427,90.819 144.819,48.887C135.897,19.212 123.061,-13.121 105.331,-47.296Z" style="fill:none;stroke:black;stroke-width:2.06px;"/>
            </g>
        </g>
    </g>
</svg>
