<?xml version="1.0" encoding="UTF-8" standalone="no"?>
<!DOCTYPE svg PUBLIC "-//W3C//DTD SVG 1.1//EN" "http://www.w3.org/Graphics/SVG/1.1/DTD/svg11.dtd">
<svg width="100%" height="100%" viewBox="0 0 973 973" version="1.1" xmlns="http://www.w3.org/2000/svg" xmlns:xlink="http://www.w3.org/1999/xlink" xml:space="preserve" xmlns:serif="http://www.serif.com/" style="fill-rule:evenodd;clip-rule:evenodd;stroke-linejoin:round;stroke-miterlimit:2;">
    <rect id="uzh" x="0" y="0" width="972.222" height="972.222" style="fill:none;"/>
    <g id="uzh1" serif:id="uzh">
        <g transform="matrix(1.06144,0.0313062,0.0172219,-0.583912,200.908,739.97)">
            <path d="M423.368,-55.585C423.368,-55.585 425.745,5.974 425.989,47.924C426.859,197.312 424.752,325.191 421.482,461.314C418.71,576.642 413.521,679.232 408.525,741.171C403.53,799.843 389.197,843.625 370.308,871.71C346.685,906.832 316.61,919.298 289.131,905.645C266.134,894.453 250.482,856.538 243.621,794.684C239.542,757.914 238.05,712.208 238.031,660.53C238.01,601.742 239.901,535.044 242.073,465.444C247.261,299.172 255.059,262.687 242.772,137.542C236.603,74.713 233.454,21.124 198.604,17.163C179.304,14.969 164.871,22.806 156.485,48.561C147.883,74.977 145.649,87.984 144.798,129.795C144.348,151.929 150.586,190.959 145.513,223.024C127.883,254.782 96.234,238.123 92.624,214.592C86.519,174.803 91.988,137.053 98.26,99.445C102.004,61.516 110.924,5.581 129.929,-29.122C149.528,-64.908 178.163,-82.409 211.729,-72.282C230.87,-65.054 246.35,-48.426 258.076,-21.447C274.571,16.505 284.208,75.916 287.323,150.089C289.557,203.301 288.831,235.957 286.681,268.987C283.964,310.74 278.971,353.089 274.808,438.31C269.708,542.713 265.986,642.699 269.336,720.225C271.003,758.825 274.668,791.375 280.807,815.19C284.767,830.552 289.82,841.345 297.353,844.188C313.666,850.179 330.857,840.363 343.823,818.175C355.096,798.883 362.371,769.428 364.056,731.86C366.549,679.575 366.82,597.947 367.693,504.472C368.37,432.114 369.62,352.799 370.219,274.494C372.015,39.445 375.532,-111.475 375.532,-111.475C373.952,-136.798 373.909,-216.662 381.59,-232.631C397.864,-266.461 388.439,-229.327 411.952,-250.96C420.831,-259.129 420.899,-131.923 423.368,-55.585Z" style="fill:none;stroke:black;stroke-width:1.94px;"/>
        </g>
    </g>
</svg>
