<?xml version="1.0" encoding="UTF-8" standalone="no"?>
<!DOCTYPE svg PUBLIC "-//W3C//DTD SVG 1.1//EN" "http://www.w3.org/Graphics/SVG/1.1/DTD/svg11.dtd">
<svg width="100%" height="100%" viewBox="0 0 973 973" version="1.1" xmlns="http://www.w3.org/2000/svg" xmlns:xlink="http://www.w3.org/1999/xlink" xml:space="preserve" xmlns:serif="http://www.serif.com/" style="fill-rule:evenodd;clip-rule:evenodd;stroke-linejoin:round;stroke-miterlimit:2;">
    <g transform="matrix(1,0,0,1,-1417,-45)">
        <g id="ZHAI" transform="matrix(1,0,0,1,1417.42,45.1327)">
            <rect x="0" y="0" width="972.222" height="972.222" style="fill:none;"/>
            <g transform="matrix(-0.884424,-0.0106755,0.00568191,-0.470725,670.711,671.551)">
                <path d="M245.333,44.038C294.622,1.925 357.109,-99.253 374.042,-171.762C387.715,-230.312 408.001,-342.757 409.483,-375.663C405.61,-411.268 399.54,-389.901 394.395,-397.39C385.241,-410.713 376.503,-428.716 370.383,-403.832C360.428,-252.484 305.242,-102.437 243.004,-72.772C241.166,-93.11 235.848,-138.735 232.698,-155.332C221.925,-212.098 203.458,-247.936 174.851,-258.392C121.536,-279.122 87.937,-254.835 69.256,-219.235C29.429,-143.337 52.496,7.474 115.951,64.104C140.766,86.25 171.898,94.964 207.293,75.332L207.163,79.522C202.446,213.02 186.664,369.6 182.961,511.501C181.12,582.073 182.017,649.059 187.385,707.773C198.005,823.928 226.512,908.625 275.483,944.52C296.738,960.099 353.62,958.603 390.472,887.871C411.643,847.236 414.744,834.912 444.788,742.745C469.634,666.528 441.135,677.682 424.322,659.365L385.94,608.956C360.791,602.885 343.835,622.133 355.747,691.556C367.291,758.839 355.355,782.239 344.435,803.199C334.395,822.468 320.954,830.226 310.023,832.169C305.394,832.992 301.35,833.553 298.897,831.755C279.808,817.764 268.18,787.947 260.152,750.01C251.714,710.133 247.659,661.918 245.016,608.973C236.996,448.345 244.204,247.224 245.255,83.413C245.341,70.036 245.375,56.9 245.333,44.038ZM207.087,-54.122C206.839,-59.19 206.549,-64.172 206.223,-69.057C201.979,-132.506 193.084,-179.441 168.163,-187.088C134.204,-196.393 112.518,-186.967 101.524,-163.169C94.319,-147.574 94.319,-125.895 97.387,-105.155C102.183,-72.743 116.641,-42.085 136.612,-28.325C154.37,-16.09 175.919,-23.08 200.661,-47.43C202.785,-49.52 204.928,-51.744 207.087,-54.122Z" style="fill:none;stroke:black;stroke-width:2.39px;"/>
            </g>
        </g>
    </g>
</svg>
