<?xml version="1.0" encoding="UTF-8" standalone="no"?>
<!DOCTYPE svg PUBLIC "-//W3C//DTD SVG 1.1//EN" "http://www.w3.org/Graphics/SVG/1.1/DTD/svg11.dtd">
<svg width="100%" height="100%" viewBox="0 0 974 973" version="1.1" xmlns="http://www.w3.org/2000/svg" xmlns:xlink="http://www.w3.org/1999/xlink" xml:space="preserve" xmlns:serif="http://www.serif.com/" style="fill-rule:evenodd;clip-rule:evenodd;stroke-linejoin:round;stroke-miterlimit:2;">
    <g transform="matrix(1,0,0,1,-6255,-22)">
        <g id="zhi" transform="matrix(-1,0,0,1,7228.16,22.0509)">
            <rect x="0" y="0" width="972.222" height="972.222" style="fill:none;"/>
            <g transform="matrix(-0.843342,0.0303621,0.0184223,0.5117,688.575,285.12)">
                <path d="M102.285,-38.795C127.78,10.93 151.697,66.896 155.817,123.216C157.067,140.315 156.864,162.767 147.772,178.369C144.837,183.405 140.298,187.906 134.169,188.393C117.447,189.723 103.589,167.049 96.968,155.717C91.97,147.161 87.583,138.233 83.7,129.116C76.749,112.794 67.059,91.486 68.094,72.274C68.562,63.581 69.387,54.89 70.748,46.291C71.916,38.912 73.71,31.633 75.667,24.423C79.579,10.018 84.921,-4.699 91.278,-18.21C94.375,-24.793 98.062,-31.082 101.493,-37.498C101.732,-37.945 102.009,-38.37 102.285,-38.795ZM221.785,165.279C222.228,138.951 222.293,113.511 219.96,85.048C217.146,50.701 213.857,3.324 202.63,-25.966C193.952,-48.606 192.156,-61.049 167.794,-82.557C180.537,-54.104 188.873,-31.377 195.413,-1.016C203.291,35.55 204.696,73.118 206.417,110.332C207.51,110.914 206.668,112.798 206.724,114.035C207.644,134.276 208.408,138.407 205.695,158.919C204.652,166.803 203.196,174.64 201.41,182.39C199.641,190.069 197.518,197.676 195.04,205.157C185.882,232.811 166.756,279.419 129.556,272.638C124.841,271.778 120.256,270.092 115.95,267.987C107.58,263.895 99.422,257.632 92.782,251.056C71.911,230.384 57.636,202.402 47.063,175.428C39.29,155.597 29.341,127.349 26.721,104.174C23.694,77.395 26.521,49.869 31.947,23.6C37.846,-4.959 47.231,-33.044 60.23,-59.171C64.379,-67.51 69.278,-75.455 73.883,-83.551C74.406,-84.471 75.011,-85.344 75.614,-86.214C67.657,-99.146 62.217,-112.311 51.603,-123.014C27.678,-147.138 -9.024,-169.679 -13.991,-206.657C-17.526,-232.967 -9.595,-261.053 10.146,-279.433C16.188,-285.059 22.244,-288.892 29.847,-292.067C32.274,-293.081 37.313,-294.154 39.984,-292.604C42.846,-290.943 45.657,-288.914 47.594,-286.231C53.106,-278.597 57.074,-269.955 62.088,-261.985C74.348,-242.498 87.162,-223.364 99.408,-203.87C112.055,-183.738 124.889,-163.708 136.765,-143.113C142.086,-145.133 147.731,-146.525 153.408,-146.918C192.083,-149.593 217.758,-110.279 230.17,-79.102C243.322,-46.069 249.009,-10.009 252.756,25.126C260.411,96.897 258.794,169.689 257.064,241.69C256.413,268.777 255.407,295.855 254.46,322.934C252.527,378.183 250.458,433.428 248.423,488.673C246.204,548.886 242.768,629.539 241.78,690.403C241.039,736.01 253.426,789.15 286.876,822.312C301.527,836.837 324.558,848.064 343.205,833.409C346.13,831.109 348.758,828.392 351.021,825.438C357.659,816.776 366.604,796.43 369.482,789.24C384.996,750.494 389.807,710.131 392.412,668.685C393.623,649.427 392.447,637.7 390.305,619.269C389.756,614.549 388.676,609.892 388.316,605.155C388.138,602.824 387.391,600.089 388.699,598.152C388.747,609.816 403.418,629.71 405.757,637.858C406.453,648.705 407.149,659.555 407.544,670.418C408.121,686.322 408.997,702.237 408.674,718.149C408.35,734.099 407.13,750.03 405.606,765.911C399.969,824.667 392.086,887.831 342.877,926.988C325.391,940.903 294.291,955.175 273.471,938.979C215.731,894.062 197.049,816.26 187.985,747.271C186.25,734.064 184.857,720.807 183.874,707.523C179.764,651.976 179.996,596.282 182.217,540.66C184.122,492.917 187.172,445.516 195.949,398.484C210.843,318.664 217.445,246.744 221.785,165.279Z" style="fill:none;stroke:black;stroke-width:2.43px;"/>
            </g>
        </g>
    </g>
</svg>
