<?xml version="1.0" encoding="UTF-8" standalone="no"?>
<!DOCTYPE svg PUBLIC "-//W3C//DTD SVG 1.1//EN" "http://www.w3.org/Graphics/SVG/1.1/DTD/svg11.dtd">
<svg width="100%" height="100%" viewBox="0 0 974 973" version="1.1" xmlns="http://www.w3.org/2000/svg" xmlns:xlink="http://www.w3.org/1999/xlink" xml:space="preserve" xmlns:serif="http://www.serif.com/" style="fill-rule:evenodd;clip-rule:evenodd;stroke-linejoin:round;stroke-miterlimit:2;">
    <g transform="matrix(1,0,0,1,-3648,-51)">
        <g id="zhu" transform="matrix(1,0,0,1,3648.92,51.4742)">
            <rect x="0" y="0" width="972.222" height="972.222" style="fill:none;"/>
            <g transform="matrix(-0.881615,0,0,0.502444,762.731,336.698)">
                <path d="M432.657,-247.738C438.318,-60.959 429.632,198.723 422.014,461.274C418.669,576.561 413.955,679.142 408.93,741.068C403.956,799.19 389.794,842.664 371.136,870.739C347.279,906.639 316.794,919.388 288.968,905.592C265.875,894.372 250.055,856.228 243.228,793.943C239.204,757.232 237.736,711.661 237.724,660.169C237.71,601.486 239.592,534.939 241.744,465.504C246.885,299.564 254.649,116.826 242.429,-8.363C236.265,-71.516 227.606,-119.545 203.062,-124.896C184.131,-130.324 169.654,-115.283 160.238,-91.016C149.335,-62.915 137.179,-23.857 129.276,27.164C115.06,118.944 130.262,158.268 132.859,169.581C109.816,139.562 103.787,149.214 96.248,114.315C90.233,86.475 93.386,57.918 93.567,30.258C91.441,-45.825 102.951,-130.128 128.868,-174.523C149.736,-210.268 177.797,-229.239 211.965,-218.942C231.492,-211.64 247.286,-194.652 259.155,-166.933C275.445,-128.89 284.891,-69.499 287.904,4.443C292.808,124.798 282.605,286.125 275.138,438.348C270.026,542.549 266.304,642.343 269.625,719.81C271.281,758.434 274.94,791.037 281.048,814.962C284.997,830.427 289.97,841.387 297.516,844.241C313.752,850.22 330.835,840.286 343.673,818.056C354.839,798.722 361.989,769.356 363.651,731.963C366.12,679.66 366.339,598.005 367.183,504.494C367.837,432.131 367.134,352.771 369.67,274.5C377.15,43.646 372.016,51.358 367.914,-181.01C365.84,-298.518 349.424,-439.607 368.546,-469.739C386.859,-498.596 411.827,-488.534 425.492,-472.905C437.63,-444.709 431.521,-285.247 432.657,-247.738Z" style="fill:none;stroke:black;stroke-width:2.36px;"/>
            </g>
        </g>
    </g>
</svg>
