<?xml version="1.0" encoding="UTF-8" standalone="no"?>
<!DOCTYPE svg PUBLIC "-//W3C//DTD SVG 1.1//EN" "http://www.w3.org/Graphics/SVG/1.1/DTD/svg11.dtd">
<svg width="100%" height="100%" viewBox="0 0 974 973" version="1.1" xmlns="http://www.w3.org/2000/svg" xmlns:xlink="http://www.w3.org/1999/xlink" xml:space="preserve" xmlns:serif="http://www.serif.com/" style="fill-rule:evenodd;clip-rule:evenodd;stroke-linejoin:round;stroke-miterlimit:2;">
    <g transform="matrix(1,0,0,1,-5005,-22)">
        <g id="am" transform="matrix(1,0,0,1,5005.93,22.0509)">
            <rect x="0" y="0" width="972.222" height="972.222" style="fill:none;"/>
            <g transform="matrix(1.11059,0.0327556,0.0151374,-0.513238,198.735,689.152)">
                <path d="M282.686,817.998C264.403,792.263 246.876,763.646 230.529,732.738C170.134,618.547 125.755,473.733 117.439,330.714C110.274,207.478 128.149,83.526 185.459,-16.875C213.495,-65.991 251.338,-108.585 299.915,-143.296C316.294,-154.719 335.837,-161.112 355.603,-163.068C387.309,-166.204 418.99,-159.853 435.608,-155.782C461.433,-149.355 484.861,-127.699 504.072,-106.708C520.148,-89.143 520.507,-84.597 529.132,-71.859C535.677,-62.192 548.201,-18.722 545.022,-21.485C545.857,-21.757 532.269,-53.414 528.55,-59.507C517.331,-77.893 500.096,-93.413 477.3,-104.501C462.79,-111.558 449.184,-119.446 434.112,-119.713C418.332,-120.087 388.376,-119.197 358.93,-110.133C342.923,-105.206 327.203,-97.552 314.401,-85.657C276.056,-50.676 246.841,-10.117 223.947,32.019C157.32,154.645 154.537,305.349 186.388,446.403C204.521,526.703 232.446,597.441 260.823,666.16C310.505,786.472 404.514,876.468 447.792,860.283C469.228,852.266 461.014,896.279 465.881,917.748C469.415,933.335 469.407,952.647 460.728,952.342C412.352,950.642 365.756,947.473 325.911,931.616C201.003,881.908 107.644,775.577 51.238,638.779C16.214,553.837 -5.018,454.409 -21.886,345.088C-42.603,210.815 -49.838,94.46 -46.455,4.645C-45.688,-15.719 -48.485,-67.296 -51.221,-87.477C-53.835,-106.766 -54.707,-130.188 -51.924,-139.777C-50.405,-145.012 -42.702,-144.221 -42.702,-144.221C-34.44,-148.896 -26.346,-147.298 -21.035,-138.492C-15.136,-131.306 -18.456,-39.744 -21.563,-8.41C-26.926,71.496 -16.868,180.166 6.411,321.277C22.697,419.999 49.088,532.596 82.696,608.132C128.197,710.399 194.757,770.993 282.686,817.998Z" style="fill:none;stroke:black;stroke-width:1.93px;"/>
            </g>
        </g>
    </g>
</svg>
