<?xml version="1.0" encoding="UTF-8" standalone="no"?>
<!DOCTYPE svg PUBLIC "-//W3C//DTD SVG 1.1//EN" "http://www.w3.org/Graphics/SVG/1.1/DTD/svg11.dtd">
<svg width="100%" height="100%" viewBox="0 0 973 973" version="1.1" xmlns="http://www.w3.org/2000/svg" xmlns:xlink="http://www.w3.org/1999/xlink" xml:space="preserve" xmlns:serif="http://www.serif.com/" style="fill-rule:evenodd;clip-rule:evenodd;stroke-linejoin:round;stroke-miterlimit:2;">
    <g transform="matrix(1,0,0,1,-1417,-45)">
        <g id="mai" transform="matrix(1,0,0,1,1417.42,45.1327)">
            <rect x="0" y="0" width="972.222" height="972.222" style="fill:none;"/>
            <g transform="matrix(1.07257,0.0316344,0.0165968,-0.562719,164.782,674.879)">
                <path d="M183.609,938.958C160.757,934.027 139.417,928.373 120.3,921.988C91.754,912.454 67.974,900.988 51.101,887.135C36.043,874.772 25.651,860.04 20.163,844.274C4.132,797.922 8.424,744.925 27.737,715.157C45.511,687.76 78.851,676.021 122.122,726.707C142.649,750.83 162.093,781.59 171.32,810.849C180.396,839.628 184.535,853.003 187.016,861.215C203.915,863.599 221.649,865.533 239.911,867.515C280.205,871.889 306.977,879.791 310.894,864.916C299.573,851.145 287.839,824.07 277,808.169C228.794,737.454 186.217,647.004 157.084,548.831C117.306,415.25 102.518,267.367 129.453,133.868C148.987,37.048 190.517,-53.293 261.91,-124.478C253.955,-144.357 246.721,-166.056 237.715,-188.705C195.422,-295.059 150.928,-311.795 149.406,-303.706L147.787,-308.336C147.304,-310.798 150.666,-313.452 155.459,-313.246C183.719,-306.364 232.591,-265.185 256.896,-182.939C261.286,-168.084 269.377,-151.593 276.118,-138.037C282.769,-144.108 289.654,-150.017 296.782,-155.762C316.982,-171.805 342.78,-182.058 367.555,-186.348C397.96,-191.612 426.731,-187.934 442.07,-178.968C501.237,-143.272 524.233,-73.967 523.261,-16.085C522.056,55.716 485.779,124.089 424.829,104.822C398.296,96.435 366.348,71.245 331.916,17.859C319.421,-1.514 306.635,-24.663 293.542,-51.945C231.192,7.818 194.427,82.814 177.732,165.327C155.509,275.167 168.918,396.388 201.29,506.681C227.227,594.743 265.274,675.885 308.357,739.402C354.565,807.525 441.477,861.509 490.467,874.421C503.649,877.874 503.839,900.857 501.093,922.636C498.158,945.917 497.951,964.258 484.685,962.085C406.248,948.231 325.09,962.642 236.573,948.75C226.672,947.196 216.928,945.528 207.385,943.726C209.143,952.653 215.409,967.648 216.969,976.936C218.618,986.774 224.045,999.747 232.246,1017.58C238.58,1031.36 240.623,1039.28 238.053,1048.01C236.27,1054.08 232.38,1053.86 230.637,1056.96C219.441,1076.89 211.554,1046.51 207.274,1035.47C199.122,1014.44 196.011,993.657 193.672,982.308C190.586,967.305 187.221,952.838 183.609,938.958ZM313.705,-69.997L317.533,-73.191C333.219,-86.162 353.408,-94.04 372.742,-98.014C395.073,-102.605 416.289,-102.705 427.65,-96.527C480.304,-69.478 492.573,-2.595 466.228,27.057C448.379,47.146 419.483,47.761 382.323,15.322C361.482,-2.87 338.386,-30.285 313.705,-69.997ZM156.733,856.283C125.388,850.463 98.265,842.91 77.975,832.071C64.896,825.086 54.842,819.178 50.654,808.285C42.687,787.701 44.342,761.615 56.329,752.892C68.02,744.384 85.071,748.856 106.878,771.368C124.366,789.366 141.484,818.518 156.733,856.283Z" style="fill:none;stroke:black;stroke-width:1.98px;"/>
            </g>
        </g>
    </g>
</svg>
