<?xml version="1.0" encoding="UTF-8" standalone="no"?>
<!DOCTYPE svg PUBLIC "-//W3C//DTD SVG 1.1//EN" "http://www.w3.org/Graphics/SVG/1.1/DTD/svg11.dtd">
<svg width="100%" height="100%" viewBox="0 0 974 973" version="1.1" xmlns="http://www.w3.org/2000/svg" xmlns:xlink="http://www.w3.org/1999/xlink" xml:space="preserve" xmlns:serif="http://www.serif.com/" style="fill-rule:evenodd;clip-rule:evenodd;stroke-linejoin:round;stroke-miterlimit:2;">
    <g transform="matrix(1,0,0,1,-3648,-51)">
        <g id="mu" transform="matrix(1,0,0,1,3648.92,51.4742)">
            <rect x="0" y="0" width="972.222" height="972.222" style="fill:none;"/>
            <g transform="matrix(1.02677,0.0302835,0.01647,-0.558419,191.72,702.519)">
                <path d="M180.909,647.927C140.778,556.344 111.432,452.887 101.178,349.977C90.579,243.607 99.058,136.509 136.658,43.931C164.762,-25.27 209.418,-86.106 273.993,-132.625C293.926,-146.534 323.523,-155.151 352.435,-158.125C384.913,-161.466 414.032,-158.747 428.173,-153.042C448.936,-144.664 466.315,-128.391 477.515,-115.433C498.359,-91.317 538.412,3.246 529.681,-1.888L522.546,-9.729C510.083,-37.799 486.313,-78.382 471.414,-95.153C460.654,-107.264 441.623,-121.652 423.206,-125.198C409.787,-127.729 385.168,-122.354 355.29,-113.153C330.095,-105.394 304.431,-93.797 287.665,-78.225C233.593,-29.337 197.831,29.176 175.199,91.641C147.829,167.18 141.681,250.046 150.609,333.508C160.635,427.23 188.764,520.562 226.451,602.742C347.574,482.846 348.346,486.488 394.854,452.623C443.646,417.095 443.916,409.98 467.148,398.385C490.308,386.826 488.313,406.215 488.934,452.076C489.327,481.143 485.483,501.92 461.533,511.91C415.517,531.104 362.005,527.272 249.537,649.439C264.531,677.741 280.591,704.249 297.286,728.463C347.714,801.601 390.237,849.077 441.843,863.121C454.825,866.521 453.608,876.904 452.361,900.357C451.115,923.811 463.934,957.491 450.828,956.419L250.072,940.533C250.072,940.533 1.364,916.858 1.364,916.858C-8.832,916.024 -17.509,903.255 -19.969,885.467C-22.428,867.679 -18.085,849.104 -9.291,839.802C-9.291,839.802 79.391,748.979 180.909,647.927ZM205.195,699.359C223.735,735.871 243.909,769.834 265.09,800.324C279.071,820.45 293.491,839.033 308.158,855.861C308.158,855.861 252.34,851.145 252.34,851.145C252.34,851.145 79.475,839.316 79.475,839.316C112.675,802.657 155.491,755.158 200.615,704.515L205.195,699.359Z" style="fill:none;stroke:black;stroke-width:2.02px;"/>
            </g>
        </g>
    </g>
</svg>
