<?xml version="1.0" encoding="UTF-8" standalone="no"?>
<!DOCTYPE svg PUBLIC "-//W3C//DTD SVG 1.1//EN" "http://www.w3.org/Graphics/SVG/1.1/DTD/svg11.dtd">
<svg width="100%" height="100%" viewBox="0 0 974 973" version="1.1" xmlns="http://www.w3.org/2000/svg" xmlns:xlink="http://www.w3.org/1999/xlink" xml:space="preserve" xmlns:serif="http://www.serif.com/" style="fill-rule:evenodd;clip-rule:evenodd;stroke-linejoin:round;stroke-miterlimit:2;">
    <g transform="matrix(1,0,0,1,-5005,-22)">
        <g id="atch" transform="matrix(1,0,0,1,5005.93,22.0509)">
            <rect x="0" y="0" width="972.222" height="972.222" style="fill:none;"/>
            <g transform="matrix(1.06144,0.0313062,0.0174325,-0.591052,185.695,700.861)">
                <path d="M519.518,887.573C530.995,869.019 541.335,842.076 549.875,808.666C574.124,713.801 583.631,569.443 574.929,426.682C571.067,363.336 563.035,300.741 551.081,242.328C543.093,203.297 533.371,166.214 521.09,132.747C476.391,10.942 398.126,-59.166 273.852,-8.61C241.723,4.096 217.85,42.245 200.712,93.846C176.062,168.062 164.763,268.933 165.243,372.499C165.709,472.806 177.468,575.438 198.308,660.1C213.577,722.125 233.574,774.684 259.164,806.928C269.551,819.816 252.1,839.618 248.251,861.21C245.959,874.066 245.16,897.548 234.73,881.06C186.137,804.241 128.892,774.713 89.942,713.98C43.424,641.448 9.441,559.635 -13.292,460.513C-47.71,310.45 -56.115,119.736 -42.903,-144.366L-42.44,-158.814L-26.35,-157.15L-26.813,-142.702C-30.414,111.454 -16.351,292.728 21.026,433.111C44.045,519.566 76.41,589.239 119.11,651.692C129.828,667.367 141.182,682.601 153.206,697.486C149.726,683.717 146.478,669.517 143.47,654.945C118.87,535.752 110.521,391.923 119.351,263.04C126.144,163.883 143.235,73.213 171.573,7.512C194.724,-46.162 225.156,-83.715 262.75,-98.663C414.477,-157.605 508.818,-64.522 561.724,85.669C574.874,123.001 585.679,163.91 593.448,207.459C600.815,248.751 605.649,292.158 608.432,336.307C623.111,569.218 581.644,820.639 524.335,897.936L521.45,902.262L516.633,891.899L519.518,887.573Z" style="fill:none;stroke:black;stroke-width:1.97px;"/>
            </g>
        </g>
    </g>
</svg>
