<?xml version="1.0" encoding="UTF-8" standalone="no"?>
<!DOCTYPE svg PUBLIC "-//W3C//DTD SVG 1.1//EN" "http://www.w3.org/Graphics/SVG/1.1/DTD/svg11.dtd">
<svg width="100%" height="100%" viewBox="0 0 974 973" version="1.1" xmlns="http://www.w3.org/2000/svg" xmlns:xlink="http://www.w3.org/1999/xlink" xml:space="preserve" xmlns:serif="http://www.serif.com/" style="fill-rule:evenodd;clip-rule:evenodd;stroke-linejoin:round;stroke-miterlimit:2;">
    <g transform="matrix(1,0,0,1,-3648,-51)">
        <g id="tcha" transform="matrix(1,0,0,1,3648.92,51.4742)">
            <rect x="0" y="0" width="972.222" height="972.222" style="fill:none;"/>
            <g transform="matrix(1.00804,0.0156346,0.00917002,-0.591238,150.493,700.738)">
                <path d="M66.018,575.191C33.027,564.368 -6.749,561.749 -54.325,570.587L-62.731,572.596L-65.088,543.933L-56.682,541.924C-9.173,528.038 31.443,526.219 65.956,533.05C66.53,488.93 69.076,443.601 73.369,398.496C85.097,275.282 110.282,153.602 145.161,62.458C177.167,-21.177 217.753,-79.111 262.372,-96.812C390.547,-148.872 479.194,-94.26 537.445,8.478C595.425,110.737 623.311,264.243 627.724,415.846C628.446,440.636 628.54,465.357 628.053,489.747C631.952,485.66 635.925,481.537 639.962,477.38C655.351,461.534 671.493,444.76 688.755,427.758L692.115,424.19L696.3,435.649L692.94,439.217C670.985,464.474 650.704,488.416 632.239,511.909L627.222,518.364C624.682,584.569 617.946,647.657 608.063,702.563C589.781,802.413 554.221,869.519 519.667,903.566C493.593,929.256 467.969,937.042 449.765,930.883C433.515,925.386 421.334,911.257 415.135,889.194C410.522,872.776 408.217,851.401 412.448,824.879C417.122,795.585 429.54,756.475 455.113,710.328C480.067,665.296 517.951,612.544 572.04,550.798C573.667,522.573 574.466,493.46 574.401,464.001C574.168,357.185 562.314,245.527 533.447,154.865C490.575,20.213 408.997,-63.507 274.23,-10.461C241.134,2.832 212.869,49.47 188.981,111.399C157.436,193.179 134.448,302.2 123.043,412.772C118.278,458.967 115.516,505.412 115.043,550.251C149.492,568.312 175.561,596.474 194.675,628.605C240.931,706.358 247.474,809.868 234.432,871.927C227.946,902.79 216.202,924.287 202.608,934.724C198.44,937.732 193.807,938.31 189.426,936.369C128.432,911.604 90.266,820.18 74.358,697.279C69.427,659.185 66.717,618.021 66.018,575.191ZM568.37,599.287C565.793,626.625 562.392,652.741 558.227,677.083C545.42,752.991 519.493,804.392 494.134,832.152C486.085,840.964 478.359,847.932 470.995,851.576C465.552,854.269 460.608,856.121 456.367,855.021C455.123,854.698 453.609,856.48 453.143,854.708C452.179,851.044 452.054,846.315 452.68,840.517C456.069,809.144 471.645,764.853 503.858,705.229C520.875,673.731 542.006,638.233 568.37,599.287ZM115.515,600.624C125.296,607.821 134.181,615.962 142.222,624.838C188.253,675.652 204.409,751.244 202.401,809.367C201.597,832.656 198.488,853.308 191.984,864.119C160.288,843.277 140.551,793.758 128.638,731.157C121.187,692.001 116.934,647.688 115.515,600.624Z" style="fill:none;stroke:black;stroke-width:2.02px;"/>
            </g>
        </g>
    </g>
</svg>
