<?xml version="1.0" encoding="UTF-8" standalone="no"?>
<!DOCTYPE svg PUBLIC "-//W3C//DTD SVG 1.1//EN" "http://www.w3.org/Graphics/SVG/1.1/DTD/svg11.dtd">
<svg width="100%" height="100%" viewBox="0 0 973 973" version="1.1" xmlns="http://www.w3.org/2000/svg" xmlns:xlink="http://www.w3.org/1999/xlink" xml:space="preserve" xmlns:serif="http://www.serif.com/" style="fill-rule:evenodd;clip-rule:evenodd;stroke-linejoin:round;stroke-miterlimit:2;">
    <g transform="matrix(1,0,0,1,-2533,-32)">
        <g id="tchi" transform="matrix(1,0,0,1,2533.61,32.3927)">
            <rect x="0" y="0" width="972.222" height="972.222" style="fill:none;"/>
            <g transform="matrix(1.0307,0.0303995,0.0158468,-0.53729,210.074,716.28)">
                <path d="M105.746,599.994C60.1,594.653 36.754,573.182 -2.552,581.76C-58.656,594.004 -54.983,622.022 -67.416,595.199C-74.146,567.067 -76.843,537.901 -68.111,530.82C-58.246,521.346 -47.814,521.486 -41.977,522.712C-38.652,522.047 -34.353,521.554 -31.13,521.17C15.498,515.616 51.186,537.973 100.964,546.459C97.658,497.639 96.969,446.731 98.745,395.909C103.881,248.955 130.162,102.986 173.145,8.501C197.731,-45.543 227.812,-83.267 262.228,-98.445C392.8,-154.312 478.83,-63.035 532.144,85.2C546.363,124.735 558.433,168.312 567.652,214.61C573.524,244.095 578.059,274.596 582.051,305.526C610.102,522.861 590.924,763.41 566.498,841.793C563.079,852.767 561.02,848.374 561.02,848.374C561.02,848.374 568.327,823.838 574.987,756.62C583.771,667.952 572.124,525.684 553.377,395.376C545.314,339.332 534.509,284.066 521.402,231.933C512.654,197.14 502.984,163.757 491.566,133.35C447.566,16.169 378.702,-55.398 274.374,-8.828C250.34,1.583 229.801,29.073 212.538,66.61C175.111,147.988 153.075,274.685 148.194,401.759C146.046,457.679 147.277,513.723 152.141,566.197C181.152,580.649 206.186,599.168 227.204,619.709C348.631,738.38 338.437,919.743 242.987,902.414C242.099,902.213 241.218,901.92 240.348,901.535C182.359,876.804 141.941,795.858 119.349,686.936C113.669,659.554 109.146,630.377 105.746,599.994ZM160.64,632.743C163.601,634.921 166.501,637.152 169.348,639.417C221.475,680.899 254.542,734.088 267.917,780.009C271.933,793.8 274.104,805.925 272.453,815.551C271.903,818.759 269.728,819.029 267.503,820.118C262.875,822.384 257.126,822.409 250.247,820.89C208.152,800.648 181.103,737.163 165.049,656.911C163.47,649.018 161.998,640.96 160.64,632.743Z" style="fill:none;stroke:black;stroke-width:2.03px;"/>
            </g>
        </g>
    </g>
</svg>
