<?xml version="1.0" encoding="UTF-8" standalone="no"?>
<!DOCTYPE svg PUBLIC "-//W3C//DTD SVG 1.1//EN" "http://www.w3.org/Graphics/SVG/1.1/DTD/svg11.dtd">
<svg width="100%" height="100%" viewBox="0 0 974 973" version="1.1" xmlns="http://www.w3.org/2000/svg" xmlns:xlink="http://www.w3.org/1999/xlink" xml:space="preserve" xmlns:serif="http://www.serif.com/" style="fill-rule:evenodd;clip-rule:evenodd;stroke-linejoin:round;stroke-miterlimit:2;">
    <g transform="matrix(1,0,0,1,-8755,-22)">
        <g id="utch" transform="matrix(1,0,0,1,8755.93,22.0509)">
            <rect x="0" y="0" width="972.222" height="972.222" style="fill:none;"/>
            <g transform="matrix(1.06144,0.0313062,0.0174325,-0.591052,192.59,697.332)">
                <path d="M87.971,-13.792C79.181,-71.118 74.753,-128.457 75.682,-184.76C76.31,-222.802 79.124,-260.41 85.102,-297.313L86.048,-303.846L93.323,-300.448L92.377,-293.916C87.77,-257.886 85.88,-221.475 86.774,-184.903C87.945,-137.024 93.61,-89.17 102.803,-41.802C139.566,-102.944 194.909,-140.38 272.987,-139.078C411.261,-136.429 530.961,123.625 587.486,370.683C622.308,522.879 631.956,669.008 613.892,745.633C606.386,777.474 594.673,800.183 579.392,813.029C562.352,827.352 539.675,829.949 510.969,811.043C459.936,776.801 363.789,666.124 275.602,509.738C231.129,430.872 189.019,340.198 154.788,244.685C136.747,194.347 121.059,142.648 108.526,90.394C89.1,158.958 86.73,245.133 95.557,332.732C105.72,433.586 130.927,536.423 165.571,620.003C202.75,709.698 249.725,799.606 302.777,793.869C330.473,790.873 313.768,826.028 308.082,831.555C299.21,840.179 300.642,853.794 292.426,854.946C249.113,861.019 285.875,801.107 15.514,855.698C-6.63,860.17 -28.823,864.358 -39.702,863.578L-54.02,841.82C-64.067,810.498 -69.057,782.865 -63.438,762.972C-52.918,740.241 11.113,767.663 37.248,768.424C139.899,771.412 116.417,771.637 202.075,785.374C155.037,726.482 114.145,636.782 85.733,535.448C55.972,429.305 40.325,310.781 43.792,204.527C46.487,121.949 60.264,45.751 87.971,-13.792ZM124.149,47.292C152.583,-15.065 200.642,-51.91 272.354,-50.001C372.515,-47.305 457.236,119.321 511.356,297.528C554.808,440.608 578.92,593.267 570.503,684.077C568.592,704.699 565.79,721.617 558.184,728.979C550.92,736.009 541.159,733.025 528.454,724.779C480.662,694.357 392.953,588.333 307.469,449.241C263.078,377.012 218.937,296.756 182.192,210.174C159.833,157.488 139.926,102.948 124.149,47.292Z" style="fill:none;stroke:black;stroke-width:1.94px;"/>
            </g>
        </g>
    </g>
</svg>
