<?xml version="1.0" encoding="UTF-8" standalone="no"?>
<!DOCTYPE svg PUBLIC "-//W3C//DTD SVG 1.1//EN" "http://www.w3.org/Graphics/SVG/1.1/DTD/svg11.dtd">
<svg width="100%" height="100%" viewBox="0 0 974 973" version="1.1" xmlns="http://www.w3.org/2000/svg" xmlns:xlink="http://www.w3.org/1999/xlink" xml:space="preserve" xmlns:serif="http://www.serif.com/" style="fill-rule:evenodd;clip-rule:evenodd;stroke-linejoin:round;stroke-miterlimit:2;">
    <g transform="matrix(1,0,0,1,-3648,-51)">
        <g id="ag" transform="matrix(1,0,0,1,3648.92,51.4742)">
            <rect x="0" y="0" width="972.222" height="972.222" style="fill:none;"/>
            <g transform="matrix(-0.892486,0,0,0.518084,738.623,284.228)">
                <path d="M421.65,-123.099C420.026,-66.858 431.314,49.219 426.756,306.081C425.692,366.04 424.529,424.636 422.854,479.172C419.396,591.754 414.58,686.842 409.828,741.05C404.181,805.281 389.095,840.897 370.261,859.293C348.939,880.119 321.557,880.124 294.308,866.769C270.869,855.797 254.686,818.77 246.877,758.522C238.094,690.755 238.671,590.494 241.179,479.654C244.191,346.576 249.499,197.962 245.163,76.809C242.956,15.114 238.059,-38.843 227.944,-77.951C222.157,-100.327 214.293,-115.704 202.202,-118.162C185.197,-123.05 172.342,-108.984 163.95,-87.061C153.582,-59.979 147.913,-43.719 149.656,-6.131C150.791,18.343 151.424,43.611 151.557,69.674C126.715,89.461 105.181,92.613 87.785,74.96C79.354,47.654 84.597,-14.07 88.399,-38.454C101.026,-119.442 101.51,-123.459 123.95,-171.324C143.595,-213.225 175.665,-229.948 211.922,-219.052C232.154,-211.71 249.682,-201.639 262.196,-174.162C279.305,-136.593 289.354,-77.944 292.767,-4.854C299.05,129.7 285.588,317.703 278.737,483.15C275.639,557.979 274.173,628.005 276.866,685.259C278.586,721.829 282.069,752.791 288.166,775.465C291.92,789.424 296.605,799.473 303.691,802.234C319.849,808.274 336.066,810.487 347.98,796.849C357.187,786.31 361.36,765.062 362.753,731.981C363.851,705.777 364.256,669.853 364.5,626.906C364.948,547.757 363.401,445.638 363.058,337.311C362.063,23.545 363.236,23.536 363.515,-214.119C363.603,-289.06 353.834,-358.092 361.822,-395.72C385.97,-410.37 407.067,-414.123 425.663,-397.059C433.93,-367.777 420.153,-170.448 421.65,-123.099Z"/>
            </g>
        </g>
    </g>
</svg>
