<?xml version="1.0" encoding="UTF-8" standalone="no"?>
<!DOCTYPE svg PUBLIC "-//W3C//DTD SVG 1.1//EN" "http://www.w3.org/Graphics/SVG/1.1/DTD/svg11.dtd">
<svg width="100%" height="100%" viewBox="0 0 974 973" version="1.1" xmlns="http://www.w3.org/2000/svg" xmlns:xlink="http://www.w3.org/1999/xlink" xml:space="preserve" xmlns:serif="http://www.serif.com/" style="fill-rule:evenodd;clip-rule:evenodd;stroke-linejoin:round;stroke-miterlimit:2;">
    <g transform="matrix(1,0,0,1,-8755,-22)">
        <g id="ga" transform="matrix(1,0,0,1,8755.93,22.0509)">
            <rect x="0" y="0" width="972.222" height="972.222" style="fill:none;"/>
            <g transform="matrix(-0.84551,0,0,0.471263,661.584,318.035)">
                <path d="M424.266,687.702C428.864,781.708 413.779,843.582 393.514,883.993C355.927,958.945 296.435,960.22 274.446,944.103C245.734,923.058 224.772,887.068 211.545,838.005C201.531,800.861 195.724,755.999 194.111,705.775C190.621,597.033 207.18,462.025 221.572,327.708C226.829,278.637 231.385,229.574 235.025,182.442C241.205,102.443 244.153,28.127 241.898,-31.232C241.005,-54.733 238.856,-75.461 235.559,-92.912C231.78,-112.91 225.428,-126.035 214.31,-127.665C195.995,-129.241 182.259,-125.142 171.569,-118.892C165.964,-115.614 162.273,-110.196 159.544,-103.667C154.58,-91.795 153.203,-75.994 152.277,-58.613C151.046,-35.506 151.42,-10.169 151.82,15.712L152.754,76.145L85.387,79.496L84.453,19.063C83.261,-58.59 85.833,-132.023 106.505,-178.166C115.33,-197.866 126.745,-214.895 142.461,-224.561C161.198,-236.085 186.677,-239.804 221.403,-226.589C255.511,-215.818 276.314,-177.481 284.199,-112.205C291.147,-54.677 287.317,26.789 279.245,120.229C275.298,165.918 270.431,214.587 266.015,264.692C262.897,300.082 260.033,336.172 257.762,372.321C252.361,458.294 250.237,543.87 252.041,620.056C253.252,671.214 257.566,717.044 264.947,755.552C271.7,790.788 281.609,818.957 299.934,832.172C302.165,833.807 305.872,832.997 310.103,832.192C320.763,830.163 333.809,822.276 343.414,803.121C354.118,781.776 359.56,747.925 357.131,698.271L354.186,638.046L421.321,627.477L424.266,687.702Z"/>
            </g>
        </g>
    </g>
</svg>
