<?xml version="1.0" encoding="UTF-8" standalone="no"?>
<!DOCTYPE svg PUBLIC "-//W3C//DTD SVG 1.1//EN" "http://www.w3.org/Graphics/SVG/1.1/DTD/svg11.dtd">
<svg width="100%" height="100%" viewBox="0 0 973 973" version="1.1" xmlns="http://www.w3.org/2000/svg" xmlns:xlink="http://www.w3.org/1999/xlink" xml:space="preserve" xmlns:serif="http://www.serif.com/" style="fill-rule:evenodd;clip-rule:evenodd;stroke-linejoin:round;stroke-miterlimit:2;">
    <g transform="matrix(1,0,0,1,-1417,-45)">
        <g id="ig" transform="matrix(1,0,0,1,1417.42,45.1327)">
            <rect x="0" y="0" width="972.222" height="972.222" style="fill:none;"/>
            <g transform="matrix(0.853947,-0.0450554,-0.0274021,-0.51936,293.855,671.21)">
                <path d="M210.747,61.102C173.719,84.555 141.19,76.401 115.618,53.414C57.052,0.765 34.37,-137.034 69.627,-209.763C87.557,-246.75 120.857,-271.572 174.567,-251.369C202.596,-241.303 220.711,-205.784 230.929,-149.364C234.464,-129.849 236.993,-107.595 238.756,-83.068C324.875,-181.364 309.776,-361.656 413.534,-424.747C426.013,-432.335 434.85,-411.801 433.329,-390.895C338.811,-334.006 351.418,-130.924 242.373,33.933C242.425,50.34 242.35,67.223 242.191,84.507C240.687,247.578 232.725,447.275 240.202,607.502C242.74,661.886 246.857,711.48 255.296,752.729C263.96,795.078 276.624,828.198 297.717,843.659C300.602,845.774 305.406,845.447 310.891,844.373C322.886,842.025 337.489,832.849 348.209,811.128C359.762,787.72 366.058,751.038 363.421,697.118L361.073,649.113L415.628,640.85L417.976,688.855C422.301,777.298 408.498,835.925 389.548,874.32C354.109,946.124 297.523,947.905 276.664,932.616C229.191,897.82 201.849,814.708 191.75,701.578C186.618,644.083 185.787,578.675 187.451,509.804C190.849,369.097 205.794,213.734 210.164,81.292C210.388,74.499 210.583,67.769 210.747,61.102ZM210.26,-44.364C207.713,-41.532 205.191,-38.898 202.694,-36.45C176.415,-10.685 153.437,-5.588 134.827,-19.336C113.84,-34.84 99.073,-68.291 94.101,-102.766C90.733,-126.128 91.203,-150.23 98.955,-168.022C110.06,-193.505 132.639,-204.369 168.446,-194.111C195.096,-185.847 204.58,-135.936 209.032,-67.652C209.524,-60.106 209.934,-52.338 210.26,-44.364Z"/>
            </g>
        </g>
    </g>
</svg>
