<?xml version="1.0" encoding="UTF-8" standalone="no"?>
<!DOCTYPE svg PUBLIC "-//W3C//DTD SVG 1.1//EN" "http://www.w3.org/Graphics/SVG/1.1/DTD/svg11.dtd">
<svg width="100%" height="100%" viewBox="0 0 973 973" version="1.1" xmlns="http://www.w3.org/2000/svg" xmlns:xlink="http://www.w3.org/1999/xlink" xml:space="preserve" xmlns:serif="http://www.serif.com/" style="fill-rule:evenodd;clip-rule:evenodd;stroke-linejoin:round;stroke-miterlimit:2;">
    <g transform="matrix(1,0,0,1,-7547,-33)">
        <g id="aibh" transform="matrix(1,0,0,1,47.1434,33.19)">
            <rect x="7500" y="0" width="972.222" height="972.222" style="fill:none;"/>
            <g transform="matrix(1,0,0,1,-24.7291,-44.4713)">
                <path d="M8075.78,789.245C8029.17,751.255 7983.66,735.691 7938.25,732.806C7892.1,729.874 7861.35,745.313 7848.53,770.131C7834,798.274 7874.37,834.739 7905.58,840.525C7927.26,844.544 7954.43,842.95 7988.57,830.045C8026.69,815.633 8048.02,806.461 8075.78,789.245ZM7957.11,441.231C7972.82,423.619 7977.81,420.212 8027.67,370.115C8068.23,329.366 8117.51,277.109 8178.18,215.472C8187.39,206.111 8190.67,204.072 8198.31,196.918C8199.6,195.709 8205.67,194.289 8205.49,193.429C8208.18,190.542 8206.89,176.54 8204.36,177.472C8201.99,176.306 8194.8,179.061 8191.6,179.684C8178.12,182.31 8178.28,181.88 8159.52,185.399C8118.4,193.11 8034.63,199.006 7979.78,208.966C7909.68,221.694 7804.29,210.097 7786.62,231.667C7774.76,246.144 7776.98,268.577 7789.02,282.201C7804.24,299.418 7812.49,269.981 7889.97,259.017C7908.93,256.335 7979.64,236.799 7997.82,233.548C8062.83,221.918 8086.17,220.648 8157.56,203.862C8163.13,202.553 8164.04,203.71 8161.28,206.581C8151.93,216.319 7996.4,333.145 7949.56,378.273C7921.62,405.19 7880.46,428.4 7875.54,437.317C7865.99,454.646 7872,474.335 7878.43,483.294C7890.86,491.734 7912.22,494.152 7939.56,492.524C8064.41,498.212 8114.93,537.278 8154.13,574.478C8173.86,593.204 8187.31,609.865 8191.19,628.924C8195.51,650.141 8189.59,671.728 8177.88,692.532C8161.76,721.183 8134.65,747.826 8103.08,770.88C8033.47,706.429 7948.67,685.853 7886.52,693.197C7861.12,696.198 7839.36,704.122 7822.74,715.406C7811.17,723.255 7802.1,732.73 7796,743.305C7780.27,770.606 7777.3,811.48 7815.55,848.834C7859.86,892.11 7925.88,902.013 8003.52,880.539C8042.15,869.854 8081.86,852.35 8117.48,829.914C8144.54,855.192 8222.03,863.456 8257.46,845.552C8323.09,812.382 8354.27,770.584 8377.12,669.403C8396.08,585.437 8393.28,448.291 8356.1,331.741C8342.34,288.612 8324.19,249.847 8299.35,208.219C8296.54,203.517 8294.94,198.353 8291.7,193.974C8287.18,191.508 8279.07,194.709 8276.33,202.411C8274.46,207.687 8280.65,209.92 8284.8,216.303C8312.7,259.235 8334.62,310.293 8347.42,355.657C8373.93,449.599 8371.54,537.603 8357.8,620.37C8338.91,734.196 8309.04,778.002 8255.76,815.509C8227.82,835.18 8164.24,828.868 8142.96,812.471C8179.07,785.625 8208.88,753.629 8227.54,720.479C8284.49,619.298 8270.15,494.071 7956.89,441.164"/>
                <path d="M8161.93,204.26C8161.91,204.341 8161.86,204.473 8161.81,204.57C8161.6,204.974 8161.21,205.45 8160.68,206.004C8154.05,212.906 8073.92,273.646 8011.18,324.477C7985.43,345.343 7962.61,364.541 7948.98,377.673C7926.49,399.341 7895.42,418.601 7881.63,429.93C7878.18,432.757 7875.8,435.124 7874.81,436.915C7870.49,444.768 7869.29,453.095 7869.87,460.728C7870.6,470.263 7874.11,478.708 7877.75,483.78C7877.81,483.86 7877.88,483.929 7877.96,483.984C7883.97,488.065 7892.04,490.773 7901.84,492.295C7912.49,493.949 7925.21,494.211 7939.57,493.358C7988.05,495.571 8025.3,502.823 8055.03,513.052C8101.62,529.086 8129.69,552.433 8153.55,575.082C8164.46,585.429 8173.44,595.139 8179.93,604.978C8185.09,612.806 8188.67,620.713 8190.37,629.09C8192.57,639.903 8192.08,650.814 8189.51,661.665C8187.08,671.914 8182.79,682.11 8177.16,692.124C8168.77,707.022 8157.4,721.373 8143.98,734.957C8131.82,747.257 8117.98,758.927 8103.14,769.802C8071.74,740.855 8037.28,720.785 8003.21,708.139C7961.62,692.704 7920.6,688.33 7886.42,692.369C7874.43,693.786 7863.24,696.296 7853.02,699.734C7841.47,703.62 7831.14,708.694 7822.27,714.717C7816.64,718.538 7811.59,722.742 7807.19,727.268C7802.46,732.128 7798.46,737.36 7795.28,742.889C7786.31,758.446 7781.45,778.366 7785.85,799.549C7789.24,815.896 7798.14,833.004 7814.97,849.431C7839,872.903 7869.38,886.617 7904.53,890.875C7934.47,894.502 7967.87,891.264 8003.74,881.342C8023.33,875.925 8043.19,868.759 8062.66,860.088C8081.47,851.709 8099.91,841.926 8117.38,830.959C8131.35,843.634 8157.95,852.025 8185.45,854.884C8212.43,857.689 8240.27,855.173 8257.83,846.296C8294.55,827.741 8320.52,806.489 8340.29,773.748C8355.99,747.759 8367.78,714.514 8377.93,669.587C8388.14,624.394 8392.05,563.818 8387.71,499.328C8383.97,443.842 8374.11,385.459 8356.89,331.488C8349.88,309.498 8341.72,288.641 8332.13,267.962C8322.87,248.026 8312.28,228.254 8300.07,207.792C8298.11,204.515 8296.74,201.012 8294.99,197.71C8294.21,196.25 8293.37,194.828 8292.37,193.479C8292.3,193.381 8292.2,193.3 8292.1,193.242C8289.36,191.748 8285.41,192.101 8281.93,194.209C8279.24,195.843 8276.83,198.518 8275.55,202.132C8274.77,204.329 8275.19,206.069 8276.29,207.741C8277.97,210.303 8281.45,212.685 8284.1,216.757C8297.76,237.777 8309.99,260.748 8320.4,284.042C8331.23,308.248 8340.11,332.804 8346.62,355.883C8359.37,401.069 8365.42,444.879 8366.74,487.392C8368.16,533.142 8364.09,577.39 8356.98,620.233C8347.19,679.236 8334.45,719.387 8317.01,749.593C8300.9,777.482 8280.78,796.877 8255.28,814.827C8241.91,824.244 8220.28,827.611 8199.12,826.785C8177.08,825.925 8155.54,820.509 8144.36,812.47C8161.35,799.762 8176.93,785.917 8190.6,771.354C8205.73,755.224 8218.52,738.213 8228.27,720.888C8260.19,664.159 8269.78,599.917 8217.47,544.95C8176.29,501.671 8096.57,464.113 7958.76,440.636C7963.32,435.548 7967.04,431.612 7971.4,427.192C7981.28,417.172 7994.46,404.671 8028.26,370.703C8037.85,361.072 8047.92,350.798 8058.52,339.91C8092.75,304.728 8132.44,263.128 8178.77,216.056C8181.95,212.824 8184.42,210.468 8186.61,208.472C8190.75,204.695 8193.88,202.203 8198.88,197.526C8199.27,197.154 8200.19,196.786 8201.2,196.397C8202.75,195.801 8204.51,195.21 8205.38,194.714C8205.81,194.471 8206.07,194.204 8206.19,193.99C8206.23,193.922 8206.26,193.855 8206.28,193.788C8206.81,193.109 8207.21,192.045 8207.46,190.748C8207.88,188.609 8207.91,185.803 8207.65,183.296C8207.4,180.852 8206.86,178.69 8206.18,177.626C8205.67,176.837 8205.05,176.521 8204.43,176.601C8203.47,176.268 8202,176.309 8200.34,176.607C8197.3,177.151 8193.52,178.46 8191.44,178.867C8188.89,179.363 8186.83,179.749 8185.04,180.074C8177.36,181.469 8174.58,181.726 8159.36,184.58C8126.48,190.746 8066.33,195.749 8015.5,202.601C8002.77,204.318 7990.62,206.151 7979.63,208.146C7930.7,217.03 7864.58,214.055 7823.11,218.793C7812.13,220.047 7802.87,221.845 7796.08,224.528C7791.57,226.309 7788.15,228.492 7785.98,231.138C7779.9,238.548 7777.43,247.993 7778.03,257.33C7778.62,266.626 7782.26,275.81 7788.4,282.753C7791.67,286.458 7794.66,288.086 7798.01,288.295C7802.72,288.589 7808.23,285.918 7816.53,281.919C7830.13,275.363 7851.49,265.304 7890.09,259.843C7894.74,259.184 7902.51,257.513 7911.86,255.315C7940.58,248.561 7984.24,236.822 7997.96,234.368C8039.13,227.004 8063.59,223.793 8094.12,218.167C8111.82,214.906 8131.55,210.834 8157.75,204.673C8159.2,204.332 8160.31,204.162 8161.12,204.159C8161.4,204.158 8161.64,204.178 8161.83,204.226C8161.86,204.234 8161.9,204.248 8161.93,204.26ZM8204.57,178.279C8204.38,178.328 8204.18,178.307 8204,178.22C8203.28,177.867 8202.05,177.995 8200.63,178.248C8197.6,178.79 8193.83,180.097 8191.75,180.502C8189.2,181 8187.14,181.388 8185.34,181.714C8177.66,183.108 8174.88,183.365 8159.67,186.218C8126.77,192.387 8066.58,197.397 8015.73,204.253C8003.02,205.966 7990.9,207.795 7979.93,209.786C7930.97,218.676 7864.8,215.707 7823.3,220.448C7812.49,221.683 7803.37,223.437 7796.69,226.078C7792.5,227.736 7789.28,229.732 7787.27,232.195C7781.47,239.274 7779.12,248.304 7779.69,257.224C7780.26,266.154 7783.75,274.979 7789.64,281.649C7792.54,284.93 7795.15,286.447 7798.11,286.631C7802.63,286.913 7807.86,284.246 7815.8,280.418C7829.5,273.818 7851,263.69 7889.85,258.192C7894.48,257.538 7902.19,255.876 7911.48,253.693C7940.22,246.932 7983.94,235.184 7997.67,232.727C8038.83,225.364 8063.29,222.154 8093.82,216.528C8111.49,213.271 8131.2,209.204 8157.37,203.051C8159.36,202.582 8160.8,202.426 8161.71,202.52C8162.41,202.591 8162.87,202.814 8163.16,203.09C8163.52,203.432 8163.68,203.876 8163.6,204.43C8163.52,205.082 8162.97,206.028 8161.88,207.159C8155.24,214.069 8075.03,274.885 8012.23,325.772C7986.53,346.601 7963.74,365.764 7950.14,378.873C7927.61,400.574 7896.5,419.872 7882.68,431.218C7879.46,433.863 7877.2,436.043 7876.27,437.719C7872.12,445.265 7870.97,453.267 7871.53,460.601C7872.23,469.709 7875.55,477.79 7879.02,482.689C7884.85,486.605 7892.65,489.18 7902.1,490.648C7912.66,492.288 7925.27,492.54 7939.52,491.692C7939.54,491.69 7939.57,491.69 7939.6,491.691C7988.3,493.91 8025.72,501.203 8055.57,511.476C8102.44,527.607 8130.69,551.087 8154.7,573.873C8165.71,584.318 8174.77,594.127 8181.32,604.061C8186.6,612.077 8190.26,620.179 8192.01,628.758C8194.26,639.809 8193.76,650.959 8191.13,662.05C8188.67,672.444 8184.32,682.785 8178.61,692.941C8170.16,707.961 8158.7,722.433 8145.16,736.128C8132.8,748.643 8118.7,760.509 8103.57,771.553C8103.25,771.788 8102.8,771.762 8102.51,771.491C8071.15,742.453 8036.7,722.346 8002.63,709.702C7961.32,694.368 7920.57,690.012 7886.62,694.024C7874.74,695.427 7863.67,697.91 7853.55,701.313C7842.15,705.148 7831.96,710.152 7823.2,716.096C7817.67,719.852 7812.71,723.983 7808.38,728.431C7803.75,733.188 7799.84,738.309 7796.72,743.721C7787.94,758.957 7783.17,778.465 7787.48,799.211C7790.81,815.282 7799.59,832.089 7816.13,848.238C7839.9,871.456 7869.96,885.009 7904.73,889.221C7934.47,892.824 7967.66,889.593 8003.3,879.735C8022.81,874.34 8042.59,867.202 8061.98,858.565C8080.91,850.133 8099.47,840.272 8117.04,829.209C8117.36,829.007 8117.77,829.047 8118.05,829.305C8131.68,842.036 8158.21,850.377 8185.62,853.226C8212.26,855.995 8239.74,853.572 8257.08,844.808C8293.49,826.409 8319.26,805.353 8338.87,772.886C8354.49,747.022 8366.21,713.931 8376.31,669.22C8386.48,624.154 8390.38,563.748 8386.04,499.44C8382.31,444.085 8372.48,385.839 8355.31,331.995C8348.31,310.072 8340.18,289.28 8330.61,268.664C8321.39,248.778 8310.82,229.057 8298.63,208.646C8296.66,205.345 8295.28,201.818 8293.52,198.491C8292.81,197.159 8292.04,195.859 8291.14,194.622C8288.86,193.474 8285.64,193.909 8282.79,195.635C8280.4,197.088 8278.26,199.473 8277.12,202.69C8276.54,204.311 8276.87,205.592 8277.68,206.826C8279.37,209.389 8282.85,211.774 8285.5,215.848C8299.2,236.94 8311.47,259.988 8321.93,283.362C8332.79,307.645 8341.69,332.278 8348.22,355.43C8361.01,400.754 8367.09,444.698 8368.41,487.34C8369.83,533.203 8365.75,577.559 8358.62,620.506C8348.79,679.768 8335.97,720.088 8318.45,750.427C8302.22,778.538 8281.95,798.096 8256.24,816.19C8242.62,825.782 8220.6,829.292 8199.06,828.451C8176.02,827.551 8153.54,821.679 8142.45,813.131C8142.25,812.972 8142.13,812.725 8142.13,812.464C8142.13,812.203 8142.26,811.958 8142.47,811.802C8159.72,798.972 8175.54,784.963 8189.38,770.213C8204.42,754.186 8217.13,737.285 8226.81,720.071C8258.38,663.978 8267.98,600.45 8216.26,546.099C8175.13,502.873 8095.38,465.48 7957.45,442.104L7957.18,442.407L7956.69,441.976L7955.93,441.847L7956.01,441.369L7955.93,441.298L7956.05,441.17L7956.21,440.204L7956.82,440.307C7961.73,434.811 7965.61,430.684 7970.21,426.022C7980.09,416.001 7993.27,403.498 8027.08,369.527C8036.66,359.9 8046.73,349.631 8057.32,338.748C8091.56,303.564 8131.25,261.961 8177.58,214.887C8180.79,211.628 8183.28,209.253 8185.49,207.241C8189.62,203.469 8192.75,200.98 8197.74,196.309C8198.14,195.931 8198.95,195.514 8199.91,195.118C8201.51,194.46 8203.6,193.811 8204.55,193.266C8204.6,193.239 8204.66,193.202 8204.7,193.171C8204.74,193.057 8204.8,192.951 8204.88,192.861C8205.19,192.527 8205.42,192.001 8205.61,191.362C8205.97,190.127 8206.13,188.503 8206.15,186.812C8206.18,183.857 8205.76,180.694 8205.03,179.018C8204.93,178.793 8204.83,178.6 8204.72,178.446C8204.68,178.388 8204.61,178.318 8204.57,178.279ZM8076.21,789.953C8076.44,789.811 8076.59,789.567 8076.61,789.299C8076.62,789.03 8076.51,788.769 8076.3,788.599C8054.62,770.922 8033.16,758.086 8011.85,749.114C7987.2,738.738 7962.74,733.527 7938.3,731.974C7913.53,730.4 7893.17,734.098 7877.6,741.664C7863.87,748.333 7853.86,758.008 7847.79,769.748C7841.38,782.175 7845.34,796.202 7854.58,808.592C7866.6,824.701 7887.51,838.023 7905.43,841.345C7917.73,843.624 7931.78,844.112 7947.86,841.776C7960.28,839.971 7973.9,836.48 7988.86,830.824C8010.78,822.54 8027.15,815.984 8042.38,808.641C8053.69,803.188 8064.37,797.302 8076.21,789.953ZM8074.34,789.153C8062.94,796.183 8052.59,801.865 8041.65,807.14C8026.46,814.464 8010.13,821.002 7988.27,829.265C7973.44,834.873 7959.93,838.337 7947.62,840.126C7931.75,842.433 7917.88,841.956 7905.73,839.706C7888.18,836.451 7867.7,823.38 7855.92,807.596C7847.09,795.758 7843.14,782.385 7849.27,770.513C7855.18,759.074 7864.95,749.661 7878.33,743.163C7893.68,735.701 7913.77,732.085 7938.19,733.637C7962.45,735.179 7986.74,740.35 8011.2,750.65C8032.09,759.441 8053.1,771.966 8074.34,789.153Z"/>
            </g>
        </g>
    </g>
</svg>
