<?xml version="1.0" encoding="UTF-8" standalone="no"?>
<!DOCTYPE svg PUBLIC "-//W3C//DTD SVG 1.1//EN" "http://www.w3.org/Graphics/SVG/1.1/DTD/svg11.dtd">
<svg width="100%" height="100%" viewBox="0 0 973 973" version="1.1" xmlns="http://www.w3.org/2000/svg" xmlns:xlink="http://www.w3.org/1999/xlink" xml:space="preserve" xmlns:serif="http://www.serif.com/" style="fill-rule:evenodd;clip-rule:evenodd;stroke-linejoin:round;stroke-miterlimit:2;">
    <g transform="matrix(1,0,0,1,-5131,-37)">
        <g id="bhi" transform="matrix(1,0,0,1,131.321,37.0651)">
            <rect x="5000" y="0" width="972.222" height="972.222" style="fill:none;"/>
            <g transform="matrix(1,0,0,1,-141.591,15.2183)">
                <path d="M5642.02,791.77C5642.19,791.698 5642.31,791.535 5642.32,791.349C5642.34,791.162 5642.12,790.979 5641.96,790.88C5630.61,783.836 5619.35,777.908 5608.17,772.979C5593.23,766.39 5578.63,761.758 5564.95,759.016C5541.14,754.242 5520.13,755.202 5505.04,761.543C5497.42,764.746 5492.13,769.861 5490.51,776.942C5488.92,783.861 5489.16,790.034 5494.55,800.816C5499.84,811.398 5513.63,815.656 5527.89,817.181C5558.65,820.47 5599.92,809.449 5642.02,791.77ZM5587.58,737.317C5584.9,736.361 5582.49,735.501 5583.27,735.767C5584.57,736.213 5586.02,736.731 5587.58,737.317C5592.07,738.92 5597.32,740.792 5589.58,738.077C5588.9,737.812 5588.23,737.558 5587.58,737.317ZM5501.03,187.242C5503.64,182.664 5471.85,180.478 5460.27,182.008C5420.17,187.306 5404.93,232.406 5444.12,245.47C5472.09,254.794 5495.63,196.725 5501.03,187.242ZM5811.2,195.077C5801.39,200.922 5744.56,210.621 5693.15,212.302C5683.64,212.613 5674.11,212.735 5664.71,212.573C5640.95,212.166 5618.24,209.722 5599.1,204.281C5585.74,200.484 5579.15,195.001 5566.72,187C5560.03,181.38 5551.95,173.595 5551.99,173.413C5552.49,171.194 5558.11,134.784 5557.47,120.064C5556.47,97.313 5551.55,78.549 5542.6,65.468C5539.69,61.231 5536.81,59.143 5533,54.651C5532.99,54.636 5532.97,54.627 5532.96,54.613C5532.96,54.613 5530.42,52.203 5530.42,52.203C5528.48,50.829 5523.36,57.857 5525.26,57.862C5527.66,59.15 5527.6,59.176 5528.14,59.694C5532.65,63.989 5535.64,73.28 5534.83,81.39C5533.56,94.049 5531.77,109.486 5526.44,125.993C5523.91,133.815 5520.6,141.484 5517.24,149.498C5517.19,149.625 5517.09,149.724 5516.96,149.773C5516.83,149.821 5516.69,149.814 5516.57,149.754C5491.31,137.439 5468.64,136.081 5449.98,140.376C5413.2,148.84 5389.15,180.715 5382.77,210.201C5378.64,229.3 5382.19,247.407 5391.54,260.146C5410.26,285.653 5431.58,293.501 5451.8,291.83C5476.8,289.763 5503.52,269.75 5523.89,238.39C5528.86,230.732 5533.67,222.488 5537.91,213.776C5537.98,213.634 5538.11,213.533 5538.27,213.504C5538.42,213.474 5538.58,213.519 5538.7,213.625C5538.7,213.625 5539.93,214.748 5539.93,214.748C5549.99,223.778 5562.81,230.879 5578.14,235.196C5602.79,242.141 5633.73,243.229 5665.84,240.052C5722.39,234.457 5773.78,221.983 5777.5,226.457C5780.33,229.856 5764.16,245.995 5755.04,253.911C5685.01,314.68 5489.33,437.675 5498.22,485.873C5501.76,505.098 5680.73,501.015 5760.13,565.592C5790.55,590.332 5799.37,593.935 5810.99,628.757C5819.78,655.113 5807.21,675.482 5783.94,700.805C5753.96,733.418 5712.95,758.288 5667.05,779.468C5647.89,763.576 5610.1,745.962 5589.58,738.077C5587.79,737.446 5585.3,736.57 5581.93,735.386C5548.67,723.677 5516.99,721.553 5494.83,728.034C5477.93,732.975 5465.69,742.907 5458.21,755.608C5449.04,771.154 5444.66,792.692 5455.41,819.192C5463.95,840.051 5485.02,853.271 5509.78,860.201C5532.07,866.438 5565.3,866.022 5596.99,860.581C5628.13,855.235 5657.87,844.982 5691.07,829.998C5691.26,829.913 5691.48,829.953 5691.63,830.1C5703.49,841.923 5712.43,852.565 5722.8,867.69C5729.94,878.119 5738.68,892.284 5744.76,904.321L5746.29,907.466C5746.29,907.466 5752.57,904.408 5752.57,904.408L5751.03,901.26C5744.04,886.136 5736.08,872.244 5727.93,859.157C5720.24,846.827 5712.07,835.386 5703.54,824.817C5703.44,824.698 5703.4,824.543 5703.44,824.394C5703.47,824.245 5703.57,824.12 5703.71,824.053C5703.71,824.053 5706.73,822.583 5706.73,822.583C5766.01,793.052 5819.26,749.773 5847.14,704.596C5867.07,672.285 5874.5,638.363 5865.91,605.519C5858.85,578.513 5840.7,551.463 5806.41,526.997C5761.14,494.686 5695.16,455.665 5574.6,455.985C5566.89,456.006 5567.47,446.708 5568.54,444.849C5594.55,420.507 5645.85,382.295 5692.22,340.443C5731.08,305.372 5791.57,242.235 5797.49,236.127C5811.95,221.205 5819.05,214.449 5823.68,211.951C5824.88,211.304 5827.79,209.974 5829.07,208.505C5832.35,204.73 5833.09,190.367 5828.49,188.645C5822.82,186.522 5820.27,189.679 5811.2,195.077Z"/>
                <path d="M5516.61,148.833C5505.23,143.323 5494.38,140.021 5484.18,138.445C5471.65,136.511 5460.11,137.174 5449.79,139.551C5432.05,143.633 5417.24,153.105 5405.91,165.134C5393.53,178.28 5385.31,194.481 5381.95,210.022C5379.97,219.156 5379.73,228.066 5381.03,236.285C5382.48,245.487 5385.85,253.824 5390.86,260.647C5390.86,260.647 5390.86,260.647 5390.86,260.647C5399.19,271.996 5408.03,279.878 5417.06,285.007C5428.57,291.548 5440.4,293.622 5451.87,292.674C5463.3,291.729 5475.1,287.084 5486.49,279.334C5500.22,269.994 5513.37,256.138 5524.6,238.851C5527.13,234.953 5529.62,230.904 5532.02,226.718C5534.27,222.782 5536.43,218.725 5538.47,214.561L5539.28,215.288C5539.31,215.32 5539.33,215.35 5539.36,215.378C5544.65,220.124 5550.69,224.343 5557.46,227.912C5563.68,231.193 5570.5,233.925 5577.91,236.011C5591,239.698 5605.85,241.744 5621.7,242.381C5635.82,242.947 5650.74,242.397 5665.92,240.895C5708.33,236.699 5747.84,228.634 5766.51,226.75C5770.46,226.352 5773.45,226.226 5775.32,226.491C5775.77,226.555 5776.15,226.64 5776.44,226.757C5776.62,226.827 5776.77,226.896 5776.85,226.999C5776.98,227.155 5777,227.373 5776.98,227.628C5776.94,228.08 5776.77,228.613 5776.49,229.217C5775.74,230.886 5774.24,233.007 5772.33,235.339C5767.41,241.348 5759.76,248.693 5754.48,253.272C5711.51,290.561 5621.23,351.282 5559.93,403.773C5537.59,422.907 5519.09,440.956 5508.1,456.384C5499.91,467.886 5495.9,477.989 5497.38,486.027C5497.69,487.711 5499.13,489.303 5501.68,490.718C5504.6,492.335 5509.03,493.802 5514.72,495.19C5547.3,503.141 5621.64,508.75 5685.87,529.375C5713.79,538.343 5739.81,550.15 5759.6,566.249C5777.89,581.124 5788.35,588.31 5796.3,599.315C5801.5,606.509 5805.62,615.339 5810.19,629.025C5813.95,640.317 5813.74,650.492 5810.39,660.439C5806.02,673.443 5796.35,686.048 5783.31,700.232C5767.85,717.061 5749.43,731.821 5728.92,745.074C5709.91,757.353 5689.11,768.338 5667.18,778.476C5659.53,772.21 5649.05,765.687 5637.9,759.607C5622.78,751.36 5606.44,743.923 5594.32,739.032C5594.24,738.891 5594.09,738.761 5593.83,738.657C5593.57,738.554 5590.58,737.487 5587.86,736.519C5587.88,736.523 5583.55,734.966 5583.55,734.966C5583.31,734.885 5583.09,734.825 5582.88,734.782L5582.8,734.763C5582.76,734.756 5582.72,734.748 5582.68,734.74L5582.61,734.726L5582.21,734.587C5567.22,729.31 5552.55,725.973 5538.92,724.484C5522.12,722.648 5506.9,723.622 5494.59,727.221C5486.42,729.61 5479.33,733.152 5473.32,737.599C5466.73,742.477 5461.45,748.444 5457.48,755.178C5452.3,763.953 5448.64,774.613 5448.29,786.978C5448.01,796.778 5449.82,807.653 5454.62,819.51C5454.62,819.511 5454.63,819.512 5454.63,819.513C5459.14,830.553 5467.12,839.49 5477.29,846.503C5486.55,852.887 5497.62,857.678 5509.56,861.017C5519.43,863.781 5531.44,865.25 5544.52,865.556C5561.08,865.944 5579.35,864.47 5597.13,861.415C5613.33,858.635 5629.15,854.53 5645.27,849.126C5660.14,844.141 5675.27,838.049 5691.2,830.868C5697.19,836.847 5702.43,842.528 5707.5,848.653C5712.36,854.532 5717.06,860.82 5722.1,868.168C5725.71,873.444 5729.73,879.678 5733.61,886.107C5737.38,892.353 5741.01,898.783 5744,904.698C5744,904.698 5745.53,907.837 5745.53,907.837C5745.73,908.258 5746.24,908.432 5746.66,908.228L5752.93,905.172C5752.93,905.172 5752.57,905.255 5752.57,905.255L5753.33,904.037L5751.8,900.897C5748.36,893.464 5744.69,886.327 5740.88,879.438C5736.92,872.281 5732.81,865.39 5728.65,858.709C5724.86,852.633 5720.95,846.773 5716.94,841.126C5712.89,835.407 5708.72,829.907 5704.47,824.624L5707.09,823.346L5707.09,823.346L5707.1,823.341C5735.2,809.345 5761.94,792.267 5785.28,773.363C5811.32,752.279 5833.12,728.922 5847.86,705.041C5857.55,689.332 5864.3,673.244 5867.71,657.084C5871.37,639.783 5871.2,622.399 5866.73,605.304C5862.79,590.257 5855.44,575.194 5843.81,560.568C5834.44,548.787 5822.29,537.288 5806.91,526.308C5779.93,507.055 5745.62,485.429 5696.84,471.121C5663.57,461.363 5623.58,455.008 5574.59,455.138C5571.74,455.146 5570.18,453.69 5569.43,451.877C5568.41,449.45 5568.7,446.435 5569.22,445.375C5588.46,427.384 5621.46,401.85 5656.06,372.88C5668.28,362.645 5680.7,351.982 5692.79,341.072C5705.65,329.466 5720.88,314.789 5735.71,300.12C5765.73,270.446 5794.14,240.805 5798.1,236.716C5805.88,228.687 5811.52,223.027 5815.8,219.125C5819.39,215.847 5821.99,213.825 5824.08,212.696C5824.84,212.292 5826.24,211.622 5827.52,210.82C5828.37,210.281 5829.17,209.679 5829.7,209.061C5830.44,208.218 5831.07,206.899 5831.55,205.305C5832.34,202.65 5832.72,199.213 5832.54,196.115C5832.4,193.692 5831.91,191.476 5831.05,189.961C5830.47,188.924 5829.7,188.195 5828.79,187.852C5826.42,186.966 5824.55,186.931 5822.59,187.539C5819.64,188.454 5816.47,190.956 5810.77,194.35L5810.77,194.35C5805.66,197.389 5787.75,201.44 5764.52,204.885C5743.27,208.038 5717.58,210.656 5693.12,211.455C5688.38,211.61 5683.65,211.718 5678.92,211.767C5674.17,211.817 5669.43,211.807 5664.73,211.727C5653.4,211.532 5642.31,210.874 5631.73,209.647C5620.2,208.309 5609.28,206.294 5599.33,203.466C5594.01,201.955 5589.78,200.174 5585.82,198.068C5579.91,194.926 5574.6,191.066 5567.22,186.318C5562.26,182.144 5556.54,176.786 5553.97,174.257C5553.49,173.79 5553.13,173.422 5552.9,173.181C5553.44,170.251 5555.69,155.583 5557.13,141.579C5557.98,133.321 5558.54,125.293 5558.31,120.027C5557.76,107.336 5555.98,95.878 5552.98,85.944C5550.56,77.919 5547.33,70.884 5543.29,64.99C5542.39,63.663 5541.48,62.542 5540.55,61.494C5538.48,59.173 5536.29,57.217 5533.65,54.104C5533.6,54.046 5533.48,53.949 5533.48,53.949C5533.48,53.949 5533.52,53.981 5533.54,53.999L5531.03,51.613L5531.01,51.597C5530.98,51.567 5530.94,51.539 5530.91,51.513C5530.28,51.062 5529.42,51.07 5528.49,51.549C5527.48,52.074 5526.33,53.195 5525.46,54.345C5524.59,55.502 5524.03,56.703 5524,57.367C5523.99,57.758 5524.11,58.06 5524.29,58.277C5524.45,58.478 5524.69,58.636 5525.02,58.69C5526.03,59.237 5526.56,59.535 5526.89,59.749C5527.22,59.96 5527.32,60.079 5527.56,60.307C5529.86,62.499 5531.73,66.053 5532.88,70.063C5533.91,73.649 5534.36,77.604 5533.99,81.305C5533.31,88.086 5532.48,95.666 5531.03,103.78C5529.79,110.757 5528.09,118.131 5525.63,125.732C5524.61,128.897 5523.46,132.037 5522.23,135.184C5520.47,139.685 5518.55,144.203 5516.61,148.833ZM5529.9,52.876L5532.38,55.228L5532.4,55.251C5535.03,58.347 5537.22,60.302 5539.28,62.62C5540.17,63.618 5541.03,64.684 5541.9,65.947C5546.73,73.016 5550.38,81.765 5552.85,91.917C5554.92,100.39 5556.17,109.837 5556.62,120.101C5556.85,125.307 5556.28,133.242 5555.45,141.406C5553.92,156.228 5551.49,171.801 5551.16,173.226C5551.14,173.324 5551.08,173.598 5551.31,173.93C5551.36,173.995 5551.46,174.122 5551.63,174.3C5552.05,174.753 5552.98,175.67 5554.23,176.868C5557.18,179.694 5561.95,184.101 5566.17,187.649C5566.2,187.672 5566.23,187.693 5566.26,187.712C5573.71,192.505 5579.07,196.395 5585.03,199.564C5589.08,201.721 5593.42,203.547 5598.87,205.095C5608.9,207.947 5619.91,209.98 5631.53,211.329C5642.16,212.563 5653.31,213.225 5664.7,213.42C5669.42,213.501 5674.17,213.511 5678.94,213.461C5683.68,213.412 5688.43,213.303 5693.17,213.148C5717.7,212.346 5743.46,209.722 5764.77,206.561C5788.32,203.068 5806.46,198.886 5811.63,195.805L5811.63,195.805C5817.17,192.511 5820.23,190.045 5823.09,189.157C5824.7,188.656 5826.25,188.708 5828.19,189.438C5828.91,189.707 5829.43,190.395 5829.83,191.298C5830.63,193.075 5830.94,195.652 5830.88,198.284C5830.79,202.188 5829.92,206.233 5828.43,207.949C5827.98,208.459 5827.32,208.943 5826.61,209.387C5825.38,210.165 5824.01,210.812 5823.28,211.205C5821.1,212.379 5818.39,214.467 5814.66,217.874C5810.36,221.792 5804.7,227.475 5796.89,235.538C5792.93,239.625 5764.52,269.254 5734.52,298.916C5719.7,313.566 5704.5,328.224 5691.65,339.815C5679.58,350.711 5667.18,361.36 5654.97,371.581C5620.28,400.626 5587.2,426.223 5567.96,444.231C5567.9,444.288 5567.85,444.353 5567.81,444.425C5567.13,445.597 5566.58,449.451 5567.86,452.53C5568.85,454.901 5570.86,456.842 5574.6,456.832C5623.39,456.703 5663.23,463.027 5696.36,472.746C5744.92,486.989 5779.07,508.522 5805.92,527.686C5821.16,538.564 5833.2,549.952 5842.48,561.622C5853.95,576.045 5861.21,590.895 5865.09,605.733C5869.5,622.571 5869.66,639.693 5866.06,656.734C5862.68,672.713 5856,688.619 5846.42,704.151C5831.77,727.886 5810.09,751.092 5784.22,772.047C5760.97,790.874 5734.33,807.883 5706.35,821.823L5703.34,823.292C5703.15,823.382 5702.99,823.511 5702.87,823.668C5702.74,823.825 5702.66,824.01 5702.61,824.21C5702.57,824.41 5702.57,824.615 5702.61,824.81C5702.66,825.005 5702.75,825.189 5702.88,825.349C5707.2,830.709 5711.44,836.294 5715.56,842.106C5719.55,847.726 5723.44,853.558 5727.21,859.605C5731.36,866.262 5735.45,873.127 5739.4,880.258C5743.19,887.115 5746.85,894.217 5750.27,901.616L5751.44,904.018L5746.68,906.334L5745.52,903.94C5742.51,897.988 5738.86,891.517 5735.06,885.232C5731.17,878.773 5727.12,872.511 5723.49,867.211C5718.43,859.816 5713.7,853.49 5708.81,847.573C5703.66,841.35 5698.33,835.581 5692.22,829.5C5692.03,829.302 5691.78,829.176 5691.51,829.129C5691.25,829.081 5690.97,829.111 5690.72,829.226C5674.77,836.424 5659.62,842.529 5644.73,847.52C5628.69,852.896 5612.96,856.98 5596.85,859.746C5579.17,862.781 5561.01,864.249 5544.56,863.863C5531.64,863.56 5519.77,862.116 5510.01,859.386C5498.27,856.1 5487.36,851.392 5478.25,845.109C5468.36,838.288 5460.59,829.61 5456.19,818.872C5451.49,807.265 5449.71,796.62 5449.98,787.025C5450.32,774.977 5453.89,764.589 5458.94,756.038C5462.79,749.496 5467.93,743.699 5474.33,738.96C5480.19,734.625 5487.1,731.175 5495.07,728.847C5507.19,725.301 5522.19,724.359 5538.74,726.167C5552.25,727.644 5566.79,730.954 5581.65,736.185L5589.29,738.871C5601.6,743.601 5620.12,751.835 5637.09,761.094C5648.34,767.227 5658.9,773.808 5666.51,780.12C5666.76,780.328 5667.11,780.374 5667.41,780.237C5689.59,770.003 5710.63,758.907 5729.84,746.497C5750.47,733.163 5769,718.31 5784.56,701.378C5797.79,686.987 5807.56,674.172 5812,660.979C5815.46,650.691 5815.69,640.168 5811.79,628.489C5807.16,614.589 5802.95,605.63 5797.67,598.323C5789.65,587.219 5779.12,579.942 5760.67,564.935C5740.72,548.713 5714.52,536.799 5686.38,527.762C5622.11,507.123 5547.72,501.501 5515.12,493.544C5509.62,492.202 5505.33,490.801 5502.5,489.237C5500.53,488.14 5499.29,487.025 5499.05,485.72C5497.63,478.016 5501.63,468.39 5509.48,457.366C5520.41,442.025 5538.81,424.087 5561.03,405.06C5622.33,352.567 5712.62,291.842 5755.59,254.551C5760.93,249.92 5768.66,242.49 5773.64,236.412C5776.11,233.394 5777.9,230.684 5778.47,228.788C5778.84,227.541 5778.69,226.564 5778.15,225.914C5777.74,225.413 5776.88,225.002 5775.56,224.814C5773.61,224.537 5770.47,224.648 5766.34,225.065C5747.67,226.949 5708.16,235.014 5665.75,239.209C5650.65,240.703 5635.82,241.252 5621.77,240.688C5606.06,240.058 5591.34,238.035 5578.37,234.381C5571.08,232.329 5564.36,229.642 5558.25,226.414C5551.61,222.912 5545.68,218.774 5540.5,214.117L5540.58,214.208L5539.27,213C5539.11,212.857 5538.93,212.755 5538.73,212.699C5538.53,212.642 5538.32,212.632 5538.11,212.672C5537.9,212.712 5537.71,212.8 5537.55,212.925C5537.38,213.051 5537.24,213.214 5537.15,213.405C5535.07,217.681 5532.85,221.843 5530.55,225.877C5528.17,230.035 5525.69,234.057 5523.18,237.929C5512.09,255.008 5499.1,268.706 5485.54,277.934C5474.41,285.504 5462.9,290.063 5451.73,290.986C5440.58,291.907 5429.09,289.892 5417.9,283.534C5409.05,278.507 5400.39,270.769 5392.22,259.645C5387.37,253.03 5384.11,244.944 5382.7,236.021C5381.44,227.997 5381.67,219.298 5383.6,210.38C5386.9,195.116 5394.99,179.207 5407.15,166.295C5418.26,154.499 5432.77,145.205 5450.17,141.202C5460.3,138.869 5471.63,138.221 5483.92,140.119C5494.07,141.687 5504.87,144.992 5516.19,150.515C5516.36,150.597 5516.54,150.642 5516.72,150.65C5516.9,150.659 5517.09,150.63 5517.26,150.565C5517.43,150.5 5517.59,150.4 5517.72,150.274C5517.85,150.148 5517.95,149.996 5518.03,149.825C5520.02,145.064 5522,140.424 5523.81,135.801C5525.05,132.621 5526.21,129.45 5527.24,126.253C5529.73,118.574 5531.44,111.126 5532.7,104.078C5534.15,95.916 5534.99,88.294 5535.67,81.474C5536.06,77.563 5535.6,73.385 5534.51,69.595C5533.27,65.266 5531.21,61.448 5528.72,59.081C5528.4,58.77 5528.26,58.616 5527.81,58.327C5527.45,58.096 5526.88,57.769 5525.75,57.164C5526.07,56.137 5527.44,54.366 5528.71,53.414C5528.99,53.2 5529.28,53.029 5529.54,52.935C5529.68,52.886 5529.8,52.83 5529.9,52.876ZM5642.35,792.551C5642.58,792.453 5642.78,792.295 5642.92,792.098C5643.06,791.902 5643.15,791.667 5643.17,791.415C5643.19,791.185 5643.13,790.951 5643,790.734C5642.86,790.505 5642.61,790.289 5642.4,790.161C5636.84,786.707 5631.3,783.521 5625.78,780.589C5620,777.521 5614.25,774.732 5608.52,772.205C5601.31,769.027 5594.18,766.303 5587.2,764.025C5579.64,761.56 5572.26,759.616 5565.12,758.186C5554.32,756.022 5544.1,755.03 5534.74,755.176C5523.27,755.355 5513.09,757.242 5504.71,760.763C5500.95,762.343 5497.74,764.38 5495.24,766.871C5492.48,769.614 5490.56,772.906 5489.68,776.752C5488.73,780.871 5488.42,784.733 5489.4,789.404C5490.1,792.772 5491.48,796.567 5493.79,801.195C5496.16,805.941 5500.18,809.469 5505.18,812.058C5511.58,815.373 5519.61,817.147 5527.8,818.023C5541.68,819.507 5557.69,818.1 5574.95,814.483C5596.08,810.055 5619.09,802.318 5642.35,792.551ZM5640.99,791.281C5618.08,800.865 5595.43,808.462 5574.61,812.825C5557.54,816.402 5541.71,817.806 5527.98,816.339C5520.01,815.487 5512.19,813.78 5505.95,810.554C5501.29,808.137 5497.52,804.867 5495.31,800.438C5493.07,795.97 5491.73,792.31 5491.06,789.058C5490.14,784.655 5490.44,781.014 5491.33,777.131C5492.14,773.604 5493.9,770.588 5496.43,768.073C5498.8,765.725 5501.82,763.814 5505.37,762.324C5513.57,758.877 5523.54,757.045 5534.77,756.87C5544.02,756.726 5554.12,757.708 5564.78,759.847C5571.86,761.265 5579.18,763.191 5586.68,765.635C5593.61,767.896 5600.68,770.6 5607.83,773.754C5613.53,776.265 5619.24,779.037 5624.98,782.085C5630.3,784.909 5635.64,787.97 5640.99,791.281ZM5501.77,187.662C5502.39,186.567 5501.97,185.435 5500.34,184.528C5498.47,183.49 5494.72,182.616 5490.15,181.982C5480.43,180.631 5466.9,180.278 5460.16,181.169C5440.81,183.726 5427.16,195.415 5422.37,208.39C5419.41,216.425 5419.82,224.959 5424.32,232.195C5427.98,238.07 5434.34,243.103 5443.85,246.274C5452.68,249.216 5461.1,245.733 5468.67,239.099C5485.41,224.431 5497.99,194.279 5501.77,187.662ZM5500.29,186.823C5497.03,192.555 5487.12,216.106 5473.61,231.678C5465.06,241.529 5455.09,248.233 5444.39,244.667C5435.33,241.648 5429.24,236.895 5425.76,231.3C5421.54,224.515 5421.18,216.511 5423.96,208.977C5428.57,196.489 5441.75,185.309 5460.38,182.848C5466.09,182.093 5476.75,182.255 5485.72,183.16C5491.3,183.724 5496.22,184.566 5498.83,185.677C5499.36,185.904 5499.79,186.136 5500.08,186.387C5500.25,186.533 5500.39,186.656 5500.29,186.823Z"/>
            </g>
        </g>
    </g>
</svg>
