<?xml version="1.0" encoding="UTF-8" standalone="no"?>
<!DOCTYPE svg PUBLIC "-//W3C//DTD SVG 1.1//EN" "http://www.w3.org/Graphics/SVG/1.1/DTD/svg11.dtd">
<svg width="100%" height="100%" viewBox="0 0 973 973" version="1.1" xmlns="http://www.w3.org/2000/svg" xmlns:xlink="http://www.w3.org/1999/xlink" xml:space="preserve" xmlns:serif="http://www.serif.com/" style="fill-rule:evenodd;clip-rule:evenodd;stroke-linejoin:round;stroke-miterlimit:2;">
    <g transform="matrix(1,0,0,1,-8738,-33)">
        <g id="ubh" transform="matrix(1,0,0,1,-11.7828,33.7602)">
            <rect x="8750" y="0" width="972.222" height="972.222" style="fill:none;"/>
            <g transform="matrix(1,0,0,1,11.7828,-4.90478)">
                <path d="M9286.2,766.634C9225.78,733.62 9178.13,718.092 9141.69,714.355C9106.68,710.765 9084.92,717.943 9076.9,734.487C9067.91,753.038 9078.11,777.448 9098.92,792.458C9106.93,798.229 9118.1,800.779 9131.03,801.854C9150.09,803.44 9172.43,801.204 9196.17,796.194C9225.2,790.068 9256.32,779.861 9286.2,766.634ZM9390.4,202.984C9403.21,200.215 9416.64,197.84 9416.51,201.199C9416.44,202.721 9415.08,203.169 9413.55,204.236C9307.34,278.296 9237.2,343.807 9187.77,383.178C9158.06,406.844 9137.43,424.637 9125.48,435.61L9105.36,455.889L9131.55,490.388L9135.23,493.083L9163.32,497.828C9299.66,520.854 9377.34,552.055 9413.34,588.839C9424.96,600.707 9431.31,612.769 9432.36,625.223C9433.51,638.926 9428.49,652.53 9420.11,665.884C9403.17,692.852 9373.53,718.155 9338.42,739.485C9289.1,707.801 9246.65,686.823 9210.66,674.077C9155.07,654.388 9113.04,653.916 9083.75,662.501C9047.64,673.085 9027.53,697.21 9020.06,724.458C9009.61,762.569 9025.55,809.8 9065.59,838.676C9095.27,860.08 9148.22,864.549 9207.93,851.948C9252.21,842.604 9300.26,824.524 9343.79,801.028C9365.58,815.05 9388.72,831.043 9413.26,849.179C9436.88,866.451 9460.8,870.158 9481.88,867.367C9516.96,862.721 9529.02,850.644 9541.35,844.252C9560.76,834.191 9586.99,798.954 9581.14,768.837C9562.24,671.562 9544.74,630.37 9540.48,453.695C9539.83,427.045 9539.78,397.445 9540.27,374.57C9541.23,330.804 9545.54,293.815 9545.62,259.704C9545.67,240.2 9551.57,199.022 9549.09,188.973C9548.46,186.447 9535.81,186.697 9530.79,187.799C9524.62,187.493 9527.75,207.525 9527.87,214.297C9528.27,235.651 9515.5,357.89 9514.76,408.218C9512.24,578.794 9545.71,753.102 9541.32,774.152C9536,799.677 9527.03,802.166 9515.67,810.842C9502.73,820.712 9485.94,824.154 9477.23,824.91C9465.8,825.902 9453.04,823.183 9440.72,813.313C9422.67,798.973 9405.3,785.814 9388.6,773.753C9422.63,750.364 9451.03,723.784 9468.36,696.193C9483.87,671.494 9491.27,645.792 9489.14,620.446C9487.11,596.297 9476.59,571.996 9454.06,548.983C9413.33,507.365 9333.74,477.913 9179.48,451.861L9177.51,449.291C9197.45,432.659 9223.75,417.361 9265.89,375.02C9306.45,334.271 9355.26,281.549 9416.39,220.376C9425.57,211.191 9436.09,199.432 9443.2,194.648C9444.62,193.692 9447.84,191.068 9448.01,189.945C9447.01,185.859 9445.43,181.682 9442.29,180.653C9441.13,178.897 9437.32,181.153 9433.93,182.186C9423.51,185.359 9392.77,187.873 9378.44,190.135C9338.56,196.429 9289.71,190.816 9212.28,201.831C9125.42,214.189 9080.63,190.133 9067.76,212.493C9059.28,227.229 9057.79,240.015 9065.31,264.15C9071.06,282.578 9118.21,255.834 9172.95,242.34C9289.48,213.614 9350.67,211.572 9390.4,202.984Z" style="stroke:black;stroke-width:1.67px;"/>
            </g>
        </g>
    </g>
</svg>
