<?xml version="1.0" encoding="UTF-8" standalone="no"?>
<!DOCTYPE svg PUBLIC "-//W3C//DTD SVG 1.1//EN" "http://www.w3.org/Graphics/SVG/1.1/DTD/svg11.dtd">
<svg width="100%" height="100%" viewBox="0 0 974 973" version="1.1" xmlns="http://www.w3.org/2000/svg" xmlns:xlink="http://www.w3.org/1999/xlink" xml:space="preserve" xmlns:serif="http://www.serif.com/" style="fill-rule:evenodd;clip-rule:evenodd;stroke-linejoin:round;stroke-miterlimit:2;">
    <g transform="matrix(1,0,0,1,-6255,-22)">
        <g id="aikh" transform="matrix(-1,0,0,1,7228.16,22.0509)">
            <rect x="0" y="0" width="972.222" height="972.222" style="fill:none;"/>
            <g transform="matrix(-1.06185,0.0102874,-0.00572841,-0.591281,775.205,703.313)">
                <path d="M503.212,584.062C541.974,585.37 564.863,432.949 567.356,440.394C572.085,435.506 603.234,452.444 609.972,465.372C619.962,471.323 557.387,631.563 496.99,688.333C489.971,760.234 477.001,835.249 456.63,912.808C445.283,956.012 415.042,973.594 383.676,955.079C354.419,937.808 327.384,890.707 325.292,832.456C324.18,801.5 329.482,765.859 347.359,729.155C364.376,694.218 395.539,655.56 447.858,618.322C451.013,558.31 449.576,501.07 444.772,447.025C435.436,342.001 413.317,249.21 387.688,171.327C370.748,119.849 352.251,74.824 334.564,37.401C355.971,158.405 362.842,295.375 355.463,429.774C350.077,527.857 337.155,624.348 317.2,712.168C295.686,806.845 266.113,891.596 228.133,956.785C223.328,965.107 216.034,966.704 210.256,960.699C204.478,954.694 201.615,942.541 203.239,930.912C238.191,673.669 248.339,414.082 205.266,210.859C181.21,97.363 140.104,2.403 77.458,-63.444C91.728,-7.112 109.274,68.395 123.472,148.777C136.638,223.309 146.926,301.888 149.207,374.121C151.411,488.596 139.048,593.49 116.869,682.29C89.964,790.01 74.1,879.491 23.324,953.645C-8.583,1000.24 -7.81,1001.9 -7.81,1001.9C-16.819,991.12 -49.528,1008.6 -60.569,962.694C-61.046,927.809 -40.449,903.915 -8.526,851.983C18.908,794.158 45.841,730.814 67.927,642.779C87.116,566.294 97.839,475.942 96.122,377.258C95.725,295.586 84.368,203.845 69.902,121.77C45.763,-15.177 7.864,-103.983 12.432,-121.986C14.543,-130.306 20.069,-120.172 25.911,-131.899C31.753,-143.626 47.294,-150.458 55.453,-144.723C159.116,-69.266 205.982,27.317 238.335,188.88C275.424,374.088 272.704,601.742 246.462,833.499C289.396,720.154 314.168,573.676 319.989,424.476C321.999,372.968 321.734,321.133 319.181,270.243C312.418,135.487 289.605,7.355 250.468,-90.521C239.331,-118.346 248.038,-128.005 251.43,-135.915C255.391,-145.152 259.964,-156.397 273.135,-151.873C278.044,-150.186 291.186,-151.773 306.28,-131.676C350.279,-73.094 440.126,85.524 481.569,311.535C496.709,394.101 505.358,485.54 503.212,584.062ZM409.675,865.624C406.364,864.959 398.683,863.015 394.145,858.727C386.755,851.743 379.213,841.175 378.828,825.829C378.294,804.616 388.995,783.773 411.079,757.76C418.434,749.097 426.911,740.423 436.63,731.782C430.299,775.276 421.444,819.933 409.675,865.624Z"/>
            </g>
        </g>
    </g>
</svg>
