<?xml version="1.0" encoding="UTF-8" standalone="no"?>
<!DOCTYPE svg PUBLIC "-//W3C//DTD SVG 1.1//EN" "http://www.w3.org/Graphics/SVG/1.1/DTD/svg11.dtd">
<svg width="100%" height="100%" viewBox="0 0 974 973" version="1.1" xmlns="http://www.w3.org/2000/svg" xmlns:xlink="http://www.w3.org/1999/xlink" xml:space="preserve" xmlns:serif="http://www.serif.com/" style="fill-rule:evenodd;clip-rule:evenodd;stroke-linejoin:round;stroke-miterlimit:2;">
    <g transform="matrix(1,0,0,1,-5005,-22)">
        <g id="alh" transform="matrix(1,0,0,1,5005.93,22.0509)">
            <rect x="0" y="0" width="972.222" height="972.222" style="fill:none;"/>
            <g transform="matrix(1.06144,0.0313062,0.0174325,-0.591052,192.59,697.332)">
                <path d="M423.306,188.144C429.213,264.907 428.965,343.894 422.788,421.745C408.254,604.896 361.478,781.272 287.2,905.108C282.049,914.028 274.231,915.74 268.037,909.303C261.844,902.866 258.775,889.839 260.516,877.375C270.7,807.162 279.489,738.371 285.448,671.406C301.285,493.447 300.124,329.618 270.559,194.574C249.21,97.054 212.386,15.404 156.042,-45.748C165.459,-15.92 175.44,18.853 184.624,57.072C201.826,128.653 216.126,212.087 218.905,298.469C219.97,330.652 219.982,362.117 218.617,392.699C215.135,470.737 203.824,542.764 187.914,606.559C161.042,714.305 152.87,742.14 105.402,812.595C92.274,832.08 75.093,851.136 49.244,873.384C33.504,885.828 14.683,809.659 21.852,790.519C36.112,763.525 66.042,734.247 93.899,690.995C125.77,641.511 136.084,582.423 147.786,520.416C158.511,463.589 161.751,450.507 165.83,383.705C167.458,357.037 168.616,329.638 168.515,301.447C168.558,264.714 166.497,228.286 162.314,193.325C157.821,155.774 151.167,119.982 143.962,86.871C118.789,-28.804 84.853,-111.204 84.853,-111.204C79.392,-123.979 80.988,-147.216 93.877,-148.586C124.917,-151.886 116.687,-156.329 135.508,-155.991C158.281,-155.582 270.819,26.945 301.161,173.561C331.034,317.906 331.386,490.805 314.994,679.78C312.237,711.561 309.098,743.827 305.558,776.488C346.944,670.55 372.167,542.599 379.86,412.172C389.735,244.745 370.3,72.92 316.903,-60.623C309.712,-78.985 307.583,-98.687 307.795,-104.05C308.796,-129.434 313.87,-135.883 326.154,-136.066C332.323,-136.158 352.046,-137.647 360.513,-130.264C364.362,-126.908 370.57,-115.028 376.134,-98.912C403.858,-18.612 486.788,140.358 516.209,359.923C529.01,455.452 528.691,556.486 518.27,665.588C510.034,751.823 487.587,841.721 467.204,934.193C453.443,996.62 438.786,1049.23 421.378,1071.75C391.23,1061.72 357.813,1025.05 365.607,986.606C394.166,1008.33 490.971,681.645 473.61,485.778C463.76,374.639 447.552,272.732 423.306,188.144Z"/>
            </g>
        </g>
    </g>
</svg>
