<?xml version="1.0" encoding="UTF-8" standalone="no"?>
<!DOCTYPE svg PUBLIC "-//W3C//DTD SVG 1.1//EN" "http://www.w3.org/Graphics/SVG/1.1/DTD/svg11.dtd">
<svg width="100%" height="100%" viewBox="0 0 973 973" version="1.1" xmlns="http://www.w3.org/2000/svg" xmlns:xlink="http://www.w3.org/1999/xlink" xml:space="preserve" xmlns:serif="http://www.serif.com/" style="fill-rule:evenodd;clip-rule:evenodd;stroke-linejoin:round;stroke-miterlimit:2;">
    <rect id="Kha" x="0" y="0" width="972.222" height="972.222" style="fill:none;"/>
    <g id="Kha1" serif:id="Kha">
        <g transform="matrix(1.06144,0.0313062,0.0174325,-0.591052,192.59,697.332)">
            <path d="M395.911,-46.588C430.42,40.291 436.964,103.012 442.208,169.525C448.53,249.713 446.582,320.632 438.396,423.273C430.99,516.145 414.668,608.016 389.271,692.919C364.743,774.915 331.916,850.26 292.82,915.572C285.068,928.996 273.302,931.572 263.982,921.886C254.662,912.199 250.044,892.595 252.664,873.838C275.17,729.419 290.947,590.722 293.017,463.081C294.6,365.512 288.663,274.502 271.848,193.689C260.133,137.387 243.044,86.156 220.147,41.074C200.809,2.999 177.187,-30.455 148.949,-59.07C159.793,-26.282 171.736,13.749 182.51,58.622C199.58,129.721 212.938,197.241 217.156,291.055C219.954,353.27 202.758,519.093 192.149,565.286C175.216,639.011 151.777,691.498 112.495,777.399C66.038,878.989 51.126,884.186 51.126,884.186C34.878,874.307 11.344,805.087 21.852,790.519L57.065,762.562C95.743,721.329 150.224,517.447 154.767,490.887C164.706,432.786 171.299,369.398 171.428,301.275C170.877,224.636 159.903,149.763 146.076,85.321C121.07,-31.222 87.095,-114.295 87.095,-114.295C82.407,-125.263 82.364,-140.497 86.99,-151.55C91.616,-162.602 99.777,-166.763 106.946,-161.724C165.254,-119.237 209.526,-62.62 242.721,4.618C267.758,55.335 286.331,112.268 299.873,174.445C318.755,261.145 327.499,358.213 328.375,463.533C329.059,545.811 325.056,633.012 317.438,723.661C326.3,699.118 334.41,673.858 341.786,648.095C363.492,572.282 378.729,491.76 385.279,409.613C392.533,318.621 401.151,251.37 393.685,174.188C387.824,113.597 372.506,41.085 335.778,-14.781C313.315,-48.95 297.508,-90.188 300.21,-109.233C309.803,-132.089 322.539,-150.424 343.464,-156.984C363.449,-145.08 374.014,-101.718 395.911,-46.588Z"/>
        </g>
    </g>
</svg>
