<?xml version="1.0" encoding="UTF-8" standalone="no"?>
<!DOCTYPE svg PUBLIC "-//W3C//DTD SVG 1.1//EN" "http://www.w3.org/Graphics/SVG/1.1/DTD/svg11.dtd">
<svg width="100%" height="100%" viewBox="0 0 973 973" version="1.1" xmlns="http://www.w3.org/2000/svg" xmlns:xlink="http://www.w3.org/1999/xlink" xml:space="preserve" xmlns:serif="http://www.serif.com/" style="fill-rule:evenodd;clip-rule:evenodd;stroke-linejoin:round;stroke-miterlimit:2;">
    <g transform="matrix(1,0,0,1,-1417,-45)">
        <g id="Khai" transform="matrix(1,0,0,1,1417.42,45.1327)">
            <rect x="0" y="0" width="972.222" height="972.222" style="fill:none;"/>
            <g transform="matrix(1.06144,0.0313062,0.0174325,-0.591052,282.791,668.721)">
                <path d="M343.591,93.679C297.488,124.987 259.632,116.713 233.495,92.551C191.23,53.481 173.542,-28.187 184.883,-96.172C192.023,-138.967 210.35,-178.218 243.087,-198.007C283.918,-222.689 318.831,-200.19 346.223,-142.954C357.939,-118.471 368.293,-86.729 376.794,-49.298C390.537,-67.938 419.924,-120.911 431.276,-150.366C446.991,-191.141 458.619,-215.893 464.082,-216.466C488.223,-205.825 499.169,-179.257 503.735,-149.472C495.482,-119.985 449.436,-21.585 437.369,-10.099C413.033,18.222 413.75,22.953 393.027,47.486C399.149,99.081 402.641,156.563 403.01,216.774C404.609,477.785 350.109,788.3 229.313,899.814C223.481,905.475 216.362,904.67 210.971,897.739C205.58,890.809 202.861,878.966 203.965,867.227C216.267,745.769 223.535,634.199 223.205,530.932C222.954,452.322 218.382,378.63 209.368,309.412C194.671,196.546 167.823,95.744 126.964,3.82C128.616,11.327 130.248,18.984 131.85,26.778C146.495,97.996 158.574,180.584 161.051,265.264C162.983,317.715 162.599,370.314 159.112,421.427C153.534,503.199 140.56,580.771 123.281,648.414C99.427,741.802 75.727,777.359 49.469,828.802C33.575,859.942 18.006,882.583 3.297,882.711C-18.788,861.902 -20.435,829.63 -24.094,799.847C-16.157,759.973 20.765,743.718 39.235,713.674C50.408,695.5 55.065,685.345 58.359,674.59C62.215,661.999 64.317,647.859 74.538,608.12C89.865,548.53 100.265,479.923 106.619,408.162C110.674,362.371 113.548,315.401 113.556,268.071C112.99,191.797 103.686,116.781 91.778,51.92C70.032,-66.531 40.206,-151.668 40.206,-151.668C35.033,-165.935 36.437,-184.847 43.51,-196.182C50.584,-207.516 61.206,-207.875 68.512,-197.027C162.723,-53.58 216.015,107.186 239.119,297.337C247.991,370.355 252.327,447.715 253.056,530.354C253.812,616.055 250.767,707.493 243.851,805.51C310.847,701.439 342.861,515.87 350.153,338.028C353.101,266.107 351.723,195.329 346.889,131.07C345.93,118.321 344.836,105.836 343.591,93.679ZM330.039,0.68C312.433,14.01 296.536,19.249 282.483,17.996C258.237,15.834 241.485,-8.032 236.551,-37.537C231.985,-64.843 239.756,-94.316 260.206,-106.678C283.497,-120.757 301.303,-96.646 315.121,-56.198C320.789,-39.609 325.751,-20.486 330.039,0.68Z"/>
            </g>
        </g>
    </g>
</svg>
