<?xml version="1.0" encoding="UTF-8" standalone="no"?>
<!DOCTYPE svg PUBLIC "-//W3C//DTD SVG 1.1//EN" "http://www.w3.org/Graphics/SVG/1.1/DTD/svg11.dtd">
<svg width="100%" height="100%" viewBox="0 0 973 973" version="1.1" xmlns="http://www.w3.org/2000/svg" xmlns:xlink="http://www.w3.org/1999/xlink" xml:space="preserve" xmlns:serif="http://www.serif.com/" style="fill-rule:evenodd;clip-rule:evenodd;stroke-linejoin:round;stroke-miterlimit:2;">
    <g transform="matrix(1,0,0,1,-2533,-32)">
        <g id="khi" transform="matrix(1,0,0,1,2533.61,32.3927)">
            <rect x="0" y="0" width="972.222" height="972.222" style="fill:none;"/>
            <g transform="matrix(1.13236,0.0333979,0.0174325,-0.591052,162.994,696.459)">
                <path d="M50.952,742.965C26.723,783.04 10.694,849.554 13.67,896.205C15.686,927.798 48.126,985.943 45.949,1012.42C30.626,1055.01 8.947,1034.92 0.193,1032.87C-24.496,982.336 -23.346,953.74 -25.842,911.092C-29.827,843.002 18.613,676.775 27.461,658.398C5.822,569.199 5.902,504.737 13.993,461.803C30.88,372.194 85.179,355.233 122.326,392.457C141.204,411.375 154.937,444.248 158.841,484.89C161.781,515.494 159.162,552.008 146.271,592.1C135.492,625.627 116.162,663.746 84.764,703.93C86.934,711.128 89.097,717.912 91.248,724.296C96.232,739.084 101.072,751.716 105.802,762.266C108.352,767.952 110.835,773.051 113.27,777.547C118.627,787.435 123.489,794.489 127.934,798.57C129.117,799.656 130.624,800.623 131.704,801.241C190.519,644.686 214.935,479.756 210.717,328.388C205.74,149.794 161.39,-8.811 91.854,-110.902C86.14,-119.277 84.478,-134.392 87.941,-146.472C91.405,-158.552 98.956,-163.971 105.709,-159.224C206.703,-91.969 269.201,19.27 304.456,158.397C336.803,286.046 346.141,438.355 338.546,605.269C336.936,640.648 334.529,676.67 331.433,713.241C364.12,619.191 387.893,524.977 393.945,416.926C403.173,252.159 412.171,116.428 339.298,-16.703C319.927,-52.092 298.987,-92.94 294.833,-113.461C285.556,-161.767 311.12,-160.135 338.431,-162.658C363.132,-139.119 373.526,-91.991 387.987,-54.357C451.927,112.042 453.926,213.31 443.292,403.163C432.805,590.395 379.068,827.949 305.067,938.391C293.837,955.15 283.523,924.987 274.013,913.851C264.503,902.715 262.24,877.619 265.121,856.991C282.853,736.34 291.982,635.733 295.495,526.337C299.473,402.45 293.052,288.072 270.215,188.769C250.613,103.531 219.299,29.751 173.83,-29.647C212.187,70.177 235.599,192.546 240.212,324.994C245.988,490.843 222.428,673.107 159.265,847.623C150.007,873.268 124.179,889.1 92.153,838.574C79.788,819.067 65.639,788.363 50.952,742.965ZM62.858,617.076C51.055,560.221 49.236,519.767 55.178,492.488C62.584,458.484 84.42,460.619 98.506,475.999C103.841,481.823 108.433,490.185 109.512,501.914C110.569,513.408 108.326,526.453 103.474,541.47C95.825,565.145 82.754,590.424 62.858,617.076Z"/>
            </g>
        </g>
    </g>
</svg>
