<?xml version="1.0" encoding="UTF-8" standalone="no"?>
<!DOCTYPE svg PUBLIC "-//W3C//DTD SVG 1.1//EN" "http://www.w3.org/Graphics/SVG/1.1/DTD/svg11.dtd">
<svg width="100%" height="100%" viewBox="0 0 974 973" version="1.1" xmlns="http://www.w3.org/2000/svg" xmlns:xlink="http://www.w3.org/1999/xlink" xml:space="preserve" xmlns:serif="http://www.serif.com/" style="fill-rule:evenodd;clip-rule:evenodd;stroke-linejoin:round;stroke-miterlimit:2;">
    <g transform="matrix(1,0,0,1,-8755,-22)">
        <g id="uk" transform="matrix(1,0,0,1,8755.93,22.0509)">
            <rect x="0" y="0" width="972.222" height="972.222" style="fill:none;"/>
            <g transform="matrix(1,0,0,1,-8755.93,-22.0509)">
                <path d="M9087.24,725.237C9125.95,667.228 9147.79,596.984 9149.76,520.87C9152.2,426.214 9123.67,322.359 9057.9,221.771C9047.26,205.507 9016.8,194.074 8977.6,224.366C8963.04,235.62 8946.12,253.437 8928.26,280.07C8852.99,291.68 8909.1,200.693 8878.82,204.499C8871.5,205.419 8872.11,200.52 8866.16,197.615C8859.75,194.49 8861.54,190.508 8850.56,185.557C8837.07,176.788 8841.27,248.433 8852.26,274.038C8864.42,302.378 8879.72,317.61 8899.84,329.074C8863.51,402.352 8874.92,449.336 8896.76,474.409C8923.4,504.992 8971.09,509.135 9005.86,491.501C9027.44,480.553 9043.71,461.775 9048.76,437.8C9052.56,419.784 9050.23,398.119 9036.3,373.993C9024.94,354.328 9004.48,331.797 8971.15,307.674C8984.9,284.836 8997.99,269.545 9009.8,260.423C9013.48,257.584 9018.17,253.66 9021.34,252.011C9081.61,341.704 9109.3,434.711 9108.77,520.214C9108.14,622.563 9067.32,713.939 8994.83,774.813C8994.83,774.813 8978.86,787.322 8978.86,787.322C8971.74,792.44 8969.53,802.04 8973.68,809.759C8977.83,817.478 8987.06,820.921 8995.25,817.806C9104.84,775.494 9170.78,701.832 9205.93,609.927C9235.67,532.173 9242.94,441.041 9235.09,344.145C9232.45,311.672 9228.22,278.544 9222.55,245.081C9263.37,311.01 9286.21,393.903 9291.25,477.959C9297.87,588.35 9273.53,701.093 9216.21,779.922C9203.24,797.885 9211.45,811.692 9215.37,816.819C9219.98,822.835 9228.78,829.982 9244.16,827.1C9249.53,826.094 9262.36,820.532 9278.89,808.344C9325.82,773.755 9421.22,679.802 9466.09,546.113C9482.45,497.384 9492.15,443.405 9490.48,385.149C9510.72,391.482 9523.49,410.577 9543.84,425.569C9565.27,441.363 9571.12,448.955 9572.2,462.434C9590.18,508.312 9627.6,501.965 9650.45,498.206C9668.04,494.769 9655.51,470.402 9638.41,450.801C9625.86,436.425 9620.77,421.332 9607.49,406.11C9586.78,382.385 9512.01,328.327 9484.53,323.447C9477.54,280.877 9464.24,236.404 9443.06,190.335C9431.25,164.672 9399.24,153.965 9365.83,164.591C9334.66,174.502 9305.69,202.074 9303.13,236.494C9301.77,254.787 9307.2,275.915 9325.97,297.802C9343.84,318.637 9376.72,341.82 9432.08,364.378C9435.08,399.89 9433.23,433.719 9427.8,465.622C9411.14,563.415 9361.21,643.115 9314.65,697.525C9336.02,628.369 9343.41,550.88 9336.78,474.615C9326.22,353.111 9280.62,235.131 9202.38,160.253C9196.55,154.524 9187.63,153.349 9180.52,157.374C9173.41,161.398 9169.83,169.646 9171.74,177.591C9186.13,234.817 9197.05,291.798 9202.22,347.014C9210.78,438.533 9204.49,525.047 9176.14,598.479C9157.21,647.513 9128.23,690.527 9087.24,725.237ZM8945.23,358.635C8936.35,379.553 8932.4,396.92 8932.08,411.169C8931.82,422.515 8934.07,431.128 8939.19,436.883C8949.2,448.139 8967.13,447.288 8980.03,440.71C8986.17,437.579 8991.57,432.878 8993,426.049C8994.43,419.308 8992.17,411.515 8986.95,402.488C8979.09,388.871 8965.64,374.231 8945.23,358.635ZM9392.93,217.751C9389.41,218.11 9381.24,219.181 9376.4,221.669C9368.51,225.723 9360.44,231.894 9359.94,240.964C9359.25,253.501 9370.5,265.935 9393.8,281.543C9401.56,286.744 9410.52,291.962 9420.79,297.172C9414.31,271.385 9405.16,244.888 9392.93,217.751ZM9021.88,251.749C9023.48,253.305 9024.99,254.255 9024.85,252.439C9024.73,250.974 9023.58,250.951 9021.88,251.749Z"/>
            </g>
        </g>
    </g>
</svg>
