<?xml version="1.0" encoding="UTF-8" standalone="no"?>
<!DOCTYPE svg PUBLIC "-//W3C//DTD SVG 1.1//EN" "http://www.w3.org/Graphics/SVG/1.1/DTD/svg11.dtd">
<svg width="100%" height="100%" viewBox="0 0 973 973" version="1.1" xmlns="http://www.w3.org/2000/svg" xmlns:xlink="http://www.w3.org/1999/xlink" xml:space="preserve" xmlns:serif="http://www.serif.com/" style="fill-rule:evenodd;clip-rule:evenodd;stroke-linejoin:round;stroke-miterlimit:2;">
    <g transform="matrix(1,0,0,1,-1417,-45)">
        <g id="dhaï" transform="matrix(1,0,0,1,1417.42,45.1327)">
            <rect x="0" y="0" width="972.222" height="972.222" style="fill:none;"/>
            <g transform="matrix(1,0,0,1,-1416.95,-44.5272)">
                <path d="M1838.72,591.957C1735.03,607.094 1642.92,672.371 1608.14,808.878C1586.4,894.177 1715.97,803.093 1765.02,714.753C1779.04,689.499 1810.52,637.756 1838.72,591.957ZM1930.95,565.358C1923.49,564.024 1895.58,560.746 1888.07,559.791C1899.46,536.377 1910.87,521.91 1910.87,521.91C1910.87,521.91 1921.2,536.355 1930.95,565.358ZM1913.52,462.012C1891,409.345 1873.72,369.67 1866.57,346.466C1850.37,293.77 1873.55,243.324 1902.57,228.481C1915.53,221.853 1930.14,221.522 1941.66,231.311C1955.75,243.282 1964.87,266.947 1966.79,303.847C1967.98,337.077 1959,371.154 1934.86,421.722C1929.46,433.038 1920.42,448.977 1913.52,462.012ZM1869.16,589.099L1941.11,595.136C1953.98,636.212 1969.16,681.838 1979.57,710.939C1985.15,726.547 2026.6,819.518 2034.9,844.231C2046.64,879.174 2060.54,930.471 2073.82,939.145C2089.55,949.42 2128.62,929.964 2135.5,912.284C2141.53,896.801 2127.33,890.368 2104.93,863.021C2078.14,830.296 2044.56,761.459 2035.59,740.325C2017.91,698.698 2004.43,675.715 1978.12,607.713L1976.07,601.883C1976.07,601.883 1974.72,598.458 1974.8,598.475C2081.58,622.822 2180.04,689.53 2222.3,776.538C2222.99,777.941 2224.62,780.622 2224.71,780.777C2225.78,782.754 2230.51,780.761 2230.93,779.082C2231.36,777.35 2228.88,773.776 2227.73,771.073C2188.56,678.546 2082.18,602.721 1964.11,572.562C1954.13,549.205 1943.64,526.641 1934.4,505.151C1947.06,480.113 1957.57,458.19 1966.04,438.54C1991.07,380.462 1999.79,341.766 1997.38,304.313C1995.02,255.328 1979.89,225.206 1961.51,208.95C1939.61,189.576 1911.97,187.878 1886.3,199.454C1843.99,218.531 1807.27,277.666 1825.58,353.977C1832.85,384.29 1857.4,440.298 1888.99,510.877C1883.53,519.621 1872.4,536.907 1859.17,558.27L1858.64,558.415C1746.82,557.351 1639.54,603.205 1580.02,719.058C1507.88,859.489 1571.14,976.426 1689.87,894.235C1705.73,883.255 1762.73,814.253 1787.35,769.78C1794.47,756.906 1815.85,714.933 1822.28,702.752C1832.23,683.691 1862.43,611.998 1869.17,589.072L1869.16,589.099Z" style="fill:white;stroke:black;stroke-width:1px;"/>
            </g>
        </g>
    </g>
</svg>
