<?xml version="1.0" encoding="UTF-8" standalone="no"?>
<!DOCTYPE svg PUBLIC "-//W3C//DTD SVG 1.1//EN" "http://www.w3.org/Graphics/SVG/1.1/DTD/svg11.dtd">
<svg width="100%" height="100%" viewBox="0 0 974 973" version="1.1" xmlns="http://www.w3.org/2000/svg" xmlns:xlink="http://www.w3.org/1999/xlink" xml:space="preserve" xmlns:serif="http://www.serif.com/" style="fill-rule:evenodd;clip-rule:evenodd;stroke-linejoin:round;stroke-miterlimit:2;">
    <g transform="matrix(1,0,0,1,-3648,-51)">
        <g id="dhi" transform="matrix(1,0,0,1,3648.92,51.4742)">
            <rect x="0" y="0" width="972.222" height="972.222" style="fill:none;"/>
            <g transform="matrix(1,0,0,1,-3648.92,-51.4742)">
                <path d="M4009.6,864.791C4044.58,898.187 4079.33,875.023 4115.74,872.536C4080.58,862.66 4055.69,897.586 4013.98,851.339C4020.83,834.044 4026.9,815.321 4036.85,797.337C4043.98,784.463 4063.73,751.633 4070.16,739.451C4080.14,720.318 4117.67,648.569 4126.78,631.441C4144.13,598.81 4167.97,566.878 4181.89,540.48C4225.18,619.409 4230,635.876 4251.09,687.27C4257.45,702.782 4299.62,792.567 4307.92,817.28C4319.65,852.223 4333.55,903.52 4346.83,912.194C4362.56,922.469 4401.63,903.013 4408.52,885.333C4414.55,869.85 4400.35,863.417 4377.95,836.07C4351.15,803.345 4317.58,734.508 4308.6,713.374C4290.93,671.747 4275.32,642.668 4249.01,574.665C4235.95,540.912 4220.44,508.488 4207.42,478.2C4220.08,453.162 4230.59,431.239 4239.06,411.589C4264.09,353.511 4272.8,314.815 4270.39,277.362C4268.04,228.377 4252.9,198.255 4234.53,181.999C4212.62,162.625 4184.98,160.927 4159.31,172.503C4117.01,191.58 4080.28,250.715 4098.6,327.026C4105.87,357.339 4130.41,413.347 4162,483.926C4143.51,513.558 4122.18,552.417 4095.12,595.79C4084.87,612.215 4040.06,701.597 4029.84,720.559C4020.51,737.879 4009.93,764.751 3999.84,783.522C3992.87,796.492 3988.67,804.453 3982.1,815.939L3981.58,816.083C3938.42,775.242 3894.42,747.836 3863.75,775.802C3789.81,843.228 3891.9,938.519 3977.36,905.918C3991.37,900.572 4000.38,884.838 4008.85,864.836L4009.6,864.791ZM3968.88,843.889C3966.62,877.501 3938.8,885.558 3914.55,878.389C3890.3,871.22 3869.62,848.825 3881.66,821.535C3892,798.082 3937.9,817.554 3968.88,843.889ZM4189.9,437.672C4209.05,393.428 4223.74,360.099 4229.82,340.606C4243.58,296.337 4223.88,253.959 4199.2,241.49C4188.19,235.922 4175.77,235.644 4165.97,243.868C4154,253.925 4146.24,273.805 4144.61,304.803C4143.6,332.719 4151.23,361.346 4171.75,403.826C4176.34,413.332 4184.03,426.722 4189.9,437.672Z" style="fill:white;fill-opacity:0.97;stroke:black;stroke-width:1.69px;"/>
            </g>
        </g>
    </g>
</svg>
